<svg id="Layer_2" data-name="Layer 2" xmlns="http://www.w3.org/2000/svg" viewBox="0 0 278.93 188.63">
  <title>bubble-pattern</title>
  <g>
    <g>
      <circle cx="99.23" cy="210.97" r="1.79" transform="translate(-133.1 25.18) rotate(-45)" style="fill: #bf890e"/>
      <circle cx="107.27" cy="219.02" r="1.79" transform="translate(-136.43 33.22) rotate(-45)" style="fill: #bf890e"/>
      <circle cx="115.32" cy="227.06" r="1.79" transform="translate(-139.76 41.27) rotate(-45)" style="fill: #bf890e"/>
      <circle cx="123.36" cy="235.11" r="1.79" transform="translate(-143.1 49.32) rotate(-45)" style="fill: #bf890e"/>
      <circle cx="131.41" cy="243.15" r="1.79" transform="translate(-146.43 57.37) rotate(-45)" style="fill: #bf890e"/>
      <circle cx="139.45" cy="251.19" r="1.79" transform="translate(-149.76 65.4) rotate(-45)" style="fill: #bf890e"/>
      <circle cx="147.49" cy="259.24" r="1.79" transform="translate(-153.09 73.44) rotate(-45)" style="fill: #bf890e"/>
      <circle cx="155.54" cy="267.28" r="1.79" transform="translate(-156.42 81.49) rotate(-45)" style="fill: #bf890e"/>
      <circle cx="163.58" cy="275.33" r="1.79" transform="translate(-159.76 89.54) rotate(-45)" style="fill: #bf890e"/>
      <circle cx="171.63" cy="283.37" r="1.79" transform="translate(-163.09 97.59) rotate(-45)" style="fill: #bf890e"/>
      <circle cx="179.67" cy="291.42" r="1.79" transform="translate(-166.42 105.63) rotate(-45)" style="fill: #bf890e"/>
      <circle cx="93.6" cy="216.6" r="1.79" transform="translate(-138.73 22.85) rotate(-45)" style="fill: #bf890e"/>
      <circle cx="101.64" cy="224.65" r="1.79" transform="translate(-142.06 30.9) rotate(-45)" style="fill: #bf890e"/>
      <circle cx="109.69" cy="232.69" r="1.79" transform="translate(-145.39 38.94) rotate(-45)" style="fill: #bf890e"/>
      <circle cx="117.73" cy="240.74" r="1.79" transform="translate(-148.72 46.98) rotate(-45)" style="fill: #bf890e"/>
      <circle cx="125.77" cy="248.78" r="1.79" transform="translate(-152.06 55.03) rotate(-45)" style="fill: #bf890e"/>
      <circle cx="133.82" cy="256.83" r="1.79" transform="translate(-155.39 63.07) rotate(-45)" style="fill: #bf890e"/>
      <circle cx="141.86" cy="264.87" r="1.79" transform="translate(-158.72 71.12) rotate(-45)" style="fill: #bf890e"/>
      <circle cx="149.91" cy="272.91" r="1.79" transform="translate(-162.05 79.16) rotate(-45)" style="fill: #bf890e"/>
      <circle cx="157.95" cy="280.96" r="1.79" transform="translate(-165.38 87.21) rotate(-45)" style="fill: #bf890e"/>
      <circle cx="166" cy="289" r="1.79" transform="translate(-168.72 95.25) rotate(-45)" style="fill: #bf890e"/>
      <circle cx="87.97" cy="222.24" r="1.79" transform="translate(-144.36 20.52) rotate(-45)" style="fill: #bf890e"/>
      <circle cx="96.01" cy="230.28" r="1.79" transform="translate(-147.69 28.57) rotate(-45)" style="fill: #bf890e"/>
      <circle cx="104.05" cy="238.32" r="1.79" transform="translate(-151.02 36.61) rotate(-45)" style="fill: #bf890e"/>
      <circle cx="112.1" cy="246.37" r="1.79" transform="translate(-154.35 44.65) rotate(-45)" style="fill: #bf890e"/>
      <circle cx="120.14" cy="254.41" r="1.79" transform="translate(-157.69 52.69) rotate(-45)" style="fill: #bf890e"/>
      <circle cx="128.19" cy="262.46" r="1.79" transform="translate(-161.02 60.74) rotate(-45)" style="fill: #bf890e"/>
      <circle cx="136.23" cy="270.5" r="1.79" transform="translate(-164.35 68.79) rotate(-45)" style="fill: #bf890e"/>
      <circle cx="144.28" cy="278.54" r="1.79" transform="translate(-167.69 76.83) rotate(-45)" style="fill: #bf890e"/>
      <circle cx="152.32" cy="286.59" r="1.79" transform="translate(-171.02 84.87) rotate(-45)" style="fill: #bf890e"/>
      <path d="M162,295.4a1.78,1.78,0,1,0-3.21,0Z" transform="translate(-12.98 -106.77)" style="fill: #bf890e"/>
      <circle cx="82.34" cy="227.87" r="1.79" transform="translate(-149.99 18.19) rotate(-45)" style="fill: #bf890e"/>
      <circle cx="90.38" cy="235.91" r="1.79" transform="translate(-153.32 26.23) rotate(-45)" style="fill: #bf890e"/>
      <circle cx="98.42" cy="243.95" r="1.79" transform="translate(-156.65 34.28) rotate(-45)" style="fill: #bf890e"/>
      <circle cx="106.47" cy="252" r="1.79" transform="translate(-159.99 42.32) rotate(-45)" style="fill: #bf890e"/>
      <circle cx="114.51" cy="260.04" r="1.79" transform="translate(-163.32 50.36) rotate(-45)" style="fill: #bf890e"/>
      <circle cx="122.56" cy="268.09" r="1.79" transform="translate(-166.65 58.41) rotate(-45)" style="fill: #bf890e"/>
      <circle cx="130.6" cy="276.13" r="1.79" transform="translate(-169.98 66.45) rotate(-45)" style="fill: #bf890e"/>
      <circle cx="138.64" cy="284.18" r="1.79" transform="translate(-173.31 74.5) rotate(-45)" style="fill: #bf890e"/>
      <circle cx="146.69" cy="292.22" r="1.79" transform="translate(-176.65 82.54) rotate(-45)" style="fill: #bf890e"/>
      <circle cx="76.7" cy="233.5" r="1.79" transform="translate(-155.62 15.85) rotate(-45)" style="fill: #bf890e"/>
      <circle cx="84.75" cy="241.54" r="1.79" transform="translate(-158.95 23.89) rotate(-45)" style="fill: #bf890e"/>
      <circle cx="92.79" cy="249.59" r="1.79" transform="translate(-162.29 31.94) rotate(-45)" style="fill: #bf890e"/>
      <circle cx="100.84" cy="257.63" r="1.79" transform="translate(-165.62 39.99) rotate(-45)" style="fill: #bf890e"/>
      <circle cx="108.88" cy="265.67" r="1.79" transform="translate(-168.95 48.04) rotate(-45)" style="fill: #bf890e"/>
      <circle cx="116.93" cy="273.72" r="1.79" transform="translate(-172.28 56.08) rotate(-45)" style="fill: #bf890e"/>
      <circle cx="124.97" cy="281.76" r="1.79" transform="translate(-175.61 64.11) rotate(-45)" style="fill: #bf890e"/>
      <circle cx="133.01" cy="289.81" r="1.79" transform="translate(-178.95 72.16) rotate(-45)" style="fill: #bf890e"/>
      <circle cx="71.07" cy="239.13" r="1.79" transform="translate(-161.25 13.52) rotate(-45)" style="fill: #bf890e"/>
      <circle cx="79.12" cy="247.17" r="1.79" transform="translate(-164.58 21.57) rotate(-45)" style="fill: #bf890e"/>
      <circle cx="87.16" cy="255.22" r="1.79" transform="translate(-167.92 29.61) rotate(-45)" style="fill: #bf890e"/>
      <circle cx="95.21" cy="263.26" r="1.79" transform="translate(-171.25 37.65) rotate(-45)" style="fill: #bf890e"/>
      <circle cx="103.25" cy="271.31" r="1.79" transform="translate(-174.58 45.69) rotate(-45)" style="fill: #bf890e"/>
      <circle cx="111.29" cy="279.35" r="1.79" transform="translate(-177.91 53.74) rotate(-45)" style="fill: #bf890e"/>
      <circle cx="119.34" cy="287.39" r="1.79" transform="translate(-181.24 61.79) rotate(-45)" style="fill: #bf890e"/>
      <path d="M129.17,295.4a1.78,1.78,0,0,0-3.57,0Z" transform="translate(-12.98 -106.77)" style="fill: #bf890e"/>
      <circle cx="65.44" cy="244.76" r="1.79" transform="translate(-166.88 11.19) rotate(-45)" style="fill: #bf890e"/>
      <circle cx="73.49" cy="252.8" r="1.79" transform="translate(-170.22 19.24) rotate(-45)" style="fill: #bf890e"/>
      <circle cx="81.53" cy="260.85" r="1.79" transform="translate(-173.55 27.28) rotate(-45)" style="fill: #bf890e"/>
      <circle cx="89.58" cy="268.89" r="1.79" transform="translate(-176.88 35.32) rotate(-45)" style="fill: #bf890e"/>
      <circle cx="97.62" cy="276.94" r="1.79" transform="translate(-180.21 43.36) rotate(-45)" style="fill: #bf890e"/>
      <circle cx="105.66" cy="284.98" r="1.79" transform="translate(-183.54 51.41) rotate(-45)" style="fill: #bf890e"/>
      <circle cx="113.71" cy="293.02" r="1.79" transform="translate(-186.88 59.46) rotate(-45)" style="fill: #bf890e"/>
      <circle cx="59.81" cy="250.39" r="1.79" transform="translate(-172.51 8.86) rotate(-45)" style="fill: #bf890e"/>
      <circle cx="67.86" cy="258.43" r="1.79" transform="translate(-175.85 16.9) rotate(-45)" style="fill: #bf890e"/>
      <circle cx="75.9" cy="266.48" r="1.79" transform="translate(-179.18 24.95) rotate(-45)" style="fill: #bf890e"/>
      <circle cx="83.94" cy="274.52" r="1.79" transform="translate(-182.51 32.99) rotate(-45)" style="fill: #bf890e"/>
      <circle cx="91.99" cy="282.57" r="1.79" transform="translate(-185.84 41.03) rotate(-45)" style="fill: #bf890e"/>
      <circle cx="100.03" cy="290.61" r="1.79" transform="translate(-189.17 49.08) rotate(-45)" style="fill: #bf890e"/>
      <circle cx="54.18" cy="256.02" r="1.79" transform="translate(-178.14 6.52) rotate(-45)" style="fill: #bf890e"/>
      <circle cx="62.23" cy="264.07" r="1.79" transform="translate(-181.47 14.56) rotate(-45)" style="fill: #bf890e"/>
      <circle cx="70.27" cy="272.11" r="1.79" transform="translate(-184.81 22.61) rotate(-45)" style="fill: #bf890e"/>
      <circle cx="78.31" cy="280.15" r="1.79" transform="translate(-188.14 30.66) rotate(-45)" style="fill: #bf890e"/>
      <circle cx="86.36" cy="288.2" r="1.79" transform="translate(-191.48 38.71) rotate(-45)" style="fill: #bf890e"/>
      <path d="M96,295.4a1.76,1.76,0,0,0-.31-.43,1.79,1.79,0,0,0-2.53,0,1.77,1.77,0,0,0-.31.43Z" transform="translate(-12.98 -106.77)" style="fill: #bf890e"/>
      <circle cx="48.55" cy="261.65" r="1.79" transform="translate(-183.78 4.2) rotate(-45)" style="fill: #bf890e"/>
      <circle cx="56.59" cy="269.7" r="1.79" transform="translate(-187.11 12.24) rotate(-45)" style="fill: #bf890e"/>
      <circle cx="64.64" cy="277.74" r="1.79" transform="translate(-190.44 20.28) rotate(-45)" style="fill: #bf890e"/>
      <circle cx="72.68" cy="285.78" r="1.79" transform="translate(-193.77 28.32) rotate(-45)" style="fill: #bf890e"/>
      <path d="M79.9,295.4h1.65a1.76,1.76,0,0,0,.44-.31,1.79,1.79,0,1,0-2.53,0A1.76,1.76,0,0,0,79.9,295.4Z" transform="translate(-12.98 -106.77)" style="fill: #bf890e"/>
      <circle cx="42.92" cy="267.28" r="1.79" transform="translate(-189.41 1.86) rotate(-45)" style="fill: #bf890e"/>
      <circle cx="50.96" cy="275.33" r="1.79" transform="translate(-192.74 9.91) rotate(-45)" style="fill: #bf890e"/>
      <circle cx="59.01" cy="283.37" r="1.79" transform="translate(-196.07 17.95) rotate(-45)" style="fill: #bf890e"/>
      <circle cx="67.05" cy="291.42" r="1.79" transform="translate(-199.4 25.99) rotate(-45)" style="fill: #bf890e"/>
      <circle cx="37.29" cy="272.91" r="1.79" transform="translate(-195.04 -0.47) rotate(-45)" style="fill: #bf890e"/>
      <circle cx="45.33" cy="280.96" r="1.79" transform="translate(-198.37 7.57) rotate(-45)" style="fill: #bf890e"/>
      <circle cx="53.38" cy="289" r="1.79" transform="translate(-201.7 15.61) rotate(-45)" style="fill: #bf890e"/>
      <circle cx="31.66" cy="278.54" r="1.79" transform="translate(-200.67 -2.8) rotate(-45)" style="fill: #bf890e"/>
      <circle cx="39.7" cy="286.59" r="1.79" transform="translate(-204 5.24) rotate(-45)" style="fill: #bf890e"/>
      <path d="M49.35,295.4a1.78,1.78,0,1,0-3.21,0Z" transform="translate(-12.98 -106.77)" style="fill: #bf890e"/>
      <circle cx="26.03" cy="284.18" r="1.79" transform="translate(-206.3 -5.13) rotate(-45)" style="fill: #bf890e"/>
      <circle cx="34.07" cy="292.22" r="1.79" transform="translate(-209.64 2.91) rotate(-45)" style="fill: #bf890e"/>
      <circle cx="20.4" cy="289.81" r="1.79" transform="translate(-211.93 -7.47) rotate(-45)" style="fill: #bf890e"/>
      <path d="M16.55,295.4a1.78,1.78,0,0,0-3.57,0Z" transform="translate(-12.98 -106.77)" style="fill: #bf890e"/>
    </g>
    <g>
      <circle cx="201.64" cy="108.56" r="1.79" transform="translate(-30.69 67.6) rotate(-45)" style="fill: #bf890e"/>
      <circle cx="209.68" cy="116.61" r="1.79" transform="translate(-34.02 75.64) rotate(-45)" style="fill: #bf890e"/>
      <circle cx="217.73" cy="124.65" r="1.79" transform="translate(-37.35 83.69) rotate(-45)" style="fill: #bf890e"/>
      <circle cx="225.77" cy="132.69" r="1.79" transform="translate(-40.68 91.74) rotate(-45)" style="fill: #bf890e"/>
      <circle cx="233.82" cy="140.74" r="1.79" transform="translate(-44.01 99.79) rotate(-45)" style="fill: #bf890e"/>
      <circle cx="241.86" cy="148.78" r="1.79" transform="translate(-47.35 107.83) rotate(-45)" style="fill: #bf890e"/>
      <circle cx="249.91" cy="156.83" r="1.79" transform="translate(-50.68 115.86) rotate(-45)" style="fill: #bf890e"/>
      <circle cx="257.95" cy="164.87" r="1.79" transform="translate(-54.01 123.91) rotate(-45)" style="fill: #bf890e"/>
      <circle cx="265.99" cy="172.91" r="1.79" transform="translate(-57.34 131.96) rotate(-45)" style="fill: #bf890e"/>
      <circle cx="274.04" cy="180.96" r="1.79" transform="translate(-60.67 140.01) rotate(-45)" style="fill: #bf890e"/>
      <circle cx="282.08" cy="189" r="1.79" transform="translate(-64.01 148.05) rotate(-45)" style="fill: #bf890e"/>
      <circle cx="290.13" cy="197.05" r="1.79" transform="translate(-67.34 156.08) rotate(-45)" style="fill: #bf890e"/>
      <circle cx="196.01" cy="114.19" r="1.79" transform="translate(-36.32 65.27) rotate(-45)" style="fill: #bf890e"/>
      <circle cx="204.05" cy="122.24" r="1.79" transform="translate(-39.65 73.32) rotate(-45)" style="fill: #bf890e"/>
      <circle cx="212.1" cy="130.28" r="1.79" transform="translate(-42.98 81.36) rotate(-45)" style="fill: #bf890e"/>
      <circle cx="220.14" cy="138.33" r="1.79" transform="translate(-46.31 89.4) rotate(-45)" style="fill: #bf890e"/>
      <circle cx="228.19" cy="146.37" r="1.79" transform="translate(-49.64 97.45) rotate(-45)" style="fill: #bf890e"/>
      <circle cx="236.23" cy="154.41" r="1.79" transform="translate(-52.98 105.49) rotate(-45)" style="fill: #bf890e"/>
      <circle cx="244.27" cy="162.46" r="1.79" transform="translate(-56.31 113.54) rotate(-45)" style="fill: #bf890e"/>
      <circle cx="252.32" cy="170.5" r="1.79" transform="translate(-59.64 121.58) rotate(-45)" style="fill: #bf890e"/>
      <circle cx="260.36" cy="178.55" r="1.79" transform="translate(-62.97 129.63) rotate(-45)" style="fill: #bf890e"/>
      <circle cx="268.41" cy="186.59" r="1.79" transform="translate(-66.3 137.67) rotate(-45)" style="fill: #bf890e"/>
      <circle cx="276.45" cy="194.63" r="1.79" transform="translate(-69.64 145.71) rotate(-45)" style="fill: #bf890e"/>
      <circle cx="284.5" cy="202.68" r="1.79" transform="translate(-72.97 153.75) rotate(-45)" style="fill: #bf890e"/>
      <circle cx="190.38" cy="119.82" r="1.79" transform="translate(-41.95 62.94) rotate(-45)" style="fill: #bf890e"/>
      <circle cx="198.42" cy="127.87" r="1.79" transform="translate(-45.28 70.99) rotate(-45)" style="fill: #bf890e"/>
      <circle cx="206.47" cy="135.91" r="1.79" transform="translate(-48.61 79.03) rotate(-45)" style="fill: #bf890e"/>
      <circle cx="214.51" cy="143.96" r="1.79" transform="translate(-51.94 87.07) rotate(-45)" style="fill: #bf890e"/>
      <circle cx="222.56" cy="152" r="1.79" transform="translate(-55.28 95.11) rotate(-45)" style="fill: #bf890e"/>
      <circle cx="230.6" cy="160.04" r="1.79" transform="translate(-58.61 103.16) rotate(-45)" style="fill: #bf890e"/>
      <circle cx="238.64" cy="168.09" r="1.79" transform="translate(-61.94 111.21) rotate(-45)" style="fill: #bf890e"/>
      <circle cx="246.69" cy="176.13" r="1.79" transform="translate(-65.27 119.25) rotate(-45)" style="fill: #bf890e"/>
      <circle cx="254.73" cy="184.18" r="1.79" transform="translate(-68.6 127.29) rotate(-45)" style="fill: #bf890e"/>
      <circle cx="262.78" cy="192.22" r="1.79" transform="translate(-71.94 135.33) rotate(-45)" style="fill: #bf890e"/>
      <circle cx="270.82" cy="200.27" r="1.79" transform="translate(-75.27 143.38) rotate(-45)" style="fill: #bf890e"/>
      <circle cx="278.86" cy="208.31" r="1.79" transform="translate(-78.6 151.43) rotate(-45)" style="fill: #bf890e"/>
      <circle cx="184.75" cy="125.45" r="1.79" transform="translate(-47.58 60.61) rotate(-45)" style="fill: #bf890e"/>
      <circle cx="192.79" cy="133.5" r="1.79" transform="translate(-50.91 68.65) rotate(-45)" style="fill: #bf890e"/>
      <circle cx="200.84" cy="141.54" r="1.79" transform="translate(-54.24 76.7) rotate(-45)" style="fill: #bf890e"/>
      <circle cx="208.88" cy="149.59" r="1.79" transform="translate(-57.57 84.74) rotate(-45)" style="fill: #bf890e"/>
      <circle cx="216.92" cy="157.63" r="1.79" transform="translate(-60.91 92.78) rotate(-45)" style="fill: #bf890e"/>
      <circle cx="224.97" cy="165.68" r="1.79" transform="translate(-64.24 100.83) rotate(-45)" style="fill: #bf890e"/>
      <circle cx="233.01" cy="173.72" r="1.79" transform="translate(-67.57 108.87) rotate(-45)" style="fill: #bf890e"/>
      <circle cx="241.06" cy="181.76" r="1.79" transform="translate(-70.9 116.92) rotate(-45)" style="fill: #bf890e"/>
      <circle cx="249.1" cy="189.81" r="1.79" transform="translate(-74.23 124.96) rotate(-45)" style="fill: #bf890e"/>
      <circle cx="257.15" cy="197.85" r="1.79" transform="translate(-77.57 133) rotate(-45)" style="fill: #bf890e"/>
      <circle cx="265.19" cy="205.9" r="1.79" transform="translate(-80.9 141.05) rotate(-45)" style="fill: #bf890e"/>
      <circle cx="273.23" cy="213.94" r="1.79" transform="translate(-84.23 149.09) rotate(-45)" style="fill: #bf890e"/>
      <circle cx="179.12" cy="131.09" r="1.79" transform="translate(-53.21 58.27) rotate(-45)" style="fill: #bf890e"/>
      <circle cx="187.16" cy="139.13" r="1.79" transform="translate(-56.54 66.31) rotate(-45)" style="fill: #bf890e"/>
      <circle cx="195.21" cy="147.17" r="1.79" transform="translate(-59.87 74.36) rotate(-45)" style="fill: #bf890e"/>
      <circle cx="203.25" cy="155.22" r="1.79" transform="translate(-63.2 82.41) rotate(-45)" style="fill: #bf890e"/>
      <circle cx="211.29" cy="163.26" r="1.79" transform="translate(-66.54 90.46) rotate(-45)" style="fill: #bf890e"/>
      <circle cx="219.34" cy="171.31" r="1.79" transform="translate(-69.87 98.5) rotate(-45)" style="fill: #bf890e"/>
      <circle cx="227.38" cy="179.35" r="1.79" transform="translate(-73.2 106.53) rotate(-45)" style="fill: #bf890e"/>
      <circle cx="235.43" cy="187.39" r="1.79" transform="translate(-76.53 114.58) rotate(-45)" style="fill: #bf890e"/>
      <circle cx="243.47" cy="195.44" r="1.79" transform="translate(-79.87 122.63) rotate(-45)" style="fill: #bf890e"/>
      <circle cx="251.51" cy="203.48" r="1.79" transform="translate(-83.2 130.68) rotate(-45)" style="fill: #bf890e"/>
      <circle cx="259.56" cy="211.53" r="1.79" transform="translate(-86.53 138.72) rotate(-45)" style="fill: #bf890e"/>
      <circle cx="267.6" cy="219.57" r="1.79" transform="translate(-89.86 146.75) rotate(-45)" style="fill: #bf890e"/>
      <circle cx="173.49" cy="136.72" r="1.79" transform="translate(-58.84 55.94) rotate(-45)" style="fill: #bf890e"/>
      <circle cx="181.53" cy="144.76" r="1.79" transform="translate(-62.17 63.99) rotate(-45)" style="fill: #bf890e"/>
      <circle cx="189.57" cy="152.8" r="1.79" transform="translate(-65.5 72.03) rotate(-45)" style="fill: #bf890e"/>
      <circle cx="197.62" cy="160.85" r="1.79" transform="translate(-68.84 80.08) rotate(-45)" style="fill: #bf890e"/>
      <circle cx="205.66" cy="168.89" r="1.79" transform="translate(-72.17 88.12) rotate(-45)" style="fill: #bf890e"/>
      <circle cx="213.71" cy="176.94" r="1.79" transform="translate(-75.5 96.16) rotate(-45)" style="fill: #bf890e"/>
      <circle cx="221.75" cy="184.98" r="1.79" transform="translate(-78.83 104.21) rotate(-45)" style="fill: #bf890e"/>
      <circle cx="229.8" cy="193.03" r="1.79" transform="translate(-82.16 112.25) rotate(-45)" style="fill: #bf890e"/>
      <circle cx="237.84" cy="201.07" r="1.79" transform="translate(-85.5 120.3) rotate(-45)" style="fill: #bf890e"/>
      <circle cx="245.88" cy="209.11" r="1.79" transform="translate(-88.83 128.34) rotate(-45)" style="fill: #bf890e"/>
      <circle cx="253.93" cy="217.16" r="1.79" transform="translate(-92.16 136.38) rotate(-45)" style="fill: #bf890e"/>
      <circle cx="261.97" cy="225.2" r="1.79" transform="translate(-95.49 144.43) rotate(-45)" style="fill: #bf890e"/>
      <circle cx="167.86" cy="142.35" r="1.79" transform="translate(-64.47 53.61) rotate(-45)" style="fill: #bf890e"/>
      <circle cx="175.9" cy="150.39" r="1.79" transform="translate(-67.8 61.66) rotate(-45)" style="fill: #bf890e"/>
      <circle cx="183.94" cy="158.44" r="1.79" transform="translate(-71.13 69.7) rotate(-45)" style="fill: #bf890e"/>
      <circle cx="191.99" cy="166.48" r="1.79" transform="translate(-74.47 77.74) rotate(-45)" style="fill: #bf890e"/>
      <circle cx="200.03" cy="174.52" r="1.79" transform="translate(-77.8 85.78) rotate(-45)" style="fill: #bf890e"/>
      <circle cx="208.08" cy="182.57" r="1.79" transform="translate(-81.13 93.83) rotate(-45)" style="fill: #bf890e"/>
      <circle cx="216.12" cy="190.61" r="1.79" transform="translate(-84.46 101.88) rotate(-45)" style="fill: #bf890e"/>
      <circle cx="224.16" cy="198.66" r="1.79" transform="translate(-87.79 109.93) rotate(-45)" style="fill: #bf890e"/>
      <circle cx="232.21" cy="206.7" r="1.79" transform="translate(-91.13 117.96) rotate(-45)" style="fill: #bf890e"/>
      <circle cx="240.25" cy="214.74" r="1.79" transform="translate(-94.46 126) rotate(-45)" style="fill: #bf890e"/>
      <circle cx="248.3" cy="222.79" r="1.79" transform="translate(-97.79 134.05) rotate(-45)" style="fill: #bf890e"/>
      <circle cx="256.34" cy="230.83" r="1.79" transform="translate(-101.12 142.1) rotate(-45)" style="fill: #bf890e"/>
      <circle cx="162.22" cy="147.98" r="1.79" transform="translate(-70.1 51.28) rotate(-45)" style="fill: #bf890e"/>
      <circle cx="170.27" cy="156.02" r="1.79" transform="translate(-73.43 59.32) rotate(-45)" style="fill: #bf890e"/>
      <circle cx="178.31" cy="164.07" r="1.79" transform="translate(-76.77 67.37) rotate(-45)" style="fill: #bf890e"/>
      <circle cx="186.36" cy="172.11" r="1.79" transform="translate(-80.1 75.42) rotate(-45)" style="fill: #bf890e"/>
      <circle cx="194.4" cy="180.15" r="1.79" transform="translate(-83.43 83.45) rotate(-45)" style="fill: #bf890e"/>
      <circle cx="202.45" cy="188.2" r="1.79" transform="translate(-86.76 91.5) rotate(-45)" style="fill: #bf890e"/>
      <circle cx="210.49" cy="196.24" r="1.79" transform="translate(-90.09 99.54) rotate(-45)" style="fill: #bf890e"/>
      <circle cx="218.53" cy="204.29" r="1.79" transform="translate(-93.43 107.58) rotate(-45)" style="fill: #bf890e"/>
      <circle cx="226.58" cy="212.33" r="1.79" transform="translate(-96.76 115.63) rotate(-45)" style="fill: #bf890e"/>
      <circle cx="234.62" cy="220.38" r="1.79" transform="translate(-100.09 123.68) rotate(-45)" style="fill: #bf890e"/>
      <circle cx="242.67" cy="228.42" r="1.79" transform="translate(-103.42 131.72) rotate(-45)" style="fill: #bf890e"/>
      <circle cx="250.71" cy="236.46" r="1.79" transform="translate(-106.75 139.76) rotate(-45)" style="fill: #bf890e"/>
      <circle cx="156.59" cy="153.61" r="1.79" transform="translate(-75.73 48.94) rotate(-45)" style="fill: #bf890e"/>
      <circle cx="164.64" cy="161.65" r="1.79" transform="translate(-79.06 56.98) rotate(-45)" style="fill: #bf890e"/>
      <circle cx="172.68" cy="169.7" r="1.79" transform="translate(-82.4 65.03) rotate(-45)" style="fill: #bf890e"/>
      <circle cx="180.73" cy="177.74" r="1.79" transform="translate(-85.73 73.08) rotate(-45)" style="fill: #bf890e"/>
      <circle cx="188.77" cy="185.79" r="1.79" transform="translate(-89.06 81.13) rotate(-45)" style="fill: #bf890e"/>
      <circle cx="196.81" cy="193.83" r="1.79" transform="translate(-92.39 89.17) rotate(-45)" style="fill: #bf890e"/>
      <circle cx="204.86" cy="201.87" r="1.79" transform="translate(-95.72 97.2) rotate(-45)" style="fill: #bf890e"/>
      <circle cx="212.9" cy="209.92" r="1.79" transform="translate(-99.06 105.25) rotate(-45)" style="fill: #bf890e"/>
      <circle cx="220.95" cy="217.96" r="1.79" transform="translate(-102.39 113.3) rotate(-45)" style="fill: #bf890e"/>
      <circle cx="228.99" cy="226.01" r="1.79" transform="translate(-105.72 121.35) rotate(-45)" style="fill: #bf890e"/>
      <circle cx="237.04" cy="234.05" r="1.79" transform="translate(-109.05 129.39) rotate(-45)" style="fill: #bf890e"/>
      <circle cx="245.08" cy="242.09" r="1.79" transform="translate(-112.38 137.42) rotate(-45)" style="fill: #bf890e"/>
      <circle cx="150.96" cy="159.24" r="1.79" transform="translate(-81.36 46.61) rotate(-45)" style="fill: #bf890e"/>
      <circle cx="159.01" cy="167.28" r="1.79" transform="translate(-84.7 54.66) rotate(-45)" style="fill: #bf890e"/>
      <circle cx="167.05" cy="175.33" r="1.79" transform="translate(-88.03 62.7) rotate(-45)" style="fill: #bf890e"/>
      <circle cx="175.09" cy="183.37" r="1.79" transform="translate(-91.36 70.75) rotate(-45)" style="fill: #bf890e"/>
      <circle cx="183.14" cy="191.42" r="1.79" transform="translate(-94.69 78.78) rotate(-45)" style="fill: #bf890e"/>
      <circle cx="191.18" cy="199.46" r="1.79" transform="translate(-98.02 86.83) rotate(-45)" style="fill: #bf890e"/>
      <circle cx="199.23" cy="207.5" r="1.79" transform="translate(-101.36 94.88) rotate(-45)" style="fill: #bf890e"/>
      <circle cx="207.27" cy="215.55" r="1.79" transform="translate(-104.69 102.92) rotate(-45)" style="fill: #bf890e"/>
      <circle cx="215.32" cy="223.59" r="1.79" transform="translate(-108.02 110.97) rotate(-45)" style="fill: #bf890e"/>
      <circle cx="223.36" cy="231.64" r="1.79" transform="translate(-111.35 119) rotate(-45)" style="fill: #bf890e"/>
      <circle cx="231.4" cy="239.68" r="1.79" transform="translate(-114.68 127.05) rotate(-45)" style="fill: #bf890e"/>
      <circle cx="239.45" cy="247.73" r="1.79" transform="translate(-118.02 135.11) rotate(-45)" style="fill: #bf890e"/>
      <circle cx="145.33" cy="164.87" r="1.79" transform="translate(-86.99 44.28) rotate(-45)" style="fill: #bf890e"/>
      <circle cx="153.38" cy="172.91" r="1.79" transform="translate(-90.33 52.33) rotate(-45)" style="fill: #bf890e"/>
      <circle cx="161.42" cy="180.96" r="1.79" transform="translate(-93.66 60.37) rotate(-45)" style="fill: #bf890e"/>
      <circle cx="169.46" cy="189" r="1.79" transform="translate(-96.99 68.41) rotate(-45)" style="fill: #bf890e"/>
      <circle cx="177.51" cy="197.05" r="1.79" transform="translate(-100.32 76.46) rotate(-45)" style="fill: #bf890e"/>
      <circle cx="185.55" cy="205.09" r="1.79" transform="translate(-103.65 84.5) rotate(-45)" style="fill: #bf890e"/>
      <circle cx="193.6" cy="213.14" r="1.79" transform="translate(-106.99 92.55) rotate(-45)" style="fill: #bf890e"/>
      <circle cx="201.64" cy="221.18" r="1.79" transform="translate(-110.32 100.6) rotate(-45)" style="fill: #bf890e"/>
      <circle cx="209.68" cy="229.22" r="1.79" transform="translate(-113.65 108.63) rotate(-45)" style="fill: #bf890e"/>
      <circle cx="217.73" cy="237.27" r="1.79" transform="translate(-116.98 116.67) rotate(-45)" style="fill: #bf890e"/>
      <circle cx="225.77" cy="245.31" r="1.79" transform="translate(-120.31 124.72) rotate(-45)" style="fill: #bf890e"/>
      <circle cx="233.82" cy="253.36" r="1.79" transform="translate(-123.65 132.77) rotate(-45)" style="fill: #bf890e"/>
      <circle cx="139.7" cy="170.5" r="1.79" transform="translate(-92.63 41.95) rotate(-45)" style="fill: #bf890e"/>
      <circle cx="147.74" cy="178.55" r="1.79" transform="translate(-95.96 49.99) rotate(-45)" style="fill: #bf890e"/>
      <circle cx="155.79" cy="186.59" r="1.79" transform="translate(-99.29 58.03) rotate(-45)" style="fill: #bf890e"/>
      <circle cx="163.83" cy="194.63" r="1.79" transform="translate(-102.62 66.09) rotate(-45)" style="fill: #bf890e"/>
      <circle cx="171.88" cy="202.68" r="1.79" transform="translate(-105.95 74.12) rotate(-45)" style="fill: #bf890e"/>
      <circle cx="179.92" cy="210.72" r="1.79" transform="translate(-109.29 82.17) rotate(-45)" style="fill: #bf890e"/>
      <circle cx="187.97" cy="218.77" r="1.79" transform="translate(-112.62 90.21) rotate(-45)" style="fill: #bf890e"/>
      <circle cx="196.01" cy="226.81" r="1.79" transform="translate(-115.95 98.25) rotate(-45)" style="fill: #bf890e"/>
      <circle cx="204.05" cy="234.86" r="1.79" transform="translate(-119.28 106.31) rotate(-45)" style="fill: #bf890e"/>
      <circle cx="212.1" cy="242.9" r="1.79" transform="translate(-122.61 114.35) rotate(-45)" style="fill: #bf890e"/>
      <circle cx="220.14" cy="250.94" r="1.79" transform="translate(-125.95 122.39) rotate(-45)" style="fill: #bf890e"/>
      <circle cx="228.19" cy="258.99" r="1.79" transform="translate(-129.28 130.43) rotate(-45)" style="fill: #bf890e"/>
      <circle cx="134.07" cy="176.13" r="1.79" transform="translate(-98.26 39.61) rotate(-45)" style="fill: #bf890e"/>
      <circle cx="142.11" cy="184.18" r="1.79" transform="translate(-101.59 47.66) rotate(-45)" style="fill: #bf890e"/>
      <circle cx="150.16" cy="192.22" r="1.79" transform="translate(-104.92 55.7) rotate(-45)" style="fill: #bf890e"/>
      <circle cx="158.2" cy="200.27" r="1.79" transform="translate(-108.25 63.75) rotate(-45)" style="fill: #bf890e"/>
      <circle cx="166.25" cy="208.31" r="1.79" transform="translate(-111.59 71.8) rotate(-45)" style="fill: #bf890e"/>
      <circle cx="174.29" cy="216.35" r="1.79" transform="translate(-114.92 79.84) rotate(-45)" style="fill: #bf890e"/>
      <circle cx="182.33" cy="224.4" r="1.79" transform="translate(-118.25 87.88) rotate(-45)" style="fill: #bf890e"/>
      <circle cx="190.38" cy="232.44" r="1.79" transform="translate(-121.58 95.92) rotate(-45)" style="fill: #bf890e"/>
      <circle cx="198.42" cy="240.49" r="1.79" transform="translate(-124.91 103.97) rotate(-45)" style="fill: #bf890e"/>
      <circle cx="206.47" cy="248.53" r="1.79" transform="translate(-128.25 112.02) rotate(-45)" style="fill: #bf890e"/>
      <circle cx="214.51" cy="256.57" r="1.79" transform="translate(-131.58 120.06) rotate(-45)" style="fill: #bf890e"/>
      <circle cx="222.56" cy="264.62" r="1.79" transform="translate(-134.91 128.09) rotate(-45)" style="fill: #bf890e"/>
      <circle cx="128.44" cy="181.76" r="1.79" transform="translate(-103.89 37.29) rotate(-45)" style="fill: #bf890e"/>
      <circle cx="136.48" cy="189.81" r="1.79" transform="translate(-107.22 45.33) rotate(-45)" style="fill: #bf890e"/>
      <circle cx="144.53" cy="197.85" r="1.79" transform="translate(-110.55 53.37) rotate(-45)" style="fill: #bf890e"/>
      <circle cx="152.57" cy="205.9" r="1.79" transform="translate(-113.88 61.42) rotate(-45)" style="fill: #bf890e"/>
      <circle cx="160.62" cy="213.94" r="1.79" transform="translate(-117.21 69.45) rotate(-45)" style="fill: #bf890e"/>
      <circle cx="168.66" cy="221.98" r="1.79" transform="translate(-120.55 77.51) rotate(-45)" style="fill: #bf890e"/>
      <circle cx="176.7" cy="230.03" r="1.79" transform="translate(-123.88 85.55) rotate(-45)" style="fill: #bf890e"/>
      <circle cx="184.75" cy="238.07" r="1.79" transform="translate(-127.21 93.59) rotate(-45)" style="fill: #bf890e"/>
      <circle cx="192.79" cy="246.12" r="1.79" transform="translate(-130.54 101.64) rotate(-45)" style="fill: #bf890e"/>
      <circle cx="200.84" cy="254.16" r="1.79" transform="translate(-133.87 109.67) rotate(-45)" style="fill: #bf890e"/>
      <circle cx="208.88" cy="262.21" r="1.79" transform="translate(-137.21 117.72) rotate(-45)" style="fill: #bf890e"/>
      <circle cx="216.92" cy="270.25" r="1.79" transform="translate(-140.54 125.78) rotate(-45)" style="fill: #bf890e"/>
      <circle cx="122.81" cy="187.39" r="1.79" transform="translate(-109.52 34.95) rotate(-45)" style="fill: #bf890e"/>
      <circle cx="130.85" cy="195.44" r="1.79" transform="translate(-112.85 43) rotate(-45)" style="fill: #bf890e"/>
      <circle cx="138.9" cy="203.48" r="1.79" transform="translate(-116.18 51.04) rotate(-45)" style="fill: #bf890e"/>
      <circle cx="146.94" cy="211.53" r="1.79" transform="translate(-119.51 59.08) rotate(-45)" style="fill: #bf890e"/>
      <circle cx="154.98" cy="219.57" r="1.79" transform="translate(-122.85 67.13) rotate(-45)" style="fill: #bf890e"/>
      <circle cx="163.03" cy="227.62" r="1.79" transform="translate(-126.18 75.17) rotate(-45)" style="fill: #bf890e"/>
      <circle cx="171.07" cy="235.66" r="1.79" transform="translate(-129.51 83.22) rotate(-45)" style="fill: #bf890e"/>
      <circle cx="179.12" cy="243.7" r="1.79" transform="translate(-132.84 91.27) rotate(-45)" style="fill: #bf890e"/>
      <circle cx="187.16" cy="251.75" r="1.79" transform="translate(-136.17 99.3) rotate(-45)" style="fill: #bf890e"/>
      <circle cx="195.21" cy="259.79" r="1.79" transform="translate(-139.51 107.35) rotate(-45)" style="fill: #bf890e"/>
      <circle cx="203.25" cy="267.84" r="1.79" transform="translate(-142.84 115.39) rotate(-45)" style="fill: #bf890e"/>
      <circle cx="211.29" cy="275.88" r="1.79" transform="translate(-146.17 123.44) rotate(-45)" style="fill: #bf890e"/>
      <circle cx="117.18" cy="193.03" r="1.79" transform="translate(-115.15 32.62) rotate(-45)" style="fill: #bf890e"/>
      <circle cx="125.22" cy="201.07" r="1.79" transform="translate(-118.48 40.66) rotate(-45)" style="fill: #bf890e"/>
      <circle cx="133.27" cy="209.11" r="1.79" transform="translate(-121.81 48.7) rotate(-45)" style="fill: #bf890e"/>
      <circle cx="141.31" cy="217.16" r="1.79" transform="translate(-125.15 56.76) rotate(-45)" style="fill: #bf890e"/>
      <circle cx="149.35" cy="225.2" r="1.79" transform="translate(-128.48 64.8) rotate(-45)" style="fill: #bf890e"/>
      <circle cx="157.4" cy="233.25" r="1.79" transform="translate(-131.81 72.84) rotate(-45)" style="fill: #bf890e"/>
      <circle cx="165.44" cy="241.29" r="1.79" transform="translate(-135.14 80.88) rotate(-45)" style="fill: #bf890e"/>
      <circle cx="173.49" cy="249.33" r="1.79" transform="translate(-138.47 88.92) rotate(-45)" style="fill: #bf890e"/>
      <circle cx="181.53" cy="257.38" r="1.79" transform="translate(-141.81 96.98) rotate(-45)" style="fill: #bf890e"/>
      <circle cx="189.57" cy="265.42" r="1.79" transform="translate(-145.14 105.02) rotate(-45)" style="fill: #bf890e"/>
      <circle cx="197.62" cy="273.47" r="1.79" transform="translate(-148.47 113.06) rotate(-45)" style="fill: #bf890e"/>
      <circle cx="205.66" cy="281.51" r="1.79" transform="translate(-151.8 121.1) rotate(-45)" style="fill: #bf890e"/>
      <circle cx="111.55" cy="198.66" r="1.79" transform="translate(-120.78 30.29) rotate(-45)" style="fill: #bf890e"/>
      <circle cx="119.59" cy="206.7" r="1.79" transform="translate(-124.11 38.33) rotate(-45)" style="fill: #bf890e"/>
      <circle cx="127.63" cy="214.74" r="1.79" transform="translate(-127.44 46.37) rotate(-45)" style="fill: #bf890e"/>
      <circle cx="135.68" cy="222.79" r="1.79" transform="translate(-130.78 54.42) rotate(-45)" style="fill: #bf890e"/>
      <circle cx="143.72" cy="230.83" r="1.79" transform="translate(-134.11 62.47) rotate(-45)" style="fill: #bf890e"/>
      <circle cx="151.77" cy="238.88" r="1.79" transform="translate(-137.44 70.51) rotate(-45)" style="fill: #bf890e"/>
      <circle cx="159.81" cy="246.92" r="1.79" transform="translate(-140.77 78.55) rotate(-45)" style="fill: #bf890e"/>
      <circle cx="167.86" cy="254.97" r="1.79" transform="translate(-144.1 86.6) rotate(-45)" style="fill: #bf890e"/>
      <circle cx="175.9" cy="263.01" r="1.79" transform="translate(-147.44 94.64) rotate(-45)" style="fill: #bf890e"/>
      <circle cx="183.94" cy="271.05" r="1.79" transform="translate(-150.77 102.68) rotate(-45)" style="fill: #bf890e"/>
      <circle cx="191.99" cy="279.1" r="1.79" transform="translate(-154.1 110.73) rotate(-45)" style="fill: #bf890e"/>
      <circle cx="200.03" cy="287.14" r="1.79" transform="translate(-157.43 118.77) rotate(-45)" style="fill: #bf890e"/>
      <circle cx="105.91" cy="204.29" r="1.79" transform="translate(-126.41 27.95) rotate(-45)" style="fill: #bf890e"/>
      <circle cx="113.96" cy="212.33" r="1.79" transform="translate(-129.74 36) rotate(-45)" style="fill: #bf890e"/>
      <circle cx="122" cy="220.38" r="1.79" transform="translate(-133.08 44.04) rotate(-45)" style="fill: #bf890e"/>
      <circle cx="130.05" cy="228.42" r="1.79" transform="translate(-136.41 52.09) rotate(-45)" style="fill: #bf890e"/>
      <circle cx="138.09" cy="236.46" r="1.79" transform="translate(-139.74 60.13) rotate(-45)" style="fill: #bf890e"/>
      <circle cx="146.14" cy="244.51" r="1.79" transform="translate(-143.07 68.17) rotate(-45)" style="fill: #bf890e"/>
      <circle cx="154.18" cy="252.55" r="1.79" transform="translate(-146.4 76.22) rotate(-45)" style="fill: #bf890e"/>
      <circle cx="162.22" cy="260.6" r="1.79" transform="translate(-149.74 84.26) rotate(-45)" style="fill: #bf890e"/>
      <circle cx="170.27" cy="268.64" r="1.79" transform="translate(-153.07 92.31) rotate(-45)" style="fill: #bf890e"/>
      <circle cx="178.31" cy="276.68" r="1.79" transform="translate(-156.4 100.34) rotate(-45)" style="fill: #bf890e"/>
      <circle cx="186.36" cy="284.73" r="1.79" transform="translate(-159.73 108.4) rotate(-45)" style="fill: #bf890e"/>
      <circle cx="194.4" cy="292.77" r="1.79" transform="translate(-163.06 116.45) rotate(-45)" style="fill: #bf890e"/>
    </g>
  </g>
</svg>
