<svg id="Layer_1" data-name="Layer 1" xmlns="http://www.w3.org/2000/svg" viewBox="0 0 248.63 120">
  <defs>
    <linearGradient id="linear-gradient" x1="0.04" y1="99.17" x2="147.96" y2="99.17" gradientUnits="userSpaceOnUse">
      <stop offset="0.27" stop-color="#ffda00"/>
      <stop offset="1" stop-color="#faeb00"/>
    </linearGradient>
  </defs>
  <title>logo--tablet</title>
  <path d="M70.1,15.45c1.45.52.85,2.12,1.47,3.19.47.82,1.76.46,2-.49a4.22,4.22,0,0,0-2.77-4.93,4.16,4.16,0,0,0-5.17,2.19c-.34.92.49,2,1.35,1.58C68.13,16.5,68.64,14.93,70.1,15.45Zm10.61,3.33c1.34.77.48,2.23.9,3.39.32.89,1.65.76,2.08-.13a4.22,4.22,0,0,0-1.89-5.33A4.16,4.16,0,0,0,76.33,18c-.5.85.14,2,1.06,1.79C78.59,19.48,79.37,18,80.71,18.79Zm-1.42,58c-2.14-2.89.59-3.24,2.65-4.52A9.72,9.72,0,0,0,85.49,68a37.67,37.67,0,0,0,1.81-5.61L88,59.25c.58-2.16,3-2.19,2.06,1.81a44.58,44.58,0,0,1-2,6.8c-1.09,2.7-2.29,4.9-4.83,6.45-1.42.87-2.24,1.08-.76,2.29l3,2.88c4,4.3,5.1,8.54,3.16,14.05a14.39,14.39,0,0,1-3,5.26,1.14,1.14,0,0,1-2-1.11c.1-.45,2.09-3.12,2.77-5.14,1-4.71,1.12-7.39-2.62-11.24A45,45,0,0,1,79.29,76.78Zm-11.62-18c.23.29.33.76,1.23.39l3.67-1.51L66.78,58C67,58,67.18,58.14,67.67,58.77Zm-9.14,42.51c.42,5.77,1.66,5.91,7,8A8.3,8.3,0,0,1,70.93,117c.1,6.88-9.07,11-13.8,5.13a6.29,6.29,0,0,1,.17-8.51c1.52-1.61,3.95-2.36,6.93-1.16a4.47,4.47,0,0,1,2.91,4.43c-.23,3.62-4.12,5-7,3-2.16-1.55-.41-3.6.88-2.3,1,1,3.25,1.55,3.64-.54a2.52,2.52,0,0,0-2-2.72c-3.53-1.21-5.68,3.06-4.36,5.57a5.71,5.71,0,0,0,4.75,2.81c2.87.13,5.73-2.91,5.47-6a6.14,6.14,0,0,0-3.17-5.09c-3-1.79-6.08-1-8.17-5.23-.78-1.57-1.14-4.64-1.22-7.43a21.18,21.18,0,0,1,.46-6.08c.55-1.75,1.86-1.47,2.36,0,.82,2.36.83,5.05,1.75,7.45.55,1.44,1.63,3.74,3.4,3.84,2,.12,2.12-2.48.05-2.46-2.48,0-2.56-2,0-2.3s4.85,2.23,3.87,4.63c-1.16,2.8-4.81,3.16-6.92,1.45C59.37,104.34,59.05,102.35,58.53,101.27ZM96.79,75.64a1.05,1.05,0,0,1-1.18,1.68c-.45-.16-.69-.5-1.28-.58-1.52-.21-1.77,1.79-.45,2.44a3.13,3.13,0,0,0,2.61,0c2.53-1.15,1.8-4.59-1-5.5a4.67,4.67,0,0,0-3.61.26c-3.57,1.92-1.72,6.71-.26,8.71,6.29,8.62,4.54,24.36-3.34,30.83-5.14,4.22-12,3.85-16.33-1.37a15.15,15.15,0,0,1-2.76-5.16c-.87-1.94,1.6-3.31,2.17-.52A10.48,10.48,0,0,0,73.76,111a9,9,0,0,0,13.24.66c5.64-5.09,7.79-16.59,5.16-23.22-.86-2.16-2.26-4.39-3.6-6.95C87,78.6,86.66,73.77,91,71.79a6.88,6.88,0,0,1,6.51.4c4,2.66,3.61,8.25-1,9.31-2.83.65-6.15-1-5.58-4.42a3.22,3.22,0,0,1,2.31-2.66A3.4,3.4,0,0,1,96.79,75.64Zm-.49-25c-1.2-4.7-6.13-6.42-9-3.23-1.66,1.87-2.07,5.62.82,6.54a4,4,0,0,0,3.76-.89c2-1.67,0-4.39-2.18-2.86a8.27,8.27,0,0,1-1.27.89c-1.37.45-2-1.15-.79-2.23.2-.18.43-.35.66-.57a4,4,0,0,1,5.81.47,4.6,4.6,0,0,1-1,6.32c-4.76,3.7-10.1.31-9.53-5.18a6.88,6.88,0,0,1,2.23-4.37,7.35,7.35,0,0,1,11.06,1c2.33,2.93,2.22,6.53,1.93,10.29-.26,3.36-2.87,10.51-5.5,12.7-1.7,1.42-3.15.17-1.84-1.48.31-.39.68-.74.89-1a23.72,23.72,0,0,0,4-10.24A16.17,16.17,0,0,0,96.3,50.67ZM76,111.35a8.41,8.41,0,0,1-3.33-5.71C72,99,78.37,98,81.2,94.34c1.12-1.44,1.53-3.39.6-6.9l-.89-3.32c-1-2.9,1.63-3.86,2.24-1.17l1.09,4.8a10.72,10.72,0,0,1,0,5.88c-1.88,5.56-9.47,5.72-9.31,11.66.06,2.19,1.51,4.24,4.31,5.16,3.55,1.16,7.47-2.52,5.77-6.12a3.24,3.24,0,0,0-3.11-1.73c-2,.16-2.94,1.1-3.11,2-.5,2.65,2.2,2.54,3.75,1.3,1.12-.9,2.89.82.4,2.49a4.26,4.26,0,0,1-6.68-3.22c-.26-3.31,3-5.68,6.79-5,4.47.83,6,5.55,3.93,9.2A7.45,7.45,0,0,1,76,111.35ZM55.47,5a4.32,4.32,0,0,0-4.34,3.26c-.17,1,.83,1.85,1.61,1.32,1-.69,1.17-2.23,2.73-2.23s1.71,1.54,2.73,2.23c.78.53,1.79-.35,1.61-1.32A4.32,4.32,0,0,0,55.47,5ZM40.84,15.45c-1.45.52-.86,2.12-1.47,3.19-.47.82-1.76.46-2-.49a4.22,4.22,0,0,1,2.77-4.93,4.16,4.16,0,0,1,5.17,2.19c.34.92-.49,2-1.35,1.58C42.8,16.5,42.29,14.93,40.84,15.45ZM30.23,18.79c-1.34.77-.48,2.23-.9,3.39-.32.89-1.65.76-2.08-.13a4.22,4.22,0,0,1,1.88-5.33A4.16,4.16,0,0,1,34.6,18c.5.85-.15,2-1.06,1.79C32.35,19.48,31.57,18,30.23,18.79Zm1.42,58c2.14-2.89-.59-3.24-2.65-4.52A9.74,9.74,0,0,1,25.44,68a37.79,37.79,0,0,1-1.81-5.61l-.72-3.14c-.59-2.16-3-2.19-2.06,1.81a44.79,44.79,0,0,0,2,6.8c1.09,2.7,2.29,4.9,4.83,6.45,1.42.87,2.24,1.08.76,2.29l-3,2.88c-4,4.3-5.1,8.54-3.16,14.05a14.39,14.39,0,0,0,3,5.26,1.14,1.14,0,0,0,2-1.11c-.1-.45-2.09-3.12-2.77-5.14-1-4.71-1.12-7.39,2.62-11.24A45.29,45.29,0,0,0,31.65,76.78ZM55.47,87c-.48,0-.92.58-1.27,1a11.49,11.49,0,0,1-8.67,4.25,13.51,13.51,0,0,1-4.63-.71c-1.55-.72-1.05-2.37.8-2.14a24.44,24.44,0,0,0,3.91.42c3.25-.1,5-1.47,7.19-3.77,1.59-1.85,1.37-2.61,1.36-4.37l-3.74-2.43a14.67,14.67,0,0,1-1.56-1.09c-1.52-1.32-.48-2.94,1.47-1.93A12.84,12.84,0,0,1,52,77.33L54.5,79a1.43,1.43,0,0,0,1.93,0L59,77.33a13,13,0,0,1,1.64-1.12c2-1,3,.61,1.47,1.93a14.88,14.88,0,0,1-1.56,1.09l-3.74,2.43c0,1.76-.22,2.52,1.36,4.37,2.19,2.3,3.94,3.67,7.19,3.77a24.47,24.47,0,0,0,3.91-.42c1.85-.23,2.36,1.41.8,2.14a13.5,13.5,0,0,1-4.63.71A11.49,11.49,0,0,1,56.74,88C56.39,87.58,55.94,87,55.47,87ZM43.27,58.77c-.23.29-.33.76-1.23.39l-3.67-1.51,5.79.37C43.89,58,43.76,58.14,43.27,58.77ZM55.47,75a12.52,12.52,0,0,1-4.08-.69c-3.08-1.15-2.94-2.87-3.52-5.7L46,59.54c-.21-1-.18-1.3-1.32-1.43.8.15.56,1.28.1,1.85l-.75.91c-1,1.24-1.65.69-2.88.06l-3.23-1.67c-.65-.36-1.56-.73-2.26-1.18-1.43-.9-1.41-2.38.2-2.52.4,0,.87,0,1.39,0,1.71,0,8.92-.15,9.59.18,1,.47,1,1.21,1.3,2.62L50.32,69.2c.24,1.2.17,2.08,1.11,2.64a9.48,9.48,0,0,0,4,.69,9.49,9.49,0,0,0,4-.69c.95-.56.87-1.44,1.11-2.64L62.8,58.36c.29-1.41.34-2.15,1.3-2.62.67-.33,7.88-.19,9.59-.18.52,0,1,0,1.39,0,1.61.14,1.63,1.62.2,2.52-.7.45-1.62.82-2.26,1.18l-3.23,1.67c-1.23.64-1.87,1.19-2.88-.06L66.16,60c-.47-.57-.7-1.7.1-1.85-1.14.13-1.11.41-1.32,1.43l-1.87,9.11c-.58,2.83-.44,4.55-3.52,5.7A12.54,12.54,0,0,1,55.47,75Zm-3.06,26.23c-.42,5.77-1.66,5.91-7,8A8.3,8.3,0,0,0,40,117c-.1,6.88,9.07,11,13.8,5.13a6.29,6.29,0,0,0-.17-8.51c-1.52-1.61-4-2.36-6.93-1.16a4.47,4.47,0,0,0-2.91,4.43c.23,3.62,4.12,5,7,3,2.16-1.55.41-3.6-.88-2.3-1,1-3.25,1.55-3.64-.54a2.52,2.52,0,0,1,2-2.72c3.53-1.21,5.68,3.06,4.35,5.57a5.71,5.71,0,0,1-4.75,2.81c-2.87.13-5.73-2.91-5.47-6a6.14,6.14,0,0,1,3.18-5.09c3-1.79,6.08-1,8.16-5.23.78-1.57,1.14-4.64,1.22-7.43a21.13,21.13,0,0,0-.46-6.08c-.55-1.75-1.86-1.47-2.36,0-.81,2.36-.83,5.05-1.75,7.45-.55,1.44-1.63,3.74-3.4,3.84-2,.12-2.12-2.48-.05-2.46,2.48,0,2.57-2,0-2.3s-4.85,2.23-3.86,4.63c1.16,2.8,4.8,3.16,6.92,1.45C51.56,104.34,51.88,102.35,52.41,101.27ZM14.14,75.64a1.05,1.05,0,0,0,1.18,1.68c.45-.16.69-.5,1.28-.58,1.52-.21,1.77,1.79.45,2.44a3.13,3.13,0,0,1-2.61,0c-2.53-1.15-1.8-4.59,1-5.5a4.67,4.67,0,0,1,3.62.26c3.56,1.92,1.72,6.71.26,8.71-6.29,8.62-4.54,24.36,3.34,30.83,5.14,4.22,12,3.85,16.33-1.37a15.16,15.16,0,0,0,2.76-5.16c.87-1.94-1.6-3.31-2.17-.52A10.48,10.48,0,0,1,37.18,111a9,9,0,0,1-13.24.66c-5.64-5.09-7.78-16.59-5.16-23.22.86-2.16,2.27-4.39,3.6-6.95,1.51-2.89,1.9-7.72-2.45-9.7a6.88,6.88,0,0,0-6.51.4c-4,2.66-3.61,8.25,1,9.31,2.83.65,6.14-1,5.58-4.42a3.22,3.22,0,0,0-2.31-2.66A3.4,3.4,0,0,0,14.14,75.64ZM55.47,41c-3.23-1.32-9-3.22-12.57-3-3,.19-3.36,1.53-4.83,3.64-1.73,2.48-4.81,4.68-7.87,4.72-2.34.09-4.85-1.79-6-3.62a7.77,7.77,0,0,1-.89-7,7.56,7.56,0,0,1,9.81-4c3.57,1.58,3.81,6.17,1.49,9A4.48,4.48,0,0,1,28.67,42a4.08,4.08,0,0,1-1.13-5.65c1.79-3.09,4-1.88,3.16-.33-.32.6-1.25,1.24-1.44,1.93-.61,2.15,2,3.22,3.6,1.31a4.77,4.77,0,0,0,1-2.54c.1-2.89-3.13-4.33-6-2.75a5.52,5.52,0,0,0-2.58,3.76,5.91,5.91,0,0,0,1.13,4.39c3,3.87,7.61,1.86,9.82-1.78,1.52-2.5,2.51-3.9,5.35-4.36a17.83,17.83,0,0,1,5.84.21c1.29.24,6.71,1.91,8,2.43,1.33-.53,6.75-2.19,8-2.43a17.85,17.85,0,0,1,5.85-.21c2.85.47,3.83,1.86,5.35,4.36,2.21,3.64,6.87,5.65,9.83,1.78a5.92,5.92,0,0,0,1.13-4.39,5.53,5.53,0,0,0-2.59-3.76c-2.86-1.58-6.09-.14-6,2.75a4.77,4.77,0,0,0,1,2.54c1.55,1.91,4.21.83,3.6-1.31-.2-.69-1.12-1.33-1.44-1.93-.82-1.55,1.37-2.76,3.16.33A4.08,4.08,0,0,1,82.27,42a4.47,4.47,0,0,1-5.89-1.22c-2.32-2.79-2.08-7.38,1.49-9a7.56,7.56,0,0,1,9.81,4,7.77,7.77,0,0,1-.89,7c-1.19,1.83-3.7,3.71-6,3.62-3.06,0-6.14-2.24-7.87-4.72C71.4,39.52,71.06,38.18,68,38,64.48,37.75,58.7,39.66,55.47,41Zm0-11c-2.24,0-4.44.13-6.28.23A45.28,45.28,0,0,0,41,31.77l-.44.14c-2.9.95-2.58,1.2-3.35-.51l-3-6.6c-.41-.9-.31-1.14.5-.75l5.64,2.77c1.26.62,2.57.7,2.55-1.14l0-4c0-1.5.71-.49,1.27.11l4.35,4.64c1.26,1.34,2.11,1.21,2.67-.5l4-12c.16-.48.41-.48.57,0l4,12c.56,1.71,1.41,1.84,2.67.5l4.35-4.64c.56-.6,1.29-1.6,1.27-.11l0,4c0,1.84,1.3,1.75,2.55,1.14l5.64-2.77c.81-.4.91-.15.51.75l-3,6.6c-.78,1.71-.45,1.45-3.35.51l-.44-.14a45.23,45.23,0,0,0-8.14-1.52C59.91,30.15,57.7,30,55.47,30Zm0,2.25a59.89,59.89,0,0,0-6.62.27,33.11,33.11,0,0,0-9.45,2.13c-1.28.56-2.42,1.41-3.23-.35L30.77,22.65c-1.3-2.81.64-2.94,1.28-2.61l7.47,3.79c1,.5,1.16.37,1.15-.68l0-5.49c0-1.45,1.16-1.57,2.13-.55L48,22.56c1.17,1.21,1.44,1.63,2,.09l4-12c.31-.78.52-2.09,1.47-2.09s1.16,1.31,1.47,2.09l4,12c.52,1.54.79,1.13,2-.09l5.24-5.46c1-1,2.14-.89,2.13.55l0,5.49c0,1.05.17,1.19,1.15.68L78.89,20c.64-.32,2.57-.19,1.28,2.61l-5.4,11.67c-.82,1.77-2,.91-3.23.35a33.12,33.12,0,0,0-9.45-2.13A59.89,59.89,0,0,0,55.47,32.27Zm-1,14.68c-2.9-2.33-4.48-3.35-8.46-3.35-6.45,0-7.68,4.44-12.13,7.56-2.71,1.89-3.7,3.64-3.72,5.65a16.57,16.57,0,0,0,1.57,5.82c.93,2.35,2.36,4.53,3.4,6.86a28.53,28.53,0,0,1,2.37,10.15c0,3.21-2.27,7.07-3.57,10.12-.63,2.93.23,2.93,2.6,3.92.57.24,1.18.3,1.71.52,2,.82,1.13,2.52-1.28,2.15A12.32,12.32,0,0,1,33,94.54c-1.71-1.21-1.91-3.07-1.49-5s1.75-4.07,2.59-6c1.08-3.65,1.21-4.68.35-8.63a16.61,16.61,0,0,0-1.62-4.68c-1.05-1.72-2.1-4.15-3-6a15.16,15.16,0,0,1-2-7.73c.2-2.42,1.4-4.64,4-6.67,6-3.71,5.8-8.39,14.59-8.39,5.75,0,7.51,3.11,9,3.11s3.28-3.11,9-3.11c8.79,0,8.56,4.68,14.59,8.39,2.62,2,3.83,4.25,4,6.67a15.18,15.18,0,0,1-2,7.73c-.93,1.89-2,4.32-3,6A16.65,16.65,0,0,0,76.5,74.9c-.85,3.95-.73,5,.35,8.63.84,1.92,2.14,3.91,2.59,6s.23,3.81-1.49,5A12.33,12.33,0,0,1,74,96.36c-2.42.37-3.25-1.33-1.28-2.15.53-.22,1.14-.28,1.71-.52,2.36-1,3.22-1,2.6-3.92-1.31-3.06-3.57-6.91-3.57-10.12a28.53,28.53,0,0,1,2.37-10.15c1-2.33,2.46-4.51,3.4-6.86a16.48,16.48,0,0,0,1.57-5.82c0-2-1-3.75-3.72-5.65C72.65,48,71.42,43.6,65,43.6c-4,0-5.56,1-8.47,3.35A1.48,1.48,0,0,1,54.42,46.95ZM14.63,50.67c1.2-4.7,6.13-6.42,9-3.23,1.66,1.87,2.07,5.62-.81,6.54A4,4,0,0,1,19,53.09c-2-1.67,0-4.39,2.18-2.86a8.23,8.23,0,0,0,1.27.89c1.37.45,2-1.15.79-2.23-.2-.18-.43-.35-.66-.57a4,4,0,0,0-5.82.47,4.6,4.6,0,0,0,1,6.32c4.76,3.7,10.1.31,9.53-5.18a6.88,6.88,0,0,0-2.23-4.37,7.35,7.35,0,0,0-11.06,1c-2.33,2.93-2.22,6.53-1.93,10.29.27,3.36,2.87,10.51,5.5,12.7,1.7,1.42,3.15.17,1.84-1.48-.31-.39-.68-.74-.89-1a23.71,23.71,0,0,1-4-10.24A16.14,16.14,0,0,1,14.63,50.67Zm20.31,60.68a8.41,8.41,0,0,0,3.33-5.71C39,99,32.56,98,29.73,94.34c-1.13-1.44-1.53-3.39-.6-6.9L30,84.12c1-2.9-1.62-3.86-2.24-1.17l-1.09,4.8a10.72,10.72,0,0,0,0,5.88c1.88,5.56,9.48,5.72,9.31,11.66-.06,2.19-1.51,4.24-4.31,5.16-3.55,1.16-7.47-2.52-5.77-6.12A3.24,3.24,0,0,1,29,102.6c2,.16,2.94,1.1,3.11,2,.5,2.65-2.2,2.54-3.75,1.3-1.13-.9-2.89.82-.4,2.49a4.26,4.26,0,0,0,6.68-3.22c.26-3.31-3-5.68-6.79-5-4.47.83-6,5.55-3.93,9.2A7.45,7.45,0,0,0,34.94,111.35Z" transform="translate(-10.69 -5)" style="fill: url(#linear-gradient);fill-rule: evenodd"/>
  <path d="M224.33,33.43h3.1V49.9h-3.1Zm-108,17.45h4.1V62.35L134,50.87h5.89L128.8,60.25l12.56,16.6h-4.78L125.89,62.72l-5.45,4.62v9.51h-4.1Zm29.55,0H150v26h-4.1Zm31.45,0h4.1v26h-1.66L163,58.38V76.85h-4.1v-26h2.42l16,17.59Zm40.83,20.65a17.41,17.41,0,0,1-13.72,6.2c-9.08,0-16.44-6.18-16.44-13.81s7.36-13.81,16.44-13.81a17.42,17.42,0,0,1,13.67,6.14l-3.44,2.39a13,13,0,0,0-10.23-4.53c-6.7,0-12.14,4.39-12.14,9.81s5.44,9.81,12.14,9.81a13.29,13.29,0,0,0,9.62-3.83v-3h-6.41v-4.1h10.51ZM247,54.26c-4.53-.75-9.56-.14-9.11,3.64.33,2.78,5.29,2.48,7.19,2.57a32.3,32.3,0,0,1,5,.57c2.54.52,5.28,1.55,6.87,3.72a6.8,6.8,0,0,1,1.25,4.61,8.41,8.41,0,0,1-2.43,5.52c-3.21,3.16-8.62,3.27-12.8,2.63A26.66,26.66,0,0,1,233.09,74l-.75-.5,2.1-3.51.9.59a22.74,22.74,0,0,0,8.29,2.86c2.71.42,7.18.59,9.3-1.5a4.37,4.37,0,0,0,1.22-2.91,2.73,2.73,0,0,0-.47-1.9c-1.53-2.09-6.37-2.51-8.75-2.62l-1.66-.08c-2.71-.14-6.11-.42-8-2.57a5.77,5.77,0,0,1-1.39-4.13,7.12,7.12,0,0,1,1.69-4.54c2.57-3,7.27-3.38,10.94-3,3,.3,7.12,1.33,9.47,3.28l.65.54-2.24,3.46A12.78,12.78,0,0,0,247,54.26Z" transform="translate(-10.69 -5)" style="fill: url(#linear-gradient);fill-rule: evenodd"/>
  <path d="M167.46,86.37v13.4c0,3.6,3.59,3.88,6.1,3.88s6.1-.28,6.1-3.88V86.37h3.67V99.8c0,6-5.17,7-9.77,7s-9.77-.93-9.77-7V86.37ZM147,85.89c6.66,0,12.06,4.67,12.06,10.44s-5.4,10.44-12.06,10.44S135,102.1,135,96.33,140.37,85.89,147,85.89ZM147,89c4.8,0,8.7,3.3,8.7,7.37s-3.9,7.37-8.7,7.37-8.7-3.3-8.7-7.37S142.22,89,147,89Zm56.53-2.59h3.67v19.81h-1.94l-12.2-13.25v13.25h-3.67V86.37H191L203.55,100Zm36.66,0h18.34v3.29H243.88V94h9.42v3.29h-9.42v5.65h15.43v3.29h-19.1ZM226.49,98.63V95.34h8.23v5.56a12.27,12.27,0,0,1-10.77,5.87c-6.66,0-12.06-4.67-12.06-10.44s5.4-10.44,12.06-10.44A12.51,12.51,0,0,1,234.34,91l-2.84,1.64A9.06,9.06,0,0,0,223.94,89c-4.81,0-8.7,3.3-8.7,7.37s3.89,7.37,8.7,7.37a9.12,9.12,0,0,0,7.43-3.53V98.63ZM116.35,86.37H120v16.52h14.42v3.29H116.35Z" transform="translate(-10.69 -5)" style="fill: url(#linear-gradient);fill-rule: evenodd"/>
</svg>
