<svg xmlns="http://www.w3.org/2000/svg" xmlns:xlink="http://www.w3.org/1999/xlink" width="0" height="0" style="position:absolute">
	
		<symbol id="advantages-icon" viewBox="0 0 25.45 28">
			<path d="M20.41 8.38h-1.23c.59-1.65 1.17-4.07.39-6a4 4 0 0 0-2.52-2.3 2.19 2.19 0 0 0-.68-.08c-1.55 0-3 1.51-5 5.4a14.45 14.45 0 0 1-3.18 4 6.47 6.47 0 0 0-1 1 3.94 3.94 0 0 0-7.21 2.19v11.47a3.94 3.94 0 0 0 7.31 2A5 5 0 0 0 11.23 28h9.65c4 0 4.58-2.57 4.58-4.1V13.43a5.06 5.06 0 0 0-5.05-5.05zm-15 15.68a1.43 1.43 0 1 1-2.85 0V12.62a1.43 1.43 0 1 1 2.85 0zm17.57-.19c0 .93-.15 1.59-2.06 1.59h-9.69a2.54 2.54 0 0 1-2.5-2.54v-9.6a2.64 2.64 0 0 1 1.12-2 17.14 17.14 0 0 0 3.78-4.76c1.73-3.28 2.56-3.92 2.78-4a1.4 1.4 0 0 1 .87.83c.54 1.32-.14 3.86-1.09 5.69l-1 1.84h5.21a2.54 2.54 0 0 1 2.54 2.54z" fill="currentColor"/>
		</symbol>
	
		<symbol id="building-pattern" viewBox="0 0 186.18 209.53">
			<g class="building-pattern__ground" data-name="ground"><path fill="#dae3f0" d="M93.09 102.04l93.09 53.75-93.09 53.74L0 155.79l93.09-53.75z"/><path fill="#e8a82b" d="M93.09 98.33l93.09 53.75-93.09 53.74L0 152.08l93.09-53.75z"/><path fill="#d69513" d="M0 152.08v3.71l93.09 53.74v-3.71L0 152.08z"/><path fill="#bf890e" d="M186.18 152.08v3.71l-93.09 53.74v-3.71l93.09-53.74z"/></g><g data-name="main" class="building-pattern__main"><path fill="#edd07e" d="M70.77 143.05l31.74 18.38-26.22 15.29-31.74-18.38 26.22-15.29z"/><path fill="#bf890e" d="M135.88 151.02l24.27-13.95-42.63-24.92L93 126.3l42.88 24.72z"/><path fill="#bf890e" d="M93.09 57.13v118.59l42.79-24.7V32.42L93.09 57.13z"/><path fill="#f0f6ff" d="M93.09 7.71l42.79 24.71-42.79 24.71-42.8-24.71 42.8-24.71z"/><path fill="#db951b" d="M93.09 7.71l42.79 24.71-42.79 24.71-42.8-24.71 42.8-24.71z"/><path fill="#bf890e" d="M132.03 159.88l24.27-13.94-42.63-24.92-24.52 14.15 42.88 24.71z"/><path fill="#ce921b" d="M93.09 57.13l-42.8-24.71v118.6l42.8 24.7V57.13z"/></g><g data-name="left" class="building-pattern__left"><path fill="#f7c263" d="M93.09 57.13l-42.8-24.71v118.6l42.8 24.7V57.13z"/><g fill="#e8a82b"><path d="M55.69 49.9v4.94l4.28 2.47v-4.94l-4.28-2.47z"/><path d="M59.97 57.31V53.3l-3.56-2.06v4.02l3.56 2.05zM64.25 54.87v4.94l4.28 2.47v-4.94l-4.28-2.47z"/><path d="M68.53 62.28v-4.01l-3.56-2.06v4.01l3.56 2.06zM72.81 59.81v4.95l4.27 2.47v-4.94l-4.27-2.48z"/><path d="M77.08 67.23v-4.01l-3.55-2.06v4.01l3.55 2.06zM81.36 64.78v4.95l4.28 2.47v-4.95l-4.28-2.47z"/><path d="M85.64 72.2v-4.01l-3.55-2.06v4.01l3.55 2.06z"/><g><path d="M55.69 59.81v4.95l4.28 2.47v-4.94l-4.28-2.48z"/><path d="M59.97 67.23v-4.01l-3.56-2.06v4.01l3.56 2.06zM64.25 64.78v4.95l4.28 2.47v-4.95l-4.28-2.47z"/><path d="M68.53 72.2v-4.01l-3.56-2.06v4.01l3.56 2.06zM72.81 69.73v4.95l4.27 2.47v-4.94l-4.27-2.48z"/><path d="M77.08 77.15v-4.01l-3.55-2.06v4.01l3.55 2.06z"/><g><path d="M81.36 74.7v4.94l4.28 2.48v-4.95l-4.28-2.47z"/><path d="M85.64 82.12v-4.01l-3.55-2.06v4.01l3.55 2.06z"/></g></g><g><path d="M55.69 69.73v4.95l4.28 2.47v-4.94l-4.28-2.48z"/><path d="M59.97 77.15v-4.01l-3.56-2.06v4.01l3.56 2.06zM64.25 74.7v4.94l4.28 2.48v-4.95l-4.28-2.47z"/><path d="M68.53 82.12v-4.01l-3.56-2.06v4.01l3.56 2.06zM72.81 79.66v4.94l4.27 2.47v-4.94l-4.27-2.47z"/><path d="M77.08 87.07v-4.01L73.53 81v4.01l3.55 2.06z"/><g><path d="M81.36 84.62v4.94l4.28 2.48v-4.95l-4.28-2.47z"/><path d="M85.64 92.04v-4.02l-3.55-2.05v4.01l3.55 2.06z"/></g></g><g><path d="M55.69 79.66v4.94l4.28 2.47v-4.94l-4.28-2.47z"/><path d="M59.97 87.07v-4.01L56.41 81v4.01l3.56 2.06zM64.25 84.62v4.94l4.28 2.48v-4.95l-4.28-2.47z"/><path d="M68.53 92.04v-4.02l-3.56-2.05v4.01l3.56 2.06zM72.81 89.57v4.95l4.27 2.47v-4.94l-4.27-2.48z"/><path d="M77.08 96.99v-4.02l-3.55-2.05v4.01l3.55 2.06z"/><g><path d="M81.36 94.54v4.94l4.28 2.47v-4.94l-4.28-2.47z"/><path d="M85.64 101.95v-4.01l-3.55-2.05v4.01l3.55 2.05z"/></g></g><g><path d="M55.69 89.57v4.95l4.28 2.47v-4.94l-4.28-2.48z"/><path d="M59.97 96.99v-4.02l-3.56-2.05v4.01l3.56 2.06zM64.25 94.54v4.94l4.28 2.47v-4.94l-4.28-2.47z"/><path d="M68.53 101.95v-4.01l-3.56-2.05v4.01l3.56 2.05zM72.81 99.49v4.95l4.27 2.47v-4.94l-4.27-2.48z"/><path d="M77.08 106.91v-4.02l-3.55-2.05v4.01l3.55 2.06z"/><g><path d="M81.36 104.46v4.94l4.28 2.48v-4.95l-4.28-2.47z"/><path d="M85.64 111.88v-4.02l-3.55-2.05v4.01l3.55 2.06z"/></g></g><g><path d="M55.69 99.49v4.95l4.28 2.47v-4.94l-4.28-2.48z"/><path d="M59.97 106.91v-4.02l-3.56-2.05v4.01l3.56 2.06zM64.25 104.46v4.94l4.28 2.48v-4.95l-4.28-2.47z"/><path d="M68.53 111.88v-4.02l-3.56-2.05v4.01l3.56 2.06zM72.81 109.41v4.95l4.27 2.47v-4.94l-4.27-2.48z"/><path d="M77.08 116.83v-4.02l-3.55-2.05v4.01l3.55 2.06z"/><g><path d="M81.36 114.38v4.94l4.28 2.48v-4.95l-4.28-2.47z"/><path d="M85.64 121.8v-4.02l-3.55-2.05v4.01l3.55 2.06z"/></g></g><g><path d="M55.69 109.41v4.95l4.28 2.47v-4.94l-4.28-2.48z"/><path d="M59.97 116.83v-4.02l-3.56-2.05v4.01l3.56 2.06zM64.25 114.38v4.94l4.28 2.48v-4.95l-4.28-2.47z"/><path d="M68.53 121.8v-4.02l-3.56-2.05v4.01l3.56 2.06zM72.81 119.33v4.95l4.27 2.47v-4.95l-4.27-2.47z"/><path d="M77.08 126.75v-4.02l-3.55-2.05v4.01l3.55 2.06z"/><g><path d="M81.36 124.3v4.94l4.28 2.48v-4.95l-4.28-2.47z"/><path d="M85.64 131.71v-4.01l-3.55-2.05v4.01l3.55 2.05z"/></g></g><g><path d="M55.69 119.33v4.95l4.28 2.47v-4.95l-4.28-2.47z"/><path d="M59.97 126.75v-4.02l-3.56-2.05v4.01l3.56 2.06zM64.25 124.3v4.94l4.28 2.48v-4.95l-4.28-2.47z"/><path d="M68.53 131.71v-4.01l-3.56-2.05v4.01l3.56 2.05zM72.81 129.25v4.94l4.27 2.47v-4.94l-4.27-2.47z"/><path d="M77.08 136.66v-4.01l-3.55-2.05v4.01l3.55 2.05z"/><g><path d="M81.36 134.22v4.94l4.28 2.47v-4.94l-4.28-2.47z"/><path d="M85.64 141.63v-4.01l-3.55-2.05v4.01l3.55 2.05z"/></g></g></g><g fill="#bf890e"><path d="M67.61 141.26l-10.94-6.3v19.73l10.94 6.32v-19.75zM69.68 142.45v19.75l12.71 7.35v-19.77l-12.71-7.33z"/></g><g fill="#e8a82b"><path d="M67.61 161.01v-18.13l-9.78-5.64v18.11l9.78 5.66zM82.39 169.55V151.4l-11.56-6.66v18.13l11.56 6.68z"/></g></g><g data-name="right" class="building-pattern__right"><path fill="#f9d285" d="M93.09 57.13v118.59l42.79-24.7V32.42L93.09 57.13z"/><g fill="#e8a82b"><path d="M130.09 49.9v4.94l-4.28 2.47v-4.94l4.28-2.47z"/><path d="M125.81 57.31V53.3l3.56-2.06v4.02l-3.56 2.05zM121.53 54.87v4.94l-4.28 2.47v-4.94l4.28-2.47z"/><path d="M117.25 62.28v-4.01l3.56-2.06v4.01l-3.56 2.06zM112.97 59.81v4.95l-4.27 2.47v-4.94l4.27-2.48z"/><path d="M108.7 67.23v-4.01l3.55-2.06v4.01l-3.55 2.06z"/><g><path d="M104.42 64.78v4.95l-4.28 2.47v-4.95l4.28-2.47z"/><path d="M100.14 72.2v-4.01l3.55-2.06v4.01l-3.55 2.06z"/></g></g><g fill="#e8a82b"><path d="M130.09 59.81v4.95l-4.28 2.47v-4.94l4.28-2.48z"/><path d="M125.81 67.23v-4.01l3.56-2.06v4.01l-3.56 2.06zM121.53 64.78v4.95l-4.28 2.47v-4.95l4.28-2.47z"/><path d="M117.25 72.2v-4.01l3.56-2.06v4.01l-3.56 2.06zM112.97 69.73v4.95l-4.27 2.47v-4.94l4.27-2.48z"/><path d="M108.7 77.15v-4.01l3.55-2.06v4.01l-3.55 2.06z"/><g><path d="M104.42 74.7v4.94l-4.28 2.48v-4.95l4.28-2.47z"/><path d="M100.14 82.12v-4.01l3.55-2.06v4.01l-3.55 2.06z"/></g></g><path fill="#f9d285" d="M105.6 99.5v75.64l27.29-15.76V83.74L105.6 99.5z"/><path fill="#f7c263" d="M105.6 99.5l-5.73-3.3v75.64l5.73 3.3V99.5zM127.14 80.45l5.72 3.3-27.26 15.74-5.73-3.3 27.27-15.74z"/><path fill="#e8a82b" d="M102.48 94.68l11.89-.25 18.52-10.68-5.75-3.3-24.66 14.23z"/></g><g data-name="roof" class="building-pattern__roof"><path fill="#f7c263" d="M93.09 7.77l42.75 24.68-42.75 24.68-42.75-24.68L93.09 7.77z"/><g fill="#e8a82b"><path d="M93.09 11.41l10.69 6.18-10.69-6.18zM56.59 35.51l36.5-21.07 36.5 21.07 3.09-1.24-28.9-16.68-10.69-6.18-14.25 8.23L53.5 34.27l3.09 1.24z"/></g><path d="M93.09 11.34l36.57 21.11-36.57 21.12-36.57-21.12 36.57-21.11m0-3.57L50.34 32.45l42.75 24.68 42.75-24.68L93.09 7.77z" fill="#ffeac5"/><path fill="#f9d285" d="M93.09 31.41v16.84l26.08-15.06V16.35L93.09 31.41z"/><path fill="#f7c263" d="M93.09 31.41L67 16.35v16.84l26.09 15.06V31.41z"/><path fill="#f7c263" d="M93.09 1.29l26.08 15.06-26.08 15.06L67 16.35 93.09 1.29z"/><g fill="#e8a82b"><path d="M93.09 3.47l6.52 3.77-6.52-3.77zM70.89 18.54l22.2-12.82 22.28 12.86 1.88-1.16L99.61 7.24l-6.52-3.77-8.69 5.02-15.46 8.93 1.95 1.12z"/></g><path d="M93.09 3.47l22.32 12.88-22.32 12.89-22.32-12.88L93.09 3.47m0-2.18L67 16.36l26.09 15.06 26.09-15.06L93.09 1.3z" fill="#ffeac5"/><path fill="#f9d285" d="M93.09 16.04V25l13.89-8.02V8.02l-13.89 8.02z"/><path fill="#f7c263" d="M93.09 16.04L79.2 8.02v8.96L93.09 25v-8.96z"/><path fill="#f7c263" d="M93.09 0l13.89 8.02-13.89 8.02L79.2 8.02 93.09 0z"/><g fill="#e8a82b"><path d="M93.09 1.17l3.47 2-3.47-2zM81.23 9.18l11.86-6.85 11.86 6.85 1-.58-9.39-5.43-3.47-2-4.63 2.67-8.23 4.76 1 .58z"/></g><path d="M93.09 1.16l11.88 6.86-11.88 6.86-11.88-6.86 11.88-6.86m0-1.16L79.2 8l13.89 8 13.89-8-13.89-8z" fill="#ffeac5"/></g>
		</symbol>
	
		<symbol id="button-left-icon" viewBox="0 0 52 52">
			<path d="M0 26A26 26 0 1 0 26 0 26 26 0 0 0 0 26zm19.55-1.12L30 12.13a1.56 1.56 0 0 1 2.17-.31 1.77 1.77 0 0 1 .31.3 1.91 1.91 0 0 1 0 2.32L23 26l9.51 11.58a1.9 1.9 0 0 1 0 2.29 1.6 1.6 0 0 1-1.26.63 1.51 1.51 0 0 1-1.25-.6L19.63 27.18a1.88 1.88 0 0 1-.08-2.3z" fill="currentColor"/>
		</symbol>
	
		<symbol id="button-right-icon" viewBox="0 0 52 52">
			<path d="M26 0a26 26 0 1 0 26 26A26 26 0 0 0 26 0zm6.37 27.18L22 39.9a1.51 1.51 0 0 1-1.19.6 1.6 1.6 0 0 1-1.26-.63 1.9 1.9 0 0 1 0-2.29L29 26l-9.41-11.56a1.91 1.91 0 0 1 0-2.32 1.77 1.77 0 0 1 .31-.3 1.56 1.56 0 0 1 2.17.31l10.38 12.75a1.88 1.88 0 0 1-.08 2.3z" fill="currentColor"/>
		</symbol>
	
		<symbol id="call-icon" viewBox="0 0 30.56 30.49">
			<path d="M29.88 24.12l-4.72-4.72a2.46 2.46 0 0 0-3.47.07l-2.41 2.37-.47-.26a23.66 23.66 0 0 1-5.72-4.14 23.8 23.8 0 0 1-4.15-5.73l-.22-.46 1.56-1.59.78-.79a2.46 2.46 0 0 0 .06-3.47L6.44.69a2.46 2.46 0 0 0-3.47.07L1.64 2.09A7.69 7.69 0 0 0 .58 4.06a8 8 0 0 0-.49 2c-.62 5.17 1.74 9.89 8.15 16.3 8.86 8.86 16 8.19 16.3 8.16a8 8 0 0 0 2-.49 7.67 7.67 0 0 0 1.93-1.09l1.35-1.32a2.46 2.46 0 0 0 .06-3.5z" fill="currentColor"/>
		</symbol>
	
		<symbol id="contact-icon" viewBox="0 0 13.42 28">
			<path d="M12.71 23.34a1.08 1.08 0 0 0-1.14-.14 5 5 0 0 1-.72.23 3.17 3.17 0 0 1-.81.13 2.3 2.3 0 0 1-.74-.09 1.51 1.51 0 0 1-.05-.45 5.57 5.57 0 0 1 .11-.91 11.49 11.49 0 0 1 .27-1.19l1.32-4.69a8.29 8.29 0 0 0 .31-1.64c.05-.55.08-.93.08-1.19a4.14 4.14 0 0 0-1.4-3.22A5.36 5.36 0 0 0 6.22 9a8.61 8.61 0 0 0-2.59.43c-.82.26-1.69.58-2.59.94a1.08 1.08 0 0 0-.64.74l-.36 1.46a1.08 1.08 0 0 0 1.42 1.27c.26-.1.55-.19.87-.28a2.69 2.69 0 0 1 .76-.12 2.33 2.33 0 0 1 .67.07 1.63 1.63 0 0 1 .05.47 4.55 4.55 0 0 1-.1.9c-.07.37-.17.77-.28 1.2L2.09 20.8c-.13.53-.22 1-.28 1.44a9.61 9.61 0 0 0-.09 1.3 4.11 4.11 0 0 0 1.44 3.21A5.48 5.48 0 0 0 6.87 28a7.84 7.84 0 0 0 2.57-.39c.66-.23 1.53-.56 2.6-1a1.08 1.08 0 0 0 .65-.75l.36-1.46a1.08 1.08 0 0 0-.34-1.06zm-3.6-8.94a6.22 6.22 0 0 1-.23 1.23l-1.33 4.7a13.54 13.54 0 0 0-.32 1.4A7.58 7.58 0 0 0 7.06 23a2.58 2.58 0 0 0 .82 2.12 2.37 2.37 0 0 0 .86.43 5.72 5.72 0 0 1-1.86.27 3.42 3.42 0 0 1-2.3-.68 2 2 0 0 1-.71-1.59 7.48 7.48 0 0 1 .07-1c0-.35.13-.76.24-1.21l1.33-4.72c.13-.5.23-.94.31-1.35A6.69 6.69 0 0 0 5.96 14a2.71 2.71 0 0 0-.71-2 2.15 2.15 0 0 0-.86-.48 6.37 6.37 0 0 1 1.83-.29 3.32 3.32 0 0 1 2.25.66 2 2 0 0 1 .68 1.61c0 .01-.01.27-.06.9zM9.17 8.1a4.22 4.22 0 0 0 3-1.15 3.85 3.85 0 0 0 1.27-2.89 3.84 3.84 0 0 0-1.27-2.89 4.4 4.4 0 0 0-6 0 3.9 3.9 0 0 0 0 5.78 4.26 4.26 0 0 0 3 1.15zM7.66 2.74a2.1 2.1 0 0 1 1.52-.58 2.07 2.07 0 0 1 1.5.58 1.71 1.71 0 0 1 .59 1.32 1.68 1.68 0 0 1-.56 1.3 2.08 2.08 0 0 1-1.5.58 2.12 2.12 0 0 1-1.52-.58 1.67 1.67 0 0 1-.59-1.3 1.7 1.7 0 0 1 .56-1.32z" fill="currentColor"/>
		</symbol>
	
		<symbol id="coords-icon" viewBox="0 0 20.25 19.04">
			<path d="M15.15 10.65c-.28.54-.55 1-.8 1.42 2.74.58 4.31 1.65 4.31 2.49 0 1.21-3.25 2.9-8.54 2.9s-8.5-1.69-8.5-2.9c0-.84 1.55-1.9 4.25-2.48-.25-.4-.52-.88-.8-1.41-2.86.7-5 2-5 3.89 0 2.91 5.22 4.48 10.13 4.48s10.13-1.57 10.13-4.48c-.08-1.9-2.29-3.22-5.18-3.91z" fill="currentColor"/><path d="M10.08 14.79c1.05 0 5.17-5.43 5.17-9.13 0-2.58-1.21-5.66-5.17-5.66S4.91 3.08 4.91 5.66c0 3.74 4.18 9.13 5.17 9.13zm-2.4-9.7a2.4 2.4 0 1 1 2.4 2.4 2.4 2.4 0 0 1-2.4-2.39z" fill="currentColor"/>
		</symbol>
	
		<symbol id="facebook-icon" viewBox="0 0 112.2 112.2">
			<path d="M56.1 0a56.1 56.1 0 1 0 56.1 56.1A56.1 56.1 0 0 0 56.1 0zm15.43 34.32h-8.12c-1.34 0-3.22.67-3.22 3.51v7.58h11.34L70.2 58.29h-10V95H45V58.29h-7.19V45.41H45v-8.34c0-6 2.83-15.3 15.3-15.3h11.23z" fill="currentColor"/>
		</symbol>
	
		<symbol id="food-icon" viewBox="0 0 72.08 58">
			<path d="M37.19 3.79a23.87 23.87 0 1 0 23.85 23.87A23.87 23.87 0 0 0 37.19 3.79zm0 42A18.11 18.11 0 1 1 55.3 27.66a18.13 18.13 0 0 1-18.11 18.11z" fill="currentColor"/><path d="M37.19 14.4a13.26 13.26 0 1 0 13.26 13.26A13.27 13.27 0 0 0 37.19 14.4zM70.58 29.66v-29a.65.65 0 0 0-1.17-.39 27.45 27.45 0 0 0-5.58 16.59v10.6a2.2 2.2 0 0 0 2.2 2.2h.92c-.91 9.34-1.51 22.44-1.51 23.97 0 2.37 1.49 4.37 3.32 4.37s3.28-2 3.28-4.37c0-1.53-.56-14.63-1.46-23.97zM9.63 23.91a6.34 6.34 0 0 0 3.06-5.43l-.91-14.87a1.077 1.077 0 0 0-2.15.12l.59 11.93a1.215 1.215 0 0 1-2.43 0l-.3-11.92a1.16 1.16 0 0 0-2.32 0l-.3 11.92a1.215 1.215 0 1 1-2.43 0l.6-11.93a1.077 1.077 0 0 0-2.15-.12L.04 18.48a6.34 6.34 0 0 0 3 5.43 3.59 3.59 0 0 1 1.71 3.47C3.73 36.72 3.04 52 3.04 53.63 3.04 56 4.52 58 6.35 58s3.32-2 3.32-4.37c0-1.66-.7-16.91-1.74-26.25a3.59 3.59 0 0 1 1.7-3.47z" fill="currentColor"/>
		</symbol>
	
		<symbol id="gallery-icon" viewBox="0 0 28.64 25.67">
			<path d="M3.54 17.91h21.53V3.52H3.54zm3.95-2.08l2.77-4.32 2.77 4.32zm6.29 0l1.48-2.3 1.48 2.3zm9.39-10.41v10.6h-4.05l-3.86-6-1.85 2.89L10.26 8l-4.82 7.5V5.42z" fill="currentColor"/><path d="M26.58 0H2.06A2.06 2.06 0 0 0 0 2.06V23.6a2.06 2.06 0 0 0 2.06 2.06h24.52a2.06 2.06 0 0 0 2.06-2.06V2.06A2.06 2.06 0 0 0 26.58 0zm.17 23.6a.17.17 0 0 1-.17.17H2.06a.17.17 0 0 1-.17-.17V2.06a.17.17 0 0 1 .17-.17h24.52a.17.17 0 0 1 .17.17V23.6z" fill="currentColor"/><path d="M19.61 12.26a3 3 0 1 0-3-3 3 3 0 0 0 3 3zm0-4a1.06 1.06 0 1 1-1.06 1.06 1.06 1.06 0 0 1 1.06-1.08z" fill="currentColor"/>
		</symbol>
	
		<symbol id="games-icon" viewBox="0 0 74.57 58">
			<path d="M40.16 58l-11.39-4.88V0s24.74 4.16 28.14 14.45-1.9 17-3.76 17.17c-5.2.54-7.17-2.71-7.17-2.71V12.29l-5.69-2.35zm3-7.32v6.23s26.8-8.67 30.74-12-9.23-11.65-16.31-10a46.38 46.38 0 0 0-14.34 3.34c-.06 0 0 5.6 0 5.6l17.3-4.06 6.09 2.71zm-17.21-.45S22.41 52 14.61 51.95-.08 49.69 0 45s12.91-9.85 25.81-12v6.59L12.1 43.18s-2.35 3 .81 3.07a43.28 43.28 0 0 0 13.08-1.72z" fill="currentColor"/>
		</symbol>
	
		<symbol id="home-icon" viewBox="0 0 26.73 28.83">
			<path d="M26.37 12.18L14.21.34a1.2 1.2 0 0 0-1.68 0L.37 12.18a1.206 1.206 0 1 0 1.68 1.73l.18-.18v12.2a2.91 2.91 0 0 0 2.91 2.91H21.6a2.91 2.91 0 0 0 2.91-2.91v-12.2l.18.18a1.206 1.206 0 0 0 1.68-1.73zm-4.27 1v12.75a.5.5 0 0 1-.5.5H5.14a.5.5 0 0 1-.5-.5V13.14a1.2 1.2 0 0 0-.69-1.09l9.42-9.16 9.42 9.17a1.2 1.2 0 0 0-.69 1.08z" fill="currentColor"/>
		</symbol>
	
		<symbol id="instagram-icon" viewBox="0 0 89.76 89.76">
			<g fill="currentColor"><path d="M58.26 23.88H31.5a7.75 7.75 0 0 0-7.74 7.74v26.76a7.75 7.75 0 0 0 7.74 7.75h26.76A7.75 7.75 0 0 0 66 58.38V31.62a7.75 7.75 0 0 0-7.74-7.74zm-13.38 35A13.91 13.91 0 1 1 58.79 45a13.92 13.92 0 0 1-13.91 13.91zM59.23 34a3.29 3.29 0 1 1 3.29-3.29A3.29 3.29 0 0 1 59.23 34z" fill="currentColor"/><path d="M44.88 37a8 8 0 1 0 8 8 8 8 0 0 0-8-8z" fill="currentColor"/><path d="M44.88 0a44.88 44.88 0 1 0 44.88 44.88A44.88 44.88 0 0 0 44.88 0zm27 58.38A13.63 13.63 0 0 1 58.26 72H31.5a13.63 13.63 0 0 1-13.62-13.62V31.62A13.64 13.64 0 0 1 31.5 18h26.75a13.63 13.63 0 0 1 13.63 13.62z" fill="currentColor"/></g>
		</symbol>
	
		<symbol id="logo" viewBox="0 0 148.03 198.34">
			<path d="M98.2 17.29c2.4.87 1.41 3.5 2.43 5.27.78 1.35 2.9.77 3.34-.8a7 7 0 0 0-4.59-8.15c-3.16-1-7.3.25-8.54 3.62-.57 1.53.81 3.25 2.23 2.61 1.88-.83 2.73-3.42 5.13-2.55zm17.54 5.51c2.21 1.27.79 3.69 1.49 5.61.54 1.47 2.73 1.25 3.43-.22a7 7 0 0 0-3.12-8.77c-2.94-1.56-7.23-1-9 2.1-.82 1.41.24 3.34 1.75 3 1.95-.58 3.23-2.99 5.45-1.72zm-2.35 95.85c-3.54-4.78 1-5.35 4.38-7.48a16.07 16.07 0 0 0 5.88-7 62.27 62.27 0 0 0 3-9.27l1.19-5.19c1-3.57 4.88-3.62 3.4 3a73.68 73.68 0 0 1-3.37 11.24c-1.8 4.46-3.78 8.1-8 10.66-2.34 1.44-3.7 1.79-1.26 3.79l4.92 4.75c6.57 7.1 8.43 14.11 5.22 23.23a23.79 23.79 0 0 1-5 8.7c-1.64 1.59-3.68.26-3.22-1.84.16-.74 3.45-5.15 4.57-8.49 1.72-7.78 1.85-12.22-4.33-18.57-2.42-2.53-5.17-4.55-7.38-7.53zm-19.2-29.78c.38.48.54 1.26 2 .65l6.07-2.49-9.57.62c.46.01.69.18 1.5 1.22zm-15.11 70.26c.69 9.53 2.74 9.77 11.52 13.26a13.71 13.71 0 0 1 9 12.81c.17 11.38-15 18.22-22.8 8.48-3.17-3.95-3.86-9.68.28-14.06 2.5-2.66 6.53-3.9 11.46-1.91a7.39 7.39 0 0 1 4.81 7.31c-.39 6-6.8 8.34-11.54 4.94-3.57-2.56-.68-6 1.46-3.81 1.71 1.72 5.37 2.56 6-.89.39-2.13-1.2-3.81-3.24-4.5-5.84-2-9.38 5.06-7.2 9.2a9.44 9.44 0 0 0 7.84 4.64c4.75.21 9.47-4.82 9-9.87a10.14 10.14 0 0 0-5.24-8.41c-4.93-3-10.05-1.73-13.5-8.64-1.29-2.59-1.88-7.67-2-12.29-.08-2.91-.12-7.22.76-10s3.07-2.43 3.9 0c1.35 3.9 1.37 8.35 2.89 12.31.91 2.38 2.69 6.18 5.62 6.35 3.37.19 3.5-4.1.09-4.06-4.1 0-4.24-3.29-.07-3.8s8 3.69 6.39 7.65c-1.91 4.63-7.94 5.23-11.44 2.4-2.6-2.04-3.12-5.33-3.99-7.11zm63.25-42.37a1.74 1.74 0 0 1-1.95 2.77c-.75-.26-1.14-.83-2.11-1-2.51-.35-2.92 3-.75 4a5.17 5.17 0 0 0 4.32 0c4.18-1.9 3-7.59-1.7-9.09a7.71 7.71 0 0 0-6 .42c-5.89 3.17-2.85 11.09-.42 14.4 10.39 14.24 7.5 40.26-5.53 51-8.49 7-19.82 6.36-27-2.27a25 25 0 0 1-4.56-8.53c-1.44-3.2 2.65-5.47 3.58-.86a17.31 17.31 0 0 0 4 7.59c6 6.73 15.22 7.11 21.89 1.09 9.32-8.42 12.87-27.42 8.53-38.38-1.41-3.58-3.74-7.26-6-11.48-2.51-4.78-3.14-12.76 4.05-16a11.37 11.37 0 0 1 10.75.67c6.54 4.39 6 13.64-1.6 15.38-4.68 1.08-10.16-1.65-9.22-7.31a5.32 5.32 0 0 1 3.82-4.4 5.63 5.63 0 0 1 5.89 2zm-.81-41.27c-2-7.77-10.14-10.61-14.83-5.34-2.75 3.08-3.42 9.3 1.35 10.81a6.6 6.6 0 0 0 6.22-1.47c3.22-2.76 0-7.25-3.6-4.73a13.68 13.68 0 0 1-2.11 1.48c-2.27.74-3.33-1.9-1.31-3.69.33-.29.71-.58 1.08-.94a6.67 6.67 0 0 1 9.61.77c2.51 3.1 1.5 8-1.69 10.45-7.86 6.12-16.7.51-15.76-8.56a11.37 11.37 0 0 1 3.68-7.22c5.48-5.1 13.47-4.41 18.28 1.63 3.85 4.84 3.68 10.8 3.18 17-.44 5.56-4.74 17.38-9.08 21-2.81 2.34-5.2.27-3-2.44.51-.64 1.13-1.22 1.47-1.71a39.2 39.2 0 0 0 6.61-16.91 26.72 26.72 0 0 0-.1-10.13zm-33.58 100.29a13.9 13.9 0 0 1-5.5-9.43c-1.15-11.06 9.43-12.67 14.11-18.67 1.86-2.39 2.53-5.61 1-11.41l-1.47-5.49c-1.61-4.79 2.69-6.38 3.7-1.93l1.8 7.93c.86 3.8 1 6.92.05 9.72-3.11 9.2-15.66 9.45-15.38 19.27.1 3.63 2.5 7 7.13 8.52 5.86 1.92 12.34-4.16 9.54-10.12a5.36 5.36 0 0 0-5.13-2.85c-3.31.27-4.86 1.81-5.14 3.35-.82 4.38 3.63 4.19 6.19 2.15 1.86-1.48 4.77 1.36.66 4.11a7 7 0 0 1-11-5.32c-.43-5.48 5-9.39 11.22-8.23 7.4 1.38 9.89 9.17 6.49 15.21-3.59 6.27-12.41 7.83-18.27 3.19zM74.02 0c-3.16 0-6.57 2-7.17 5.39-.28 1.61 1.37 3.03 2.66 2.18 1.69-1.15 1.93-3.68 4.51-3.68s2.82 2.53 4.5 3.68c1.29.88 3-.58 2.66-2.18-.59-3.35-4-5.39-7.16-5.39zM49.84 17.29c-2.4.87-1.41 3.5-2.43 5.27-.78 1.35-2.91.77-3.34-.8a7 7 0 0 1 4.58-8.15c3.16-1 7.29.25 8.54 3.62.56 1.53-.81 3.25-2.24 2.61-1.86-.83-2.71-3.42-5.11-2.55zM32.3 22.8c-2.22 1.27-.79 3.69-1.49 5.61-.54 1.47-2.73 1.25-3.43-.22a7 7 0 0 1 3.11-8.77c2.94-1.56 7.23-1 9 2.1.82 1.41-.24 3.34-1.75 3-1.94-.58-3.22-2.99-5.44-1.72zm2.34 95.85c3.54-4.78-1-5.35-4.38-7.48a16.1 16.1 0 0 1-5.88-7 62.47 62.47 0 0 1-3-9.27l-1.18-5.19c-1-3.57-4.88-3.62-3.4 3a74 74 0 0 0 3.37 11.24c1.8 4.46 3.78 8.1 8 10.66 2.34 1.44 3.7 1.79 1.26 3.79l-4.92 4.75c-6.57 7.1-8.42 14.11-5.22 23.23a23.78 23.78 0 0 0 5 8.7c1.64 1.59 3.68.26 3.23-1.84-.16-.74-3.46-5.15-4.57-8.49-1.73-7.78-1.86-12.22 4.33-18.57 2.4-2.53 5.16-4.55 7.37-7.53zm39.38 16.88c-.79 0-1.52 1-2.1 1.63-3.73 4.28-8.69 7-14.33 7-1.27 0-5.4-.12-7.66-1.17-2.57-1.2-1.74-3.91 1.33-3.53a40.39 40.39 0 0 0 6.46.69c5.38-.16 8.28-2.44 11.89-6.23 2.62-3.06 2.26-4.31 2.25-7.22l-6.18-4a24.25 24.25 0 0 1-2.59-1.81c-2.51-2.18-.8-4.86 2.43-3.19a21.23 21.23 0 0 1 2.71 1.85l4.19 2.73a2.36 2.36 0 0 0 3.18 0l4.19-2.73a21.41 21.41 0 0 1 2.71-1.85c3.23-1.67 4.95 1 2.43 3.19a24.6 24.6 0 0 1-2.58 1.81l-6.18 4c0 2.91-.37 4.16 2.25 7.22 3.61 3.8 6.51 6.07 11.89 6.23a40.45 40.45 0 0 0 6.46-.69c3.06-.38 3.9 2.33 1.32 3.53-2.26 1.05-6.39 1.17-7.65 1.17-5.64 0-10.6-2.75-14.34-7-.56-.66-1.29-1.63-2.08-1.63zM53.85 88.87c-.38.48-.54 1.26-2 .65l-6.07-2.49 9.57.62c-.46.01-.69.18-1.5 1.22zm20.17 26.91a20.7 20.7 0 0 1-6.75-1.15c-5.08-1.89-4.86-4.75-5.82-9.42l-3.08-15.06c-.35-1.73-.35-2.15-2.18-2.37 1.32.25.93 2.11.16 3.06l-1.23 1.52c-1.68 2.06-2.72 1.15-4.76.1l-5.34-2.77c-1.07-.6-2.58-1.21-3.74-2-2.36-1.5-2.34-3.94.32-4.17.66-.06 1.44 0 2.3 0 2.83 0 14.74-.25 15.85.29 1.59.78 1.67 2 2.14 4.34l3.63 17.97c.4 2 .27 3.44 1.84 4.36s4.79 1.14 6.66 1.14 5-.19 6.66-1.14 1.44-2.38 1.84-4.36l3.62-17.91c.48-2.34.56-3.56 2.14-4.34 1.11-.54 13-.31 15.86-.29.86 0 1.64-.06 2.3 0 2.66.23 2.69 2.68.32 4.17-1.16.74-2.68 1.35-3.74 2l-5.35 2.67c-2 1.05-3.08 2-4.76-.1l-1.23-1.51c-.77-.95-1.15-2.81.16-3.06-1.88.22-1.83.67-2.18 2.37l-3.08 15.1c-1 4.67-.73 7.52-5.81 9.42a20.72 20.72 0 0 1-6.75 1.14zm-5.06 43.35c-.69 9.53-2.74 9.77-11.52 13.26a13.72 13.72 0 0 0-9 12.81c-.17 11.38 15 18.22 22.8 8.48 3.17-3.95 3.86-9.68-.27-14.06-2.51-2.66-6.53-3.9-11.46-1.91a7.4 7.4 0 0 0-4.81 7.31c.39 6 6.81 8.34 11.54 4.94 3.57-2.56.68-6-1.46-3.81-1.71 1.72-5.37 2.56-6-.89-.4-2.13 1.2-3.81 3.24-4.5 5.84-2 9.38 5.06 7.2 9.2a9.44 9.44 0 0 1-7.84 4.64c-4.75.21-9.47-4.82-9-9.87a10.15 10.15 0 0 1 5.25-8.41c4.93-3 10.05-1.73 13.49-8.64 1.29-2.59 1.88-7.67 2-12.29.08-2.91.13-7.22-.76-10s-3.07-2.43-3.9 0c-1.34 3.9-1.37 8.35-2.89 12.31-.91 2.38-2.69 6.18-5.62 6.35-3.37.19-3.5-4.1-.09-4.06 4.1 0 4.24-3.29.07-3.8s-8 3.69-6.39 7.65c1.91 4.63 7.94 5.23 11.44 2.4 2.59-2.04 3.11-5.33 3.98-7.11zM5.71 116.76a1.74 1.74 0 0 0 2 2.77c.75-.26 1.14-.83 2.11-1 2.52-.35 2.92 3 .75 4a5.17 5.17 0 0 1-4.32 0c-4.18-1.9-3-7.59 1.7-9.09a7.72 7.72 0 0 1 6 .42c5.89 3.17 2.84 11.09.42 14.4-10.39 14.24-7.5 40.26 5.53 51 8.49 7 19.82 6.36 27-2.27a25.05 25.05 0 0 0 4.56-8.53c1.45-3.2-2.65-5.47-3.58-.86a17.32 17.32 0 0 1-4 7.59c-6 6.73-15.22 7.11-21.89 1.09-9.32-8.42-12.86-27.42-8.53-38.38 1.42-3.58 3.75-7.26 6-11.48 2.5-4.78 3.13-12.76-4.05-16a11.37 11.37 0 0 0-10.75.67c-6.64 4.33-6.1 13.62 1.47 15.33 4.68 1.08 10.16-1.65 9.21-7.31a5.32 5.32 0 0 0-3.82-4.4 5.63 5.63 0 0 0-5.81 2.05zm68.31-57.34c-5.35-2.17-14.9-5.33-20.78-4.95-5 .32-5.55 2.53-8 6-2.87 4.1-7.95 7.74-13 7.81-3.87.15-8-3-10-6a12.83 12.83 0 0 1-1.47-11.53c2.37-6.08 10.25-9.15 16.25-6.49s6.3 10.2 2.46 14.81c-2.33 2.8-6 4.15-9.74 2-2.83-1.62-4-5.72-1.86-9.34 3-5.11 6.58-3.11 5.22-.55-.53 1-2.06 2.05-2.38 3.19-1 3.55 3.39 5.33 5.94 2.17a7.88 7.88 0 0 0 1.64-4.19c.16-4.77-5.18-7.15-9.9-4.54a9.12 9.12 0 0 0-4.27 6.22 9.77 9.77 0 0 0 1.89 7.25c4.88 6.4 12.58 3.07 16.24-2.94 2.52-4.13 4.14-6.44 8.85-7.21a29.48 29.48 0 0 1 9.66.35c2.13.39 11.1 3.15 13.29 4 2.19-.87 11.16-3.63 13.29-4a29.5 29.5 0 0 1 9.67-.36c4.71.77 6.33 3.08 8.85 7.21 3.66 6 11.36 9.35 16.24 2.94a9.78 9.78 0 0 0 1.87-7.25 9.14 9.14 0 0 0-4.27-6.22c-4.72-2.62-10.06-.23-9.91 4.54a7.88 7.88 0 0 0 1.64 4.19c2.56 3.16 7 1.38 5.95-2.17-.32-1.14-1.86-2.19-2.39-3.19-1.36-2.56 2.26-4.56 5.22.55 2.1 3.62 1 7.72-1.86 9.34-3.73 2.13-7.4.79-9.74-2-3.84-4.61-3.44-12.2 2.46-14.81s13.87.41 16.22 6.58a12.84 12.84 0 0 1-1.47 11.53c-2 3-6.11 6.14-10 6-5.06-.07-10.15-3.71-13-7.81-2.44-3.49-3-5.7-8-6-5.92-.41-15.46 2.75-20.81 4.87zm0-18.11c-3.7 0-7.34.21-10.38.39a74.85 74.85 0 0 0-13.46 2.51l-.73.24c-4.8 1.56-4.26 2-5.54-.84l-4.89-10.87c-.67-1.49-.51-1.89.83-1.23l9.33 4.58c2.08 1 4.25 1.16 4.21-1.88l-.07-6.55c0-2.47 1.18-.81 2.11.18l7.19 7.67c2.08 2.22 3.49 2 4.42-.82l6.54-19.84c.26-.79.68-.79.94 0l6.5 19.83c.93 2.82 2.34 3 4.42.82l7.19-7.67c.93-1 2.13-2.65 2.11-.18l-.07 6.55c0 3 2.14 2.9 4.21 1.88l9.33-4.58c1.34-.66 1.51-.25.84 1.23l-4.93 10.91c-1.28 2.83-.74 2.4-5.54.84l-.73-.24a74.77 74.77 0 0 0-13.46-2.51c-3.03-.16-6.67-.37-10.37-.37zm0 3.71a99 99 0 0 0-10.95.45c-5.3.61-10.73 1.39-15.62 3.53-2.11.92-4 2.34-5.35-.58l-8.91-19.25c-2.14-4.64 1.05-4.85 2.11-4.32l12.35 6.27c1.63.83 1.91.61 1.9-1.13v-9.07c0-2.4 1.91-2.6 3.53-.92l8.67 9c1.93 2 2.38 2.69 3.23.14l6.61-19.83c.51-1.3.86-3.46 2.43-3.46s1.91 2.16 2.43 3.46l6.65 19.85c.85 2.55 1.31 1.86 3.23-.14l8.67-9c1.61-1.68 3.54-1.48 3.53.92v9.07c0 1.74.27 2 1.9 1.13l12.35-6.27c1.06-.54 4.25-.32 2.11 4.32l-8.96 19.23c-1.35 2.92-3.23 1.5-5.34.58-4.88-2.13-10.32-2.91-15.62-3.53a99 99 0 0 0-10.95-.39zM72.3 69.34c-4.8-3.85-7.41-5.53-14-5.53-10.66 0-12.69 7.35-20 12.49-4.48 3.13-6.12 6-6.15 9.34 0 2.77 1.1 5.84 2.6 9.62s3.89 7.49 5.62 11.34c2.08 4.65 3.91 11.72 3.91 16.78 0 5.31-3.75 11.68-5.9 16.73-1 4.84.39 4.85 4.3 6.48.95.39 1.94.49 2.82.86 3.25 1.35 1.87 4.16-2.12 3.56a20.36 20.36 0 0 1-6.48-3c-2.83-2-3.15-5.08-2.46-8.3.74-3.44 2.89-6.72 4.28-9.9 1.79-6 2-7.74.58-14.26a27.46 27.46 0 0 0-2.68-7.73c-1.74-2.85-3.47-6.87-5-10-2.26-4.59-3.55-8.84-3.23-12.78s2.31-7.67 6.65-11c10-6.13 9.59-13.87 24.11-13.87 9.51 0 12.42 5.13 14.92 5.13s5.42-5.13 14.92-5.13c14.52 0 14.15 7.74 24.11 13.87 4.33 3.35 6.32 7 6.65 11s-1 8.19-3.23 12.78c-1.54 3.12-3.27 7.14-5 10a27.52 27.52 0 0 0-2.68 7.73c-1.4 6.53-1.2 8.23.59 14.26 1.39 3.18 3.54 6.47 4.28 9.9.7 3.22.37 6.31-2.46 8.3a20.38 20.38 0 0 1-6.48 3c-4 .61-5.38-2.2-2.12-3.56.88-.36 1.88-.46 2.82-.86 3.91-1.63 5.33-1.64 4.29-6.48-2.16-5.05-5.9-11.43-5.9-16.73 0-5.06 1.83-12.13 3.91-16.78 1.72-3.85 4.07-7.45 5.61-11.34s2.62-6.85 2.6-9.62c0-3.32-1.68-6.2-6.15-9.34-7.36-5.15-9.39-12.49-20-12.49-6.58 0-9.2 1.68-14 5.53a2.44 2.44 0 0 1-3.53 0zM6.52 75.49c2-7.77 10.14-10.61 14.83-5.34 2.75 3.09 3.43 9.27-1.33 10.81a6.6 6.6 0 0 1-6.22-1.47c-3.23-2.76-.05-7.25 3.6-4.73a13.6 13.6 0 0 0 2.11 1.48c2.27.74 3.33-1.9 1.31-3.69-.33-.29-.71-.58-1.08-.94a6.68 6.68 0 0 0-9.61.77c-2.51 3.1-1.49 8 1.69 10.45 7.86 6.12 16.69.51 15.75-8.56a11.38 11.38 0 0 0-3.69-7.22c-5.48-5.1-13.47-4.41-18.28 1.63-3.85 4.84-3.68 10.8-3.18 17 .44 5.56 4.74 17.38 9.08 21 2.81 2.34 5.2.27 3-2.44-.51-.64-1.12-1.22-1.47-1.71a39.19 39.19 0 0 1-6.61-16.91 26.68 26.68 0 0 1 .1-10.13zm33.57 100.29a13.9 13.9 0 0 0 5.5-9.43c1.15-11.06-9.43-12.67-14.11-18.67-1.86-2.39-2.53-5.61-1-11.41l1.46-5.49c1.61-4.79-2.69-6.38-3.7-1.93l-1.8 7.93c-.86 3.8-1 6.92 0 9.72 3.11 9.2 15.66 9.45 15.39 19.27-.1 3.63-2.5 7-7.13 8.52-5.86 1.92-12.34-4.16-9.54-10.12a5.36 5.36 0 0 1 5.14-2.85c3.31.27 4.85 1.81 5.14 3.35.82 4.38-3.64 4.19-6.2 2.15-1.86-1.48-4.77 1.36-.67 4.11a7 7 0 0 0 11-5.32c.44-5.48-5-9.39-11.22-8.23-7.4 1.38-9.89 9.17-6.49 15.21 3.56 6.27 12.38 7.83 18.23 3.19z" fill="currentColor" fill-rule="evenodd"/>
		</symbol>
	
		<symbol id="logo--full" viewBox="0 0 287.14 138.59">
			<path d="M68.57 12.07c1.68.61 1 2.45 1.7 3.68.54.94 2 .54 2.34-.56a4.87 4.87 0 0 0-3.2-5.69c-2.21-.72-5.1.18-6 2.53-.39 1.07.57 2.27 1.56 1.82 1.37-.56 1.96-2.39 3.6-1.78zm12.3 3.85c1.55.89.55 2.58 1 3.92.37 1 1.91.87 2.4-.15a4.87 4.87 0 0 0-2.18-6.16c-2.05-1.09-5.05-.7-6.31 1.47-.57 1 .17 2.34 1.22 2.07 1.42-.35 2.32-2.03 3.87-1.15zm-1.64 67c-2.47-3.34.68-3.74 3.06-5.23a11.23 11.23 0 0 0 4.11-4.92 43.51 43.51 0 0 0 2.09-6.48l.83-3.63c.68-2.49 3.41-2.53 2.37 2.09a51.48 51.48 0 0 1-2.36 7.86c-1.26 3.12-2.64 5.66-5.58 7.45-1.64 1-2.58 1.25-.88 2.65l3.44 3.32c4.59 5 5.89 9.86 3.65 16.23a16.62 16.62 0 0 1-3.48 6.03 1.31 1.31 0 0 1-2.25-1.28c.11-.51 2.41-3.6 3.2-5.93 1.2-5.44 1.29-8.54-3-13-1.74-1.69-3.66-3.1-5.2-5.18zM65.81 62.09c.26.33.38.88 1.42.46l4.24-1.74-6.69.43c.3.05.47.12 1.03.85zm-10.56 49.09c.48 6.66 1.91 6.83 8 9.27a9.58 9.58 0 0 1 6.28 9c.12 8-10.47 12.73-15.93 5.93a7.27 7.27 0 0 1 .19-9.83c1.75-1.86 4.56-2.73 8-1.33a5.17 5.17 0 0 1 3.41 5.07c-.27 4.18-4.75 5.82-8.06 3.45-2.49-1.79-.47-4.16 1-2.66 1.19 1.2 3.75 1.79 4.2-.62.28-1.49-.84-2.66-2.26-3.15-4.08-1.4-6.56 3.54-5 6.43a6.6 6.6 0 0 0 5.49 3.23c3.32.15 6.61-3.37 6.32-6.89a7.09 7.09 0 0 0-3.66-5.88c-3.45-2.07-7-1.21-9.43-6-.9-1.81-1.32-5.36-1.41-8.58a24.47 24.47 0 0 1 .53-7c.64-2 2.15-1.69 2.72 0 .94 2.73 1 5.84 2 8.6.64 1.66 1.88 4.32 3.93 4.43 2.36.14 2.45-2.87.06-2.84-2.86 0-3-2.3 0-2.65s5.61 2.58 4.46 5.34c-1.34 3.23-5.55 3.65-8 1.68-1.86-1.46-2.23-3.75-2.84-5zm44.19-29.61a1.22 1.22 0 0 1-1.36 1.94c-.52-.18-.8-.58-1.48-.67-1.75-.25-2 2.06-.52 2.82a3.61 3.61 0 0 0 3 0c2.92-1.33 2.07-5.31-1.19-6.35a5.39 5.39 0 0 0-4.17.3c-4.12 2.22-2 7.75-.3 10.06 7.26 9.95 5.24 28.13-3.86 35.61-5.93 4.87-13.85 4.44-18.85-1.58a17.5 17.5 0 0 1-3.19-6c-1-2.24 1.85-3.82 2.5-.6a12.1 12.1 0 0 0 2.8 5.3 10.43 10.43 0 0 0 15.3.76c6.51-5.88 9-19.16 6-26.82-1-2.5-2.62-5.07-4.16-8-1.75-3.34-2.19-8.91 2.83-11.2a8 8 0 0 1 7.51.46c4.57 3.07 4.17 9.53-1.12 10.75-3.27.75-7.1-1.15-6.44-5.11a3.72 3.72 0 0 1 2.67-3.08 3.93 3.93 0 0 1 4.03 1.41zm-.56-28.83c-1.38-5.45-7.08-7.45-10.37-3.73-1.92 2.16-2.39 6.5.94 7.55a4.61 4.61 0 0 0 4.35-1c2.25-1.93 0-5.07-2.51-3.31a9.56 9.56 0 0 1-1.47 1c-1.58.52-2.33-1.33-.91-2.58.23-.2.49-.4.76-.66a4.66 4.66 0 0 1 6.71.54c1.75 2.17 1 5.57-1.18 7.3-5.5 4.27-11.67.36-11-6a8 8 0 0 1 2.57-5c3.8-3.56 9.4-3.08 12.8 1.14 2.69 3.38 2.57 7.55 2.22 11.88-.31 3.88-3.31 12.14-6.35 14.67-2 1.64-3.63.19-2.12-1.71.36-.45.79-.86 1-1.2a27.39 27.39 0 0 0 4.63-11.83 18.67 18.67 0 0 0-.07-7.06zm-23.46 70.08a9.71 9.71 0 0 1-3.85-6.59c-.8-7.72 6.59-8.86 9.86-13 1.3-1.67 1.77-3.92.69-8l-1-3.84C80 88.04 83 86.93 83.7 90.04l1.26 5.54a12.38 12.38 0 0 1 0 6.79c-2.17 6.43-10.94 6.6-10.75 13.46.07 2.53 1.75 4.9 5 6 4.09 1.34 8.62-2.91 6.67-7.07a3.74 3.74 0 0 0-3.59-2c-2.31.19-3.39 1.27-3.59 2.34-.57 3.06 2.54 2.93 4.33 1.5 1.3-1 3.33 1 .46 2.87a4.92 4.92 0 0 1-7.71-3.72c-.3-3.83 3.49-6.56 7.84-5.75 5.17 1 6.91 6.41 4.53 10.63-2.48 4.34-8.64 5.41-12.73 2.19zM51.72 0a5 5 0 0 0-5 3.76c-.2 1.12 1 2.14 1.86 1.52 1.18-.8 1.35-2.58 3.15-2.58s2 1.77 3.15 2.58c.9.61 2.06-.4 1.86-1.52C56.31 1.41 53.93 0 51.72 0zm-16.9 12.07c-1.68.61-1 2.45-1.7 3.68-.55.94-2 .54-2.34-.56a4.87 4.87 0 0 1 3.2-5.69c2.21-.72 5.1.18 6 2.53.39 1.07-.57 2.27-1.56 1.82-1.33-.56-1.92-2.39-3.6-1.78zm-12.25 3.85c-1.55.89-.55 2.58-1 3.92-.37 1-1.91.87-2.4-.15a4.87 4.87 0 0 1 2.18-6.16c2.05-1.09 5.05-.7 6.31 1.47.57 1-.17 2.34-1.22 2.07-1.43-.35-2.32-2.03-3.87-1.15zm1.64 67c2.47-3.34-.68-3.74-3.06-5.23a11.25 11.25 0 0 1-4.11-4.92 43.65 43.65 0 0 1-2.09-6.48l-.83-3.63c-.68-2.49-3.41-2.53-2.38 2.09a51.73 51.73 0 0 0 2.36 7.86c1.26 3.12 2.64 5.66 5.58 7.45 1.64 1 2.58 1.25.88 2.65l-3.44 3.32c-4.59 5-5.89 9.86-3.65 16.23a16.61 16.61 0 0 0 3.49 6.03 1.31 1.31 0 0 0 2.26-1.28c-.11-.51-2.41-3.6-3.2-5.93-1.21-5.44-1.3-8.54 3-13 1.72-1.69 3.64-3.1 5.19-5.18zm27.51 11.77c-.55 0-1.06.68-1.47 1.14a13.26 13.26 0 0 1-10 4.91 15.6 15.6 0 0 1-5.35-.82c-1.79-.84-1.21-2.73.93-2.47a28.22 28.22 0 0 0 4.51.48c3.76-.11 5.78-1.7 8.31-4.36 1.83-2.14 1.58-3 1.58-5l-4.32-2.8a16.94 16.94 0 0 1-1.81-1.26c-1.76-1.53-.56-3.39 1.7-2.23a14.83 14.83 0 0 1 1.89 1.29l2.88 1.86a1.65 1.65 0 0 0 2.23 0l2.93-1.9a15 15 0 0 1 1.89-1.29c2.26-1.16 3.46.7 1.7 2.23a17.19 17.19 0 0 1-1.75 1.26l-4.32 2.8c0 2-.26 2.91 1.58 5 2.52 2.65 4.55 4.24 8.31 4.36a28.26 28.26 0 0 0 4.52-.48c2.14-.27 2.72 1.63.93 2.47a15.6 15.6 0 0 1-5.35.82 13.27 13.27 0 0 1-10-4.91c-.46-.42-.97-1.1-1.52-1.1zm-14.09-32.6c-.26.33-.38.88-1.42.46l-4.24-1.74 6.69.43c-.31.05-.47.12-1.03.85zm14.09 18.8a14.46 14.46 0 0 1-4.71-.8c-3.55-1.32-3.4-3.32-4.06-6.58l-2.17-10.53c-.21-1.18-.21-1.5-1.52-1.69.92.18.65 1.48.11 2.14l-.86 1.06c-1.17 1.44-1.9.8-3.32.07l-3.74-1.93c-.75-.42-1.8-.85-2.62-1.36-1.65-1-1.63-2.75.23-2.91h1.61c2 0 10.3-.17 11.08.21 1.11.54 1.17 1.4 1.5 3l2.53 12.52c.28 1.38.19 2.4 1.29 3a11 11 0 0 0 4.65.8 11 11 0 0 0 4.65-.8c1.1-.65 1-1.67 1.29-3l2.53-12.52c.33-1.63.39-2.49 1.5-3 .78-.38 9.1-.22 11.08-.21h1.61c1.86.16 1.88 1.87.23 2.91-.81.51-1.87.94-2.62 1.36l-3.74 1.96c-1.42.73-2.16 1.37-3.32-.07l-.86-1.06c-.54-.66-.81-2 .11-2.14-1.31.15-1.28.47-1.52 1.65L60.5 73.51c-.67 3.26-.51 5.26-4.06 6.58a14.48 14.48 0 0 1-4.72.8zm-3.53 30.29c-.48 6.66-1.91 6.83-8 9.27a9.59 9.59 0 0 0-6.28 9c-.12 8 10.47 12.73 15.93 5.93a7.27 7.27 0 0 0-.19-9.83c-1.75-1.86-4.56-2.73-8-1.33a5.17 5.17 0 0 0-3.42 5.07c.27 4.18 4.76 5.82 8.06 3.45 2.49-1.79.47-4.16-1-2.66-1.19 1.2-3.75 1.79-4.2-.62-.28-1.49.84-2.66 2.26-3.15 4.08-1.4 6.56 3.54 5 6.43a6.59 6.59 0 0 1-5.48 3.24c-3.32.15-6.61-3.37-6.32-6.89a7.09 7.09 0 0 1 3.67-5.88c3.45-2.07 7-1.21 9.43-6 .9-1.81 1.32-5.36 1.41-8.58a24.4 24.4 0 0 0-.53-7c-.64-2-2.15-1.69-2.73 0-.94 2.73-1 5.84-2 8.6-.64 1.66-1.88 4.32-3.93 4.43-2.35.14-2.44-2.87-.06-2.84 2.87 0 3-2.3 0-2.65s-5.6 2.58-4.46 5.34c1.34 3.23 5.55 3.65 8 1.68 1.86-1.47 2.22-3.76 2.83-5.01zM3.99 81.57a1.22 1.22 0 0 0 1.36 1.94c.52-.18.8-.58 1.48-.67 1.76-.25 2 2.06.52 2.82a3.61 3.61 0 0 1-3 0c-2.93-1.37-2.08-5.32 1.22-6.37a5.4 5.4 0 0 1 4.18.3c4.12 2.22 2 7.75.3 10.06-7.26 9.95-5.24 28.13 3.86 35.61 5.93 4.87 13.85 4.44 18.85-1.58a17.51 17.51 0 0 0 3.19-6c1-2.24-1.85-3.82-2.5-.6a12.11 12.11 0 0 1-2.81 5.3 10.43 10.43 0 0 1-15.3.76c-6.51-5.88-9-19.16-6-26.82 1-2.5 2.62-5.07 4.16-8 1.75-3.34 2.19-8.91-2.83-11.2a8 8 0 0 0-7.51.46c-4.59 3.09-4.17 9.55 1.12 10.77 3.27.75 7.1-1.15 6.44-5.11a3.72 3.72 0 0 0-2.67-3.08 3.93 3.93 0 0 0-4.06 1.41zm47.73-40c-3.73-1.52-10.41-3.72-14.52-3.46-3.49.22-3.87 1.77-5.58 4.21-2 2.86-5.55 5.41-9.09 5.45-2.7.11-5.6-2.07-7-4.18a9 9 0 0 1-1-8.05 8.73 8.73 0 0 1 11.33-4.6c4.12 1.8 4.39 7.1 1.71 10.35a5.17 5.17 0 0 1-6.8 1.41 4.71 4.71 0 0 1-1.3-6.53c2.07-3.57 4.6-2.17 3.65-.39-.37.7-1.44 1.43-1.67 2.23-.71 2.48 2.37 3.72 4.15 1.51a5.51 5.51 0 0 0 1.15-2.93c.11-3.33-3.62-5-6.92-3.17a6.37 6.37 0 0 0-3 4.34 6.82 6.82 0 0 0 1.31 5.06c3.43 4.47 8.8 2.13 11.36-2.07 1.76-2.89 2.89-4.5 6.18-5a20.6 20.6 0 0 1 6.75.25c1.49.28 7.75 2.2 9.29 2.81 1.53-.61 7.8-2.53 9.29-2.81a20.61 20.61 0 0 1 6.75-.25c3.29.54 4.42 2.15 6.18 5 2.56 4.2 7.94 6.53 11.35 2.06a6.83 6.83 0 0 0 1.28-5.07 6.38 6.38 0 0 0-3-4.34c-3.3-1.83-7-.16-6.92 3.17a5.51 5.51 0 0 0 1.15 2.93c1.79 2.21 4.86 1 4.16-1.51-.23-.79-1.3-1.53-1.67-2.23-.95-1.79 1.58-3.18 3.65.39a4.71 4.71 0 0 1-1.3 6.53 5.17 5.17 0 0 1-6.78-1.39c-2.68-3.22-2.4-8.52 1.72-10.35a8.73 8.73 0 0 1 11.33 4.6 9 9 0 0 1-1 8.05c-1.37 2.11-4.27 4.29-7 4.18-3.54 0-7.09-2.59-9.09-5.45-1.7-2.44-2.09-4-5.58-4.21-4.12-.29-10.79 1.92-14.52 3.44zm0-12.65c-2.58 0-5.13.15-7.25.27a52.3 52.3 0 0 0-9.41 1.75l-.51.17c-3.35 1.09-3 1.39-3.87-.59l-3.44-7.63c-.47-1-.36-1.32.58-.86l6.52 3.2c1.45.71 3 .81 2.94-1.31v-4.58c0-1.73.82-.57 1.47.12l5 5.36c1.46 1.55 2.44 1.4 3.09-.57l4.57-13.86c.18-.55.47-.55.65 0l4.51 13.83c.65 2 1.63 2.12 3.09.57l5-5.36c.65-.69 1.49-1.85 1.47-.12v4.58c0 2.12 1.5 2 2.94 1.31l6.5-3.19c.94-.46 1.05-.18.58.86l-3.44 7.63c-.9 2-.52 1.68-3.87.59l-.51-.17a52.24 52.24 0 0 0-9.41-1.75c-2.07-.13-4.62-.28-7.2-.28zm0 2.59a69.17 69.17 0 0 0-7.65.31 38.24 38.24 0 0 0-10.92 2.47c-1.47.64-2.79 1.63-3.73-.41l-6.23-13.5c-1.5-3.24.73-3.39 1.47-3l8.63 4.38c1.14.58 1.33.43 1.33-.79v-6.34c0-1.67 1.34-1.81 2.46-.64l6.04 6.3c1.35 1.4 1.66 1.88 2.26.1l4.65-13.87c.36-.91.6-2.41 1.69-2.41s1.34 1.51 1.69 2.41l4.65 13.87c.6 1.78.91 1.3 2.26-.1l6.06-6.3c1.13-1.17 2.47-1 2.46.64v6.34c0 1.22.19 1.37 1.33.79l8.63-4.38c.74-.37 3-.22 1.47 3l-6.26 13.48c-.94 2-2.26 1-3.73.41a38.25 38.25 0 0 0-10.91-2.47 69.17 69.17 0 0 0-7.65-.31zm-1.2 17c-3.35-2.69-5.17-3.86-9.77-3.86-7.45 0-8.86 5.13-14 8.73-3.13 2.19-4.28 4.2-4.3 6.52 0 1.94.77 4.08 1.81 6.72s2.72 5.23 3.92 7.93a33 33 0 0 1 2.73 11.73c0 3.71-2.62 8.16-4.13 11.69-.72 3.38.27 3.39 3 4.53.66.27 1.36.35 2 .6 2.27.94 1.31 2.91-1.48 2.48a14.23 14.23 0 0 1-4.53-2.09c-2-1.39-2.2-3.55-1.72-5.8s2-4.7 3-6.92c1.25-4.22 1.39-5.41.41-10a19.19 19.19 0 0 0-1.89-5.48c-1.21-2-2.43-4.8-3.5-7-1.58-3.2-2.48-6.18-2.26-8.93s1.62-5.36 4.65-7.7c7-4.28 6.7-9.69 16.85-9.69 6.64 0 8.68 3.59 10.43 3.59s3.78-3.59 10.43-3.59c10.15 0 9.89 5.41 16.84 9.69 3 2.34 4.42 4.91 4.65 7.7s-.68 5.73-2.26 8.93c-1.07 2.18-2.29 5-3.5 7a19.23 19.23 0 0 0-1.87 5.4c-1 4.56-.84 5.75.41 10 1 2.22 2.47 4.52 3 6.92s.26 4.41-1.72 5.8a14.24 14.24 0 0 1-4.53 2.09c-2.79.42-3.76-1.54-1.48-2.48.61-.25 1.31-.32 2-.6 2.73-1.14 3.72-1.14 3-4.53-1.51-3.53-4.12-8-4.12-11.69a33 33 0 0 1 2.73-11.73c1.2-2.69 2.84-5.21 3.92-7.93s1.83-4.79 1.81-6.72c0-2.32-1.17-4.34-4.3-6.52-5.14-3.6-6.56-8.73-14-8.73-4.6 0-6.42 1.18-9.78 3.86a1.71 1.71 0 0 1-2.46.01zm-46 4.3c1.42-5.52 7.12-7.52 10.4-3.8 1.92 2.16 2.39 6.5-.94 7.55a4.61 4.61 0 0 1-4.34-1c-2.26-1.93 0-5.07 2.51-3.31a9.51 9.51 0 0 0 1.47 1c1.58.52 2.33-1.33.91-2.58-.23-.2-.49-.4-.76-.66a4.66 4.66 0 0 0-6.72.54c-1.75 2.17-1 5.57 1.18 7.3 5.49 4.27 11.67.36 11-6a8 8 0 0 0-2.58-5c-3.8-3.56-9.39-3.08-12.75 1.14-2.69 3.38-2.57 7.55-2.23 11.88.31 3.88 3.31 12.14 6.35 14.67 2 1.64 3.64.19 2.12-1.71-.36-.45-.79-.86-1-1.2A27.38 27.38 0 0 1 4.51 59.8a18.64 18.64 0 0 1 .06-7.06zm23.46 70.07a9.71 9.71 0 0 0 3.84-6.59c.8-7.72-6.59-8.86-9.86-13-1.3-1.67-1.77-3.92-.69-8l1-3.84c1.12-3.35-1.88-4.46-2.58-1.35l-1.26 5.54a12.38 12.38 0 0 0 0 6.79c2.17 6.43 10.94 6.6 10.75 13.46-.07 2.53-1.75 4.9-5 6-4.09 1.34-8.62-2.91-6.67-7.07a3.74 3.74 0 0 1 3.59-2c2.31.19 3.39 1.27 3.59 2.34.57 3.06-2.54 2.93-4.33 1.5-1.3-1-3.34 1-.47 2.87a4.92 4.92 0 0 0 7.71-3.72c.3-3.83-3.49-6.56-7.84-5.75-5.17 1-6.91 6.41-4.53 10.63 2.53 4.28 8.69 5.35 12.78 2.13zM246.73 32.82h3.58v19h-3.58zm-124.7 20.15h4.73v13.25l15.61-13.25h6.81l-12.77 10.84 14.51 19.17h-5.52l-12.35-16.32-6.29 5.34v11h-4.73zm34.13 0h4.73v30h-4.73zm36.32 0h4.73v30h-1.91l-19.4-21.32v21.33h-4.73v-30h2.79l18.51 20.31zm47.16 23.84a20.11 20.11 0 0 1-15.84 7.16c-10.49 0-19-7.14-19-16s8.5-16 19-16a20.12 20.12 0 0 1 15.77 7.2l-4 2.76a15 15 0 0 0-11.81-5.23c-7.74 0-14 5.07-14 11.33s6.28 11.33 14 11.33a15.35 15.35 0 0 0 11.11-4.42v-3.43h-7.4v-4.74h12.13zm33.31-19.94c-5.23-.87-11-.16-10.52 4.2.38 3.21 6.11 2.86 8.31 3a37.3 37.3 0 0 1 5.77.66c2.94.61 6.1 1.79 7.93 4.3a7.85 7.85 0 0 1 1.43 5.26 9.71 9.71 0 0 1-2.8 6.38c-3.71 3.65-10 3.78-14.78 3a30.79 30.79 0 0 1-11.44-4l-.87-.58 2.43-4.06 1 .68a26.27 26.27 0 0 0 9.57 3.3c3.13.48 8.29.69 10.74-1.73a5.05 5.05 0 0 0 1.41-3.36 3.16 3.16 0 0 0-.55-2.19c-1.77-2.42-7.36-2.9-10.11-3l-1.9-.05c-3.13-.16-7.05-.49-9.29-3a6.66 6.66 0 0 1-1.61-4.77 8.23 8.23 0 0 1 2-5.24c3-3.44 8.4-3.9 12.63-3.47 3.45.35 8.22 1.54 10.94 3.79l.75.62-2.58 4a14.77 14.77 0 0 0-8.47-3.73zM181.06 93.97v15.47c0 4.16 4.14 4.49 7 4.49s7-.32 7-4.49V93.97h4.24v15.51c0 7-6 8-11.28 8s-11.28-1.07-11.28-8V93.97zm-23.6-.55c7.69 0 13.93 5.4 13.93 12.06s-6.24 12.06-13.93 12.06-13.89-5.41-13.89-12.07 6.2-12.05 13.89-12.05zm0 3.54c5.55 0 10 3.81 10 8.51s-4.5 8.51-10 8.51-10.05-3.81-10.05-8.51 4.5-8.51 10.05-8.51zm65.28-3h4.24v22.88h-2.24l-14.08-15.3v15.3h-4.24V93.97h1.85l14.47 15.73zm42.34 0h21.18v3.8h-16.94v5h10.88v3.8h-10.88v6.52h17.82v3.8h-22.06zm-15.85 14.17v-3.84h9.51v6.42a14.17 14.17 0 0 1-12.44 6.78c-7.69 0-13.93-5.4-13.93-12.06s6.2-12.01 13.92-12.01a14.45 14.45 0 0 1 12 5.94l-3.27 1.93a10.47 10.47 0 0 0-8.73-4.29c-5.55 0-10 3.81-10 8.51s4.5 8.51 10 8.51a10.54 10.54 0 0 0 8.58-4.08v-1.78zm-127.2-14.16h4.23v19.08h16.66v3.8h-20.89z" fill="currentColor" fill-rule="evenodd"/>
		</symbol>
	
		<symbol id="logo--text" viewBox="0 0 165.11 84.71">
			<path d="M124.71 0h3.58v19h-3.58zM0 20.15h4.73V33.4l15.62-13.25h6.81L14.39 30.99 28.9 50.16h-5.52L11.03 33.84l-6.29 5.34v11H0zm34.13 0h4.73v30h-4.73zm36.32 0h4.73v30h-1.91L53.88 28.83v21.33h-4.73v-30h2.79l18.51 20.31zM117.56 44a20.11 20.11 0 0 1-15.84 7.16c-10.49 0-19-7.14-19-16s8.5-16 19-16a20.12 20.12 0 0 1 15.84 7.19l-4 2.76a15 15 0 0 0-11.8-5.24c-7.74 0-14 5.07-14 11.33s6.28 11.33 14 11.33a15.35 15.35 0 0 0 11.11-4.42v-3.42h-7.4v-4.74h12.09zm33.31-19.94c-5.23-.87-11-.16-10.52 4.2.38 3.21 6.11 2.86 8.31 3a37.3 37.3 0 0 1 5.77.66c2.94.61 6.1 1.79 7.93 4.3a7.85 7.85 0 0 1 1.49 5.25 9.71 9.71 0 0 1-2.8 6.38c-3.71 3.65-10 3.78-14.78 3a30.79 30.79 0 0 1-11.44-4l-.87-.58 2.43-4.06 1 .68a26.27 26.27 0 0 0 9.57 3.3c3.13.48 8.29.69 10.74-1.73a5.05 5.05 0 0 0 1.41-3.36 3.16 3.16 0 0 0-.55-2.19c-1.77-2.42-7.36-2.9-10.11-3l-1.89-.05c-3.13-.16-7.05-.49-9.29-3a6.66 6.66 0 0 1-1.61-4.77 8.23 8.23 0 0 1 2-5.24c3-3.44 8.4-3.9 12.63-3.47 3.45.35 8.22 1.54 10.94 3.79l.75.62-2.58 4a14.77 14.77 0 0 0-8.48-3.73zM59.04 61.15v15.47c0 4.16 4.14 4.49 7 4.49s7-.32 7-4.49V61.15h4.24v15.51c0 7-6 8-11.28 8s-11.28-1.07-11.28-8V61.15zm-23.6-.55c7.69 0 13.93 5.4 13.93 12.06s-6.24 12.05-13.93 12.05-13.93-5.4-13.93-12.06S27.74 60.6 35.44 60.6zm0 3.54c5.55 0 10 3.81 10 8.51s-4.5 8.51-10 8.51-10.05-3.81-10.05-8.51 4.5-8.51 10.05-8.51zm65.28-3h4.24v22.89h-2.24l-14.08-15.3v15.3H84.4V61.15h1.85l14.47 15.72zm42.34 0h21.18v3.8h-16.95v5h10.88v3.8h-10.88v6.52h17.82v3.8h-22.05zM127.2 75.31v-3.84h9.51v6.42a14.17 14.17 0 0 1-12.44 6.78c-7.69 0-13.93-5.4-13.93-12.06s6.22-12.01 13.93-12.01a14.45 14.45 0 0 1 12 5.94L133 68.47a10.47 10.47 0 0 0-8.73-4.29c-5.55 0-10 3.81-10 8.51s4.5 8.51 10 8.51a10.54 10.54 0 0 0 8.58-4.08v-1.81zM0 61.15h4.23v19.08h16.66v3.8H0z" fill="currentColor" fill-rule="evenodd"/>
		</symbol>
	
		<symbol id="mail-icon" viewBox="0 0 20.17 20.17">
			<path d="M19.58 6.52l-6-6a1.84 1.84 0 0 0-2.6 0L.58 11.04a1.84 1.84 0 0 0 0 2.6l6 6a1.84 1.84 0 0 0 2.6 0l10.4-10.52a1.84 1.84 0 0 0 0-2.6zm-12 12.38a.6.6 0 0 1-.24-.14l-6-6h6.24v6.13zm-5.81-7.32l9.81-9.81v9.51a.27.27 0 0 1-.27.27zm7.08 6.62v-5.43h2.43a1.49 1.49 0 0 0 1.49-1.49V8.84h5.39zm3.92-10.62V1.4l6 6a.6.6 0 0 1 .14.24zM.58 2.58h6.29a.6.6 0 1 0 0-1.19H.58a.6.6 0 1 0 0 1.19zM.58 4.94h3.95a.6.6 0 0 0 0-1.19H.58a.6.6 0 1 0 0 1.19zM.58 7.22h2.56a.6.6 0 0 0 0-1.19H.58a.6.6 0 1 0 0 1.19zM3.14 18.2H.58a.6.6 0 0 0 0 1.19h2.56a.6.6 0 0 0 0-1.19z" fill="currentColor"/>
		</symbol>
	
		<symbol id="menu-icon" viewBox="0 0 27 20.32">
			<path d="M25.65 19.96H7.6a1.35 1.35 0 0 1 0-2.69h18.05a1.35 1.35 0 0 1 0 2.69zM25.65 11.51H7.6a1.35 1.35 0 0 1 0-2.69h18.05a1.35 1.35 0 0 1 0 2.69zM25.65 3.05H7.6a1.35 1.35 0 0 1 0-2.69h18.05a1.35 1.35 0 0 1 0 2.69z" fill="currentColor"/><circle cx="1.81" cy="1.81" r="1.81"/><circle cx="1.81" cy="10.16" r="1.81"/><circle cx="1.81" cy="18.51" r="1.81"/>
		</symbol>
	
		<symbol id="placeholder-icon" viewBox="0 0 22.44 28">
			<g fill="currentColor"><path d="M11.43 0h-.41a11.35 11.35 0 0 0-11 11.29c0 7.83 8.72 15.07 10.46 16.44a1.22 1.22 0 0 0 1.51 0c1.75-1.37 10.46-8.6 10.46-16.44A11.35 11.35 0 0 0 11.43 0zm-.21 25.19c-2.35-2-8.77-8-8.77-13.89a8.89 8.89 0 0 1 8.71-8.85h.12a8.89 8.89 0 0 1 8.71 8.85c0 5.93-6.42 11.91-8.77 13.89z" fill="currentColor"/><path d="M11.3 5.67a5.17 5.17 0 1 0 5.17 5.17 5.17 5.17 0 0 0-5.17-5.17zm0 7.9a2.73 2.73 0 1 1 2.73-2.73 2.73 2.73 0 0 1-2.73 2.73z" fill="currentColor"/></g>
		</symbol>
	
		<symbol id="pswp-arrow-left-icon" viewBox="0 0 52 52">
			<circle cx="26" cy="26" r="26" fill="#bf890e"/><path d="M20.36 26.54l10.4 12.73a.56.56 0 0 0 .44.23.58.58 0 0 0 .44-.23.89.89 0 0 0 0-1.08L21.68 26l10-12.19a.89.89 0 0 0 0-1.08.55.55 0 0 0-.88 0L20.36 25.46a.88.88 0 0 0 0 1.08z" stroke="#000" stroke-miterlimit="10" stroke-width="2"/>
		</symbol>
	
		<symbol id="pswp-arrow-right-icon" viewBox="0 0 52 52">
			<circle cx="26" cy="26" r="26" fill="#bf890e"/><path d="M31.64 25.46L21.2 12.73a.55.55 0 0 0-.88 0 .89.89 0 0 0 0 1.08l10 12.19-10 12.19a.89.89 0 0 0 0 1.08.58.58 0 0 0 .44.23.56.56 0 0 0 .44-.23l10.4-12.73a.88.88 0 0 0 .04-1.08z" stroke="#000" stroke-miterlimit="10" stroke-width="2"/>
		</symbol>
	
		<symbol id="pswp-close-icon" viewBox="0 0 43.1 43.09">
			<path d="M25.36 21.55L42.31 4.6A2.694 2.694 0 1 0 38.5.79L21.55 17.74 4.6.79A2.694 2.694 0 0 0 .79 4.6l16.95 16.95L.79 38.5a2.694 2.694 0 1 0 3.81 3.81l16.95-16.95L38.5 42.31a2.694 2.694 0 0 0 3.81-3.81z" fill="currentColor"/>
		</symbol>
	
		<symbol id="pswp-expand-icon" viewBox="0 0 43.21 41.5">
			<path d="M8.18 4.69h2.8a2.34 2.34 0 0 0 0-4.68H2.51a2.35 2.35 0 0 0-.44 0l-.2.06-.27.11-.22.12-.18.1a2.29 2.29 0 0 0-.35.29L.79.75A2.33 2.33 0 0 0 0 2.53v8.46a2.34 2.34 0 0 0 4.68 0V7.81l7.92 7.94a2.34 2.34 0 0 0 3.31-3.31zM12.6 25.75l-7.9 7.9v-3.14a2.34 2.34 0 0 0-4.68 0v8.46a2.33 2.33 0 0 0 .77 1.78 2.35 2.35 0 0 0 .44.4l.17.09.23.12.23.07.2.06a2.33 2.33 0 0 0 .46 0h8.46a2.34 2.34 0 0 0 0-4.68h-2.8l7.72-7.72a2.348 2.348 0 0 0-3.3-3.34zM40.86 28.17a2.34 2.34 0 0 0-2.34 2.34v3.18l-7.92-7.94a2.34 2.34 0 0 0-3.31 3.31l7.72 7.72h-2.8a2.34 2.34 0 0 0 0 4.68h8.46a2.32 2.32 0 0 0 .46 0l.21-.06.23-.07.24-.13.16-.09a3.05 3.05 0 0 0 1.23-2.14v-8.46a2.34 2.34 0 0 0-2.34-2.34zM28.86 16.4a2.33 2.33 0 0 0 1.66-.65l7.9-7.9v3.18a2.34 2.34 0 1 0 4.68 0v-8.5a2.33 2.33 0 0 0-.78-1.78 2.35 2.35 0 0 0-.44-.4l-.17-.09-.24-.12-.23-.07-.21-.06a2.32 2.32 0 0 0-.46 0h-8.45a2.34 2.34 0 1 0 0 4.68h2.8l-7.72 7.72a2.34 2.34 0 0 0 1.66 4z" fill="currentColor"/>
		</symbol>
	
		<symbol id="pswp-minimize-icon" viewBox="0 0 43.21 41.5">
			<path d="M14.24 3.07a2.34 2.34 0 0 0-2.34 2.34v3.18L4 .69A2.344 2.344 0 0 0 .68 4l7.72 7.75H5.6a2.34 2.34 0 1 0 0 4.68h8.46a2.38 2.38 0 0 0 .46 0l.2-.06.24-.07.22-.12.18-.1a2.29 2.29 0 0 0 .34-.33l.07-.09a2.33 2.33 0 0 0 .83-1.8V5.41a2.34 2.34 0 0 0-2.36-2.34zM15.79 25.89a2.35 2.35 0 0 0-.44-.4l-.17-.1-.23-.12-.24-.07-.2-.06a2.33 2.33 0 0 0-.46 0H5.6a2.34 2.34 0 0 0 0 4.61h2.8L.68 37.5a2.34 2.34 0 1 0 3.31 3.31l7.9-7.9v3.18a2.34 2.34 0 0 0 4.68 0v-8.46a2.33 2.33 0 0 0-.78-1.74zM42.52 37.5l-7.72-7.75h2.8a2.34 2.34 0 1 0 0-4.68h-8.45a2.32 2.32 0 0 0-.46 0l-.21.06-.23.07-.24.13-.16.09a3.05 3.05 0 0 0-1.25 2.21v8.46a2.34 2.34 0 0 0 4.68 0v-3.18l7.91 7.9a2.34 2.34 0 0 0 3.31-3.31zM27.31 15.61a2.33 2.33 0 0 0 .44.4l.17.09.24.12.23.07.21.06a2.32 2.32 0 0 0 .46 0h8.46a2.34 2.34 0 1 0 0-4.68h-2.8l7.72-7.72A2.34 2.34 0 0 0 39.13.64l-7.9 7.9V5.41a2.34 2.34 0 1 0-4.68 0v8.46a2.33 2.33 0 0 0 .76 1.74z" fill="currentColor"/>
		</symbol>
	
		<symbol id="pswp-share-icon" viewBox="0 0 40.89 43.09">
			<path d="M33.12 27.55a7.73 7.73 0 0 0-5.68 2.56l-12.38-5.94a7.67 7.67 0 0 0 0-5.24L27.44 13a7.75 7.75 0 1 0-2-5.23 7.71 7.71 0 0 0 .1 1.2l-13.21 6.31a7.76 7.76 0 1 0 0 12.53l13.11 6.32a7.76 7.76 0 1 0 7.68-6.58zm0-23a3.18 3.18 0 1 1-2.34 5.32l-.64-.7-.15-.94a3.31 3.31 0 0 1 0-.49 3.18 3.18 0 0 1 3.13-3.19zm-22.37 18l-.31 1-.8.59a3.14 3.14 0 0 1-1.86.61 3.18 3.18 0 1 1 1.87-5.74l.79.54.32.91a3.19 3.19 0 0 1 .18 1.09 3.12 3.12 0 0 1-.19 1.07zm22.37 16a3.18 3.18 0 0 1-3.18-3.18 3.45 3.45 0 0 1 0-.5l.14-.93.65-.71a3.14 3.14 0 0 1 2.34-1 3.18 3.18 0 1 1 0 6.36z" fill="currentColor"/>
		</symbol>
	
		<symbol id="pswp-zoom-in-icon" viewBox="0 0 43.02 42.53">
			<path d="M22.44 16.79h-2.7v-2.7a1.7 1.7 0 1 0-3.4 0v2.7h-2.7a1.7 1.7 0 1 0 0 3.4h2.7v2.7a1.7 1.7 0 0 0 3.4 0v-2.7h2.7a1.7 1.7 0 0 0 0-3.4z" fill="currentColor"/><path d="M41.16 31.72l-6.55-6.56a18 18 0 1 0-8.77 9.1l6.37 6.37a6.364 6.364 0 1 0 9-9zm-2.4 6.54a2.93 2.93 0 0 1-4.14 0l-8.22-8.23a14.63 14.63 0 1 1 4-4.24l8.32 8.32a2.93 2.93 0 0 1 .04 4.15z" fill="currentColor"/>
		</symbol>
	
		<symbol id="pswp-zoom-out-icon" viewBox="0 0 43.02 42.53">
			<path d="M22.44 16.79h-8.8a1.7 1.7 0 0 0 0 3.4h8.81a1.7 1.7 0 1 0 0-3.4z" fill="currentColor"/><path d="M41.16 31.72l-6.56-6.56a18 18 0 1 0-8.76 9.1l6.37 6.37a6.364 6.364 0 1 0 9-9zm-2.4 6.54a2.93 2.93 0 0 1-4.14 0l-8.22-8.22a14.63 14.63 0 1 1 4-4.24l8.32 8.33a2.92 2.92 0 0 1 .04 4.13z" fill="currentColor"/>
		</symbol>
	
		<symbol id="service-icon" viewBox="0 0 57.79 74.68">
			<path d="M50.59 0H31.12a2.22 2.22 0 0 0-2.23 2.22v1.54a7.5 7.5 0 0 0 5.26 7.15v3.32a6.7 6.7 0 0 0 4.47 6.31v2.09a15 15 0 0 1 4.44 0v-2.1a6.7 6.7 0 0 0 4.47-6.31V10.9a7.5 7.5 0 0 0 5.26-7.15V2.22A2.22 2.22 0 0 0 50.59 0zM19.89 26.06a8.83 8.83 0 0 0-2.56 6.93 101.92 101.92 0 0 1 .09 15c-.66 8.22-2.49 11.78-3.92 13.31a4.14 4.14 0 0 1-3.21 1.46c-1.32 0-5.34 0-5.77-10.46a39.85 39.85 0 0 1 .9-10.09l2.41-11.33.77.17a2.235 2.235 0 1 0 .94-4.37l-.77-.17 3.94-18.15a2.22 2.22 0 0 0-4.34-.94L4.44 25.6l-.82-.18a2.22 2.22 0 1 0-.94 4.34l.82.18-2.47 11.32a44.28 44.28 0 0 0-1 11.22c.18 4.33.94 7.62 2.32 10a8.68 8.68 0 0 0 7.89 4.67 8.53 8.53 0 0 0 6.46-2.88c6-6.43 5.68-22.58 5-31.64a4.4 4.4 0 0 1 1.27-3.45 4.4 4.4 0 0 1 5.67-.46 15.11 15.11 0 0 1 3.1-3.2 8.84 8.84 0 0 0-11.85.54zM53.27 53.49a10.59 10.59 0 0 0 1.12-4.74 11 11 0 0 0-3.53-8 10.54 10.54 0 1 0-20 0 11 11 0 0 0-3.53 8 10.59 10.59 0 0 0 1.12 4.74 13.44 13.44 0 0 0 .7 20.67 2.22 2.22 0 0 0 1.42.51h20.58a2.22 2.22 0 0 0 1.42-.51 13.43 13.43 0 0 0 .7-20.67z" fill="currentColor"/>
		</symbol>
	
		<symbol id="up-icon" viewBox="0 0 16.05 29.37">
			<path d="M2.02 10.01a2 2 0 0 0 1.42-.59L5.96 6.9v20.45a2 2 0 1 0 4 0V6.77l2.65 2.65a2.008 2.008 0 0 0 2.84-2.84l-6-6A2 2 0 0 0 8.02 0 2 2 0 0 0 6.6.59l-6 6a2 2 0 0 0 1.42 3.42z" fill="currentColor"/>
		</symbol>
	
		<symbol id="vip-icon" viewBox="0 0 75.27 72">
			<g fill="currentColor"><path d="M47.43 36h-1.64v3.27h1.64a1.64 1.64 0 1 0 0-3.27z" fill="currentColor"/><path d="M75.18 27.29a1.64 1.64 0 0 0-1.34-1.1l-23.7-3.14L39.09.9a1.63 1.63 0 0 0-2.93 0L25.11 23.05 1.42 26.19A1.64 1.64 0 0 0 .47 29l17.39 17.35L13.12 70a1.64 1.64 0 0 0 2.34 1.79l22.17-11.05 22.18 11.09A1.64 1.64 0 0 0 62.15 70l-4.74-23.64L74.79 29a1.65 1.65 0 0 0 .39-1.71zM34.23 35l-4.91 13.05a1.64 1.64 0 0 1-3.06 0L21.35 35a1.64 1.64 0 1 1 3.06-1.15l3.38 9 3.38-9A1.64 1.64 0 1 1 34.23 35zm5 12.51a1.64 1.64 0 0 1-3.27 0V34.38a1.64 1.64 0 0 1 3.27 0zm8.18-4.91h-1.62v4.91a1.64 1.64 0 0 1-3.27 0V34.38a1.64 1.64 0 0 1 1.64-1.64h3.27a4.91 4.91 0 0 1 0 9.82z" fill="currentColor"/></g>
		</symbol>
	
		<symbol id="vk-icon" viewBox="0 0 112.2 112.2">
			<path d="M56.1 0a56.1 56.1 0 1 0 56.1 56.1A56.1 56.1 0 0 0 56.1 0zm32.15 80.7l-9.84.14s-2.12.42-4.9-1.49c-3.68-2.53-7.1-9.11-9.85-8.24S61 77.89 61 77.89a3.22 3.22 0 0 1-.6 1.93 3.71 3.71 0 0 1-2 .88H54s-9.74.59-18.33-8.32c-9.33-9.72-17.57-29-17.57-29s-.58-1.15 0-1.88 2.16-.73 2.16-.73l10.52-.07a4.59 4.59 0 0 1 1.7.69 3.29 3.29 0 0 1 .91 1.23 70.62 70.62 0 0 0 4 8.19c4.4 7.6 6.45 9.26 7.94 8.45 2.17-1.19 1.52-10.74 1.52-10.74s0-3.46-1.1-5a5 5 0 0 0-3.27-1.64c-.59-.07.38-1.45 1.64-2.07 1.89-.94 5.19-.94 9.19-.94a18.91 18.91 0 0 1 5.17.51c3.63.88 2.4 4.26 2.4 12.38 0 2.6-.46 6.26 1.41 7.47.81.52 2.78.08 7.71-8.3a64.13 64.13 0 0 0 4.13-8.63 3.1 3.1 0 0 1 1-1.19 2.51 2.51 0 0 1 1.43-.25l11.08-.07s3.31-.48 3.87 1.1-1.24 5.29-5.77 11.29c-7.43 9.9-8.26 9-2.09 14.7 5.89 5.46 7.11 8.12 7.35 8.46 2.4 4.04-2.75 4.36-2.75 4.36z" fill="currentColor"/>
		</symbol>
	
</svg>
