<svg id="Layer_1" data-name="Layer 1" xmlns="http://www.w3.org/2000/svg" viewBox="0 0 154.98 21">
  <title>wave-pattern</title>
  <path d="M26,9.5c7.76,0,11.76,4.54,15,8.18,2.87,3.25,5.13,5.82,9.73,5.82s6.87-2.57,9.73-5.82c3.22-3.65,7.22-8.18,15-8.18s11.76,4.54,15,8.18c2.87,3.25,5.13,5.82,9.73,5.82s6.86-2.57,9.73-5.82c3.22-3.65,7.22-8.18,15-8.18s11.76,4.54,15,8.18c2.87,3.25,5.13,5.82,9.73,5.82a3.5,3.5,0,1,1,0,7c-7.76,0-11.76-4.54-15-8.18-2.87-3.25-5.13-5.82-9.73-5.82s-6.86,2.57-9.73,5.82c-3.22,3.65-7.22,8.18-15,8.18s-11.76-4.54-15-8.18C82.3,19.07,80,16.5,75.44,16.5s-6.87,2.57-9.73,5.82c-3.22,3.65-7.22,8.18-15,8.18S39,26,35.74,22.32C32.87,19.07,30.61,16.5,26,16.5a3.5,3.5,0,1,1,0-7Z" transform="translate(-22.51 -9.5)" style="fill: #bf890e"/>
  <path d="M174,9.5c-7.76,0-11.76,4.54-15,8.18-2.87,3.25-5.13,5.82-9.73,5.82s-6.87-2.57-9.73-5.82c-3.22-3.65-7.22-8.18-15-8.18s-11.76,4.54-15,8.18c-2.87,3.25-5.13,5.82-9.73,5.82S93,20.93,90.12,17.68C86.9,14,82.89,9.5,75.14,9.5s-11.76,4.54-15,8.18C57.29,20.93,55,23.5,50.42,23.5a3.5,3.5,0,0,0,0,7c7.76,0,11.76-4.54,15-8.18,2.87-3.25,5.13-5.82,9.73-5.82s6.86,2.57,9.73,5.82c3.22,3.65,7.22,8.18,15,8.18s11.76-4.54,15-8.18c2.87-3.25,5.13-5.82,9.73-5.82s6.87,2.57,9.73,5.82c3.22,3.65,7.22,8.18,15,8.18s11.76-4.54,15-8.18c2.87-3.25,5.13-5.82,9.73-5.82a3.5,3.5,0,0,0,0-7Z" transform="translate(-22.51 -9.5)" style="fill: #bf890e"/>
</svg>
