<svg id="Layer_1" data-name="Layer 1" xmlns="http://www.w3.org/2000/svg" viewBox="0 0 25.45 28">
  <title>advantages-icon</title>
  <path d="M22.68,9.38H21.45c.59-1.65,1.17-4.07.39-6a4,4,0,0,0-2.52-2.3A2.19,2.19,0,0,0,18.64,1c-1.55,0-3,1.51-5,5.4a14.45,14.45,0,0,1-3.18,4,6.47,6.47,0,0,0-1,1,3.94,3.94,0,0,0-7.21,2.19V25.06a3.94,3.94,0,0,0,7.31,2A5,5,0,0,0,13.5,29h9.65c4,0,4.58-2.57,4.58-4.1V14.43A5.06,5.06,0,0,0,22.68,9.38Zm-15,15.68a1.43,1.43,0,1,1-2.85,0V13.62a1.43,1.43,0,1,1,2.85,0Zm17.57-.19c0,.93-.15,1.59-2.06,1.59H13.5A2.54,2.54,0,0,1,11,23.92v-9.6a2.64,2.64,0,0,1,1.12-2,17.14,17.14,0,0,0,3.78-4.76c1.73-3.28,2.56-3.92,2.78-4a1.4,1.4,0,0,1,.87.83c.54,1.32-.14,3.86-1.09,5.69l-1,1.84h5.21a2.54,2.54,0,0,1,2.54,2.54Z" transform="translate(-2.27 -1)"/>
</svg>
