<svg xmlns="http://www.w3.org/2000/svg" viewBox="0 0 186.18 209.53">
  <title>building-pattern</title>
  <g id="ground">
    <g id="ground-2" data-name="ground">
      <g class="building-pattern__ground">
        <polygon points="93.09 102.04 186.18 155.79 93.09 209.53 0 155.79 93.09 102.04" style="fill: #dae3f0"/>
        <polygon points="93.09 98.33 186.18 152.08 93.09 205.82 0 152.08 93.09 98.33" style="fill: #e8a82b"/>
        <polygon points="0 152.08 0 155.79 93.09 209.53 93.09 205.82 0 152.08" style="fill: #d69513"/>
        <polygon points="186.18 152.08 186.18 155.79 93.09 209.53 93.09 205.82 186.18 152.08" style="fill: #bf890e"/>
      </g>
    </g>
  </g>
  <g id="main">
    <g id="main-2" data-name="main" class="building-pattern__main">
      <polygon points="70.77 143.05 102.51 161.43 76.29 176.72 44.55 158.34 70.77 143.05" style="fill: #edd07e"/>
      <polygon points="135.88 151.02 160.15 137.07 117.52 112.15 93 126.3 135.88 151.02" style="fill: #bf890e"/>
      <polygon points="93.09 57.13 93.09 175.72 135.88 151.02 135.88 32.42 93.09 57.13" style="fill: #bf890e"/>
      <polygon points="93.09 7.71 135.88 32.42 93.09 57.13 50.29 32.42 93.09 7.71" style="fill: #f0f6ff"/>
      <polygon points="93.09 7.71 135.88 32.42 93.09 57.13 50.29 32.42 93.09 7.71" style="fill: #db951b"/>
      <polygon points="132.03 159.88 156.3 145.94 113.67 121.02 89.15 135.17 132.03 159.88" style="fill: #bf890e"/>
      <polygon points="93.09 57.13 50.29 32.42 50.29 151.02 93.09 175.72 93.09 57.13" style="fill: #ce921b"/>
    </g>
  </g>
  <g id="left">
    <g id="left-2" data-name="left" class="building-pattern__left">
      <polygon points="93.09 57.13 50.29 32.42 50.29 151.02 93.09 175.72 93.09 57.13" style="fill: #f7c263"/>
      <g>
        <g>
          <polygon points="55.69 49.9 55.69 54.84 59.97 57.31 59.97 52.37 55.69 49.9" style="fill: #e8a82b"/>
          <polygon points="59.97 57.31 59.97 53.3 56.41 51.24 56.41 55.26 59.97 57.31" style="fill: #e8a82b"/>
          <polygon points="64.25 54.87 64.25 59.81 68.53 62.28 68.53 57.34 64.25 54.87" style="fill: #e8a82b"/>
          <polygon points="68.53 62.28 68.53 58.27 64.97 56.21 64.97 60.22 68.53 62.28" style="fill: #e8a82b"/>
          <g>
            <polygon points="72.81 59.81 72.81 64.76 77.08 67.23 77.08 62.29 72.81 59.81" style="fill: #e8a82b"/>
            <polygon points="77.08 67.23 77.08 63.22 73.53 61.16 73.53 65.17 77.08 67.23" style="fill: #e8a82b"/>
          </g>
          <g>
            <polygon points="81.36 64.78 81.36 69.73 85.64 72.2 85.64 67.25 81.36 64.78" style="fill: #e8a82b"/>
            <polygon points="85.64 72.2 85.64 68.19 82.09 66.13 82.09 70.14 85.64 72.2" style="fill: #e8a82b"/>
          </g>
        </g>
        <g>
          <polygon points="55.69 59.81 55.69 64.76 59.97 67.23 59.97 62.29 55.69 59.81" style="fill: #e8a82b"/>
          <polygon points="59.97 67.23 59.97 63.22 56.41 61.16 56.41 65.17 59.97 67.23" style="fill: #e8a82b"/>
          <polygon points="64.25 64.78 64.25 69.73 68.53 72.2 68.53 67.25 64.25 64.78" style="fill: #e8a82b"/>
          <polygon points="68.53 72.2 68.53 68.19 64.97 66.13 64.97 70.14 68.53 72.2" style="fill: #e8a82b"/>
          <g>
            <polygon points="72.81 69.73 72.81 74.68 77.08 77.15 77.08 72.21 72.81 69.73" style="fill: #e8a82b"/>
            <polygon points="77.08 77.15 77.08 73.14 73.53 71.08 73.53 75.09 77.08 77.15" style="fill: #e8a82b"/>
          </g>
          <g>
            <polygon points="81.36 74.7 81.36 79.64 85.64 82.12 85.64 77.17 81.36 74.7" style="fill: #e8a82b"/>
            <polygon points="85.64 82.12 85.64 78.11 82.09 76.05 82.09 80.06 85.64 82.12" style="fill: #e8a82b"/>
          </g>
        </g>
        <g>
          <polygon points="55.69 69.73 55.69 74.68 59.97 77.15 59.97 72.21 55.69 69.73" style="fill: #e8a82b"/>
          <polygon points="59.97 77.15 59.97 73.14 56.41 71.08 56.41 75.09 59.97 77.15" style="fill: #e8a82b"/>
          <polygon points="64.25 74.7 64.25 79.64 68.53 82.12 68.53 77.17 64.25 74.7" style="fill: #e8a82b"/>
          <polygon points="68.53 82.12 68.53 78.11 64.97 76.05 64.97 80.06 68.53 82.12" style="fill: #e8a82b"/>
          <g>
            <polygon points="72.81 79.66 72.81 84.6 77.08 87.07 77.08 82.13 72.81 79.66" style="fill: #e8a82b"/>
            <polygon points="77.08 87.07 77.08 83.06 73.53 81 73.53 85.01 77.08 87.07" style="fill: #e8a82b"/>
          </g>
          <g>
            <polygon points="81.36 84.62 81.36 89.56 85.64 92.04 85.64 87.09 81.36 84.62" style="fill: #e8a82b"/>
            <polygon points="85.64 92.04 85.64 88.02 82.09 85.97 82.09 89.98 85.64 92.04" style="fill: #e8a82b"/>
          </g>
        </g>
        <g>
          <polygon points="55.69 79.66 55.69 84.6 59.97 87.07 59.97 82.13 55.69 79.66" style="fill: #e8a82b"/>
          <polygon points="59.97 87.07 59.97 83.06 56.41 81 56.41 85.01 59.97 87.07" style="fill: #e8a82b"/>
          <polygon points="64.25 84.62 64.25 89.56 68.53 92.04 68.53 87.09 64.25 84.62" style="fill: #e8a82b"/>
          <polygon points="68.53 92.04 68.53 88.02 64.97 85.97 64.97 89.98 68.53 92.04" style="fill: #e8a82b"/>
          <g>
            <polygon points="72.81 89.57 72.81 94.52 77.08 96.99 77.08 92.05 72.81 89.57" style="fill: #e8a82b"/>
            <polygon points="77.08 96.99 77.08 92.97 73.53 90.92 73.53 94.93 77.08 96.99" style="fill: #e8a82b"/>
          </g>
          <g>
            <polygon points="81.36 94.54 81.36 99.48 85.64 101.95 85.64 97.01 81.36 94.54" style="fill: #e8a82b"/>
            <polygon points="85.64 101.95 85.64 97.94 82.09 95.89 82.09 99.9 85.64 101.95" style="fill: #e8a82b"/>
          </g>
        </g>
        <g>
          <polygon points="55.69 89.57 55.69 94.52 59.97 96.99 59.97 92.05 55.69 89.57" style="fill: #e8a82b"/>
          <polygon points="59.97 96.99 59.97 92.97 56.41 90.92 56.41 94.93 59.97 96.99" style="fill: #e8a82b"/>
          <polygon points="64.25 94.54 64.25 99.48 68.53 101.95 68.53 97.01 64.25 94.54" style="fill: #e8a82b"/>
          <polygon points="68.53 101.95 68.53 97.94 64.97 95.89 64.97 99.9 68.53 101.95" style="fill: #e8a82b"/>
          <g>
            <polygon points="72.81 99.49 72.81 104.44 77.08 106.91 77.08 101.97 72.81 99.49" style="fill: #e8a82b"/>
            <polygon points="77.08 106.91 77.08 102.89 73.53 100.84 73.53 104.85 77.08 106.91" style="fill: #e8a82b"/>
          </g>
          <g>
            <polygon points="81.36 104.46 81.36 109.4 85.64 111.88 85.64 106.93 81.36 104.46" style="fill: #e8a82b"/>
            <polygon points="85.64 111.88 85.64 107.86 82.09 105.81 82.09 109.82 85.64 111.88" style="fill: #e8a82b"/>
          </g>
        </g>
        <g>
          <polygon points="55.69 99.49 55.69 104.44 59.97 106.91 59.97 101.97 55.69 99.49" style="fill: #e8a82b"/>
          <polygon points="59.97 106.91 59.97 102.89 56.41 100.84 56.41 104.85 59.97 106.91" style="fill: #e8a82b"/>
          <polygon points="64.25 104.46 64.25 109.4 68.53 111.88 68.53 106.93 64.25 104.46" style="fill: #e8a82b"/>
          <polygon points="68.53 111.88 68.53 107.86 64.97 105.81 64.97 109.82 68.53 111.88" style="fill: #e8a82b"/>
          <g>
            <polygon points="72.81 109.41 72.81 114.36 77.08 116.83 77.08 111.89 72.81 109.41" style="fill: #e8a82b"/>
            <polygon points="77.08 116.83 77.08 112.81 73.53 110.76 73.53 114.77 77.08 116.83" style="fill: #e8a82b"/>
          </g>
          <g>
            <polygon points="81.36 114.38 81.36 119.32 85.64 121.8 85.64 116.85 81.36 114.38" style="fill: #e8a82b"/>
            <polygon points="85.64 121.8 85.64 117.78 82.09 115.73 82.09 119.74 85.64 121.8" style="fill: #e8a82b"/>
          </g>
        </g>
        <g>
          <polygon points="55.69 109.41 55.69 114.36 59.97 116.83 59.97 111.89 55.69 109.41" style="fill: #e8a82b"/>
          <polygon points="59.97 116.83 59.97 112.81 56.41 110.76 56.41 114.77 59.97 116.83" style="fill: #e8a82b"/>
          <polygon points="64.25 114.38 64.25 119.32 68.53 121.8 68.53 116.85 64.25 114.38" style="fill: #e8a82b"/>
          <polygon points="68.53 121.8 68.53 117.78 64.97 115.73 64.97 119.74 68.53 121.8" style="fill: #e8a82b"/>
          <g>
            <polygon points="72.81 119.33 72.81 124.28 77.08 126.75 77.08 121.8 72.81 119.33" style="fill: #e8a82b"/>
            <polygon points="77.08 126.75 77.08 122.73 73.53 120.68 73.53 124.69 77.08 126.75" style="fill: #e8a82b"/>
          </g>
          <g>
            <polygon points="81.36 124.3 81.36 129.24 85.64 131.72 85.64 126.77 81.36 124.3" style="fill: #e8a82b"/>
            <polygon points="85.64 131.71 85.64 127.7 82.09 125.65 82.09 129.66 85.64 131.71" style="fill: #e8a82b"/>
          </g>
        </g>
        <g>
          <polygon points="55.69 119.33 55.69 124.28 59.97 126.75 59.97 121.8 55.69 119.33" style="fill: #e8a82b"/>
          <polygon points="59.97 126.75 59.97 122.73 56.41 120.68 56.41 124.69 59.97 126.75" style="fill: #e8a82b"/>
          <polygon points="64.25 124.3 64.25 129.24 68.53 131.72 68.53 126.77 64.25 124.3" style="fill: #e8a82b"/>
          <polygon points="68.53 131.71 68.53 127.7 64.97 125.65 64.97 129.66 68.53 131.71" style="fill: #e8a82b"/>
          <g>
            <polygon points="72.81 129.25 72.81 134.19 77.08 136.66 77.08 131.72 72.81 129.25" style="fill: #e8a82b"/>
            <polygon points="77.08 136.66 77.08 132.65 73.53 130.6 73.53 134.61 77.08 136.66" style="fill: #e8a82b"/>
          </g>
          <g>
            <polygon points="81.36 134.22 81.36 139.16 85.64 141.63 85.64 136.69 81.36 134.22" style="fill: #e8a82b"/>
            <polygon points="85.64 141.63 85.64 137.62 82.09 135.57 82.09 139.58 85.64 141.63" style="fill: #e8a82b"/>
          </g>
        </g>
      </g>
      <g>
        <polygon points="67.61 141.26 56.67 134.96 56.67 154.69 67.61 161.01 67.61 141.26" style="fill: #bf890e"/>
        <polygon points="69.68 142.45 69.68 162.2 82.39 169.55 82.39 149.78 69.68 142.45" style="fill: #bf890e"/>
      </g>
      <g>
        <polygon points="67.61 161.01 67.61 142.88 57.83 137.24 57.83 155.35 67.61 161.01" style="fill: #e8a82b"/>
        <polygon points="82.39 169.55 82.39 151.4 70.83 144.74 70.83 162.87 82.39 169.55" style="fill: #e8a82b"/>
      </g>
    </g>
  </g>
  <g id="right">
    <g id="right-2" data-name="right" class="building-pattern__right">
      <polygon points="93.09 57.13 93.09 175.72 135.88 151.02 135.88 32.42 93.09 57.13" style="fill: #f9d285"/>
      <g>
        <polygon points="130.09 49.9 130.09 54.84 125.81 57.31 125.81 52.37 130.09 49.9" style="fill: #e8a82b"/>
        <polygon points="125.81 57.31 125.81 53.3 129.37 51.24 129.37 55.26 125.81 57.31" style="fill: #e8a82b"/>
        <polygon points="121.53 54.87 121.53 59.81 117.25 62.28 117.25 57.34 121.53 54.87" style="fill: #e8a82b"/>
        <polygon points="117.25 62.28 117.25 58.27 120.81 56.21 120.81 60.22 117.25 62.28" style="fill: #e8a82b"/>
        <g>
          <polygon points="112.97 59.81 112.97 64.76 108.7 67.23 108.7 62.29 112.97 59.81" style="fill: #e8a82b"/>
          <polygon points="108.7 67.23 108.7 63.22 112.25 61.16 112.25 65.17 108.7 67.23" style="fill: #e8a82b"/>
        </g>
        <g>
          <polygon points="104.42 64.78 104.42 69.73 100.14 72.2 100.14 67.25 104.42 64.78" style="fill: #e8a82b"/>
          <polygon points="100.14 72.2 100.14 68.19 103.69 66.13 103.69 70.14 100.14 72.2" style="fill: #e8a82b"/>
        </g>
      </g>
      <g>
        <polygon points="130.09 59.81 130.09 64.76 125.81 67.23 125.81 62.29 130.09 59.81" style="fill: #e8a82b"/>
        <polygon points="125.81 67.23 125.81 63.22 129.37 61.16 129.37 65.17 125.81 67.23" style="fill: #e8a82b"/>
        <polygon points="121.53 64.78 121.53 69.73 117.25 72.2 117.25 67.25 121.53 64.78" style="fill: #e8a82b"/>
        <polygon points="117.25 72.2 117.25 68.19 120.81 66.13 120.81 70.14 117.25 72.2" style="fill: #e8a82b"/>
        <g>
          <polygon points="112.97 69.73 112.97 74.68 108.7 77.15 108.7 72.21 112.97 69.73" style="fill: #e8a82b"/>
          <polygon points="108.7 77.15 108.7 73.14 112.25 71.08 112.25 75.09 108.7 77.15" style="fill: #e8a82b"/>
        </g>
        <g>
          <polygon points="104.42 74.7 104.42 79.64 100.14 82.12 100.14 77.17 104.42 74.7" style="fill: #e8a82b"/>
          <polygon points="100.14 82.12 100.14 78.11 103.69 76.05 103.69 80.06 100.14 82.12" style="fill: #e8a82b"/>
        </g>
      </g>
      <polygon points="105.6 99.5 105.6 175.14 132.89 159.38 132.89 83.74 105.6 99.5" style="fill: #f9d285"/>
      <polygon points="105.6 99.5 99.87 96.2 99.87 171.84 105.6 175.14 105.6 99.5" style="fill: #f7c263"/>
      <polygon points="127.14 80.45 132.86 83.75 105.6 99.49 99.87 96.19 127.14 80.45" style="fill: #f7c263"/>
      <polygon points="102.48 94.68 114.37 94.43 132.89 83.75 127.14 80.45 102.48 94.68" style="fill: #e8a82b"/>
    </g>
  </g>
  <g id="roof">
    <g id="roof-2" data-name="roof" class="building-pattern__roof">
      <polygon points="93.09 7.77 135.84 32.45 93.09 57.13 50.34 32.45 93.09 7.77" style="fill: #f7c263"/>
      <g>
        <polygon points="93.09 11.41 93.09 11.41 103.78 17.59 93.09 11.41" style="fill: #e8a82b"/>
        <polygon points="56.59 35.51 93.09 14.44 129.59 35.51 132.68 34.27 103.78 17.59 93.09 11.41 78.84 19.64 53.5 34.27 56.59 35.51" style="fill: #e8a82b"/>
      </g>
      <path d="M150,56.57l36.57,21.11L150,98.8,113.43,77.68,150,56.57M150,53,107.25,77.68,150,102.36l42.75-24.68L150,53Z" transform="translate(-56.91 -45.23)" style="fill: #ffeac5"/>
      <polygon points="93.09 31.41 93.09 48.25 119.17 33.19 119.17 16.35 93.09 31.41" style="fill: #f9d285"/>
      <polygon points="93.09 31.41 67 16.35 67 33.19 93.09 48.25 93.09 31.41" style="fill: #f7c263"/>
      <polygon points="93.09 1.29 119.17 16.35 93.09 31.41 67 16.35 93.09 1.29" style="fill: #f7c263"/>
      <g>
        <polygon points="93.09 3.47 93.09 3.47 99.61 7.24 93.09 3.47" style="fill: #e8a82b"/>
        <polygon points="70.89 18.54 93.09 5.72 115.37 18.58 117.25 17.42 99.61 7.24 93.09 3.47 84.4 8.49 68.94 17.42 70.89 18.54" style="fill: #e8a82b"/>
      </g>
      <path d="M150,48.7l22.32,12.88L150,74.47,127.68,61.59,150,48.7m0-2.18L123.91,61.59,150,76.65l26.09-15.06L150,46.53Z" transform="translate(-56.91 -45.23)" style="fill: #ffeac5"/>
      <polygon points="93.09 16.04 93.09 25 106.98 16.98 106.98 8.02 93.09 16.04" style="fill: #f9d285"/>
      <polygon points="93.09 16.04 79.2 8.02 79.2 16.98 93.09 25 93.09 16.04" style="fill: #f7c263"/>
      <polygon points="93.09 0 106.98 8.02 93.09 16.04 79.2 8.02 93.09 0" style="fill: #f7c263"/>
      <g>
        <polygon points="93.09 1.17 93.09 1.17 96.56 3.17 93.09 1.17" style="fill: #e8a82b"/>
        <polygon points="81.23 9.18 93.09 2.33 104.95 9.18 105.95 8.6 96.56 3.17 93.09 1.17 88.46 3.84 80.23 8.6 81.23 9.18" style="fill: #e8a82b"/>
      </g>
      <path d="M150,46.39l11.88,6.86L150,60.11l-11.88-6.86L150,46.39m0-1.16-13.89,8,13.89,8,13.89-8-13.89-8Z" transform="translate(-56.91 -45.23)" style="fill: #ffeac5"/>
    </g>
  </g>
</svg>
