<svg id="Layer_1" data-name="Layer 1" xmlns="http://www.w3.org/2000/svg" viewBox="0 0 30.56 30.49">
  <title>call-icon</title>
  <path d="M34.6,28.87l-4.72-4.72a2.46,2.46,0,0,0-3.47.07L24,26.59l-.47-.26a23.66,23.66,0,0,1-5.72-4.14,23.8,23.8,0,0,1-4.15-5.73L13.44,16,15,14.41l.78-.79a2.46,2.46,0,0,0,.06-3.47L11.16,5.44a2.46,2.46,0,0,0-3.47.07L6.36,6.84l0,0A7.69,7.69,0,0,0,5.3,8.81a8,8,0,0,0-.49,2c-.62,5.17,1.74,9.89,8.15,16.3,8.86,8.86,16,8.19,16.3,8.16a8,8,0,0,0,2-.49,7.67,7.67,0,0,0,1.93-1.09l0,0,1.35-1.32A2.46,2.46,0,0,0,34.6,28.87Z" transform="translate(-4.72 -4.75)"/>
</svg>
