<svg id="Layer_1" data-name="Layer 1" xmlns="http://www.w3.org/2000/svg" viewBox="0 0 13.42 28">
  <title>contact-icon</title>
  <g>
    <path d="M21,24.34a1.08,1.08,0,0,0-1.14-.14,5,5,0,0,1-.72.23,3.17,3.17,0,0,1-.81.13,2.3,2.3,0,0,1-.74-.09,1.51,1.51,0,0,1-.05-.45,5.57,5.57,0,0,1,.11-.91,11.49,11.49,0,0,1,.27-1.19l1.32-4.69a8.29,8.29,0,0,0,.31-1.64c.05-.55.08-.93.08-1.19a4.14,4.14,0,0,0-1.4-3.22A5.36,5.36,0,0,0,14.51,10a8.61,8.61,0,0,0-2.59.43c-.82.26-1.69.58-2.59.94a1.08,1.08,0,0,0-.64.74l-.36,1.46a1.08,1.08,0,0,0,1.42,1.27c.26-.1.55-.19.87-.28a2.69,2.69,0,0,1,.76-.12,2.33,2.33,0,0,1,.67.07,1.63,1.63,0,0,1,.05.47,4.55,4.55,0,0,1-.1.9c-.07.37-.17.77-.28,1.2l-1.34,4.72v0c-.13.53-.22,1-.28,1.44a9.61,9.61,0,0,0-.09,1.3,4.11,4.11,0,0,0,1.44,3.21A5.48,5.48,0,0,0,15.16,29a7.84,7.84,0,0,0,2.57-.39c.66-.23,1.53-.56,2.6-1a1.08,1.08,0,0,0,.65-.75l.36-1.46A1.08,1.08,0,0,0,21,24.34Zm-3.6-8.94a6.22,6.22,0,0,1-.23,1.23l-1.33,4.7a13.54,13.54,0,0,0-.32,1.4A7.58,7.58,0,0,0,15.35,24a2.58,2.58,0,0,0,.82,2.12,2.37,2.37,0,0,0,.86.43h0a5.72,5.72,0,0,1-1.86.27,3.42,3.42,0,0,1-2.3-.68,2,2,0,0,1-.71-1.59,7.48,7.48,0,0,1,.07-1c0-.35.13-.76.24-1.21l1.33-4.72c.13-.5.23-.94.31-1.35A6.69,6.69,0,0,0,14.25,15a2.71,2.71,0,0,0-.71-2,2.15,2.15,0,0,0-.86-.48,6.37,6.37,0,0,1,1.83-.29,3.32,3.32,0,0,1,2.25.66,2,2,0,0,1,.68,1.61C17.44,14.51,17.43,14.77,17.38,15.4Z" transform="translate(-8.29 -1)"/>
    <path d="M17.46,9.1a4.22,4.22,0,0,0,3-1.15,3.85,3.85,0,0,0,1.27-2.89,3.84,3.84,0,0,0-1.27-2.89,4.4,4.4,0,0,0-6,0,3.9,3.9,0,0,0,0,5.78A4.26,4.26,0,0,0,17.46,9.1ZM15.95,3.74a2.1,2.1,0,0,1,1.52-.58,2.07,2.07,0,0,1,1.5.58,1.71,1.71,0,0,1,.59,1.32A1.68,1.68,0,0,1,19,6.36a2.08,2.08,0,0,1-1.5.58,2.12,2.12,0,0,1-1.52-.58,1.67,1.67,0,0,1-.59-1.3A1.7,1.7,0,0,1,15.95,3.74Z" transform="translate(-8.29 -1)"/>
  </g>
</svg>
