<svg id="Layer_1" data-name="Layer 1" xmlns="http://www.w3.org/2000/svg" viewBox="0 0 20.25 19.04">
  <title>coords-icon</title>
  <g>
    <path d="M15.53,11.7c-.28.54-.55,1-.8,1.42,2.74.58,4.31,1.65,4.31,2.49,0,1.21-3.25,2.9-8.54,2.9S2,16.82,2,15.61c0-.84,1.55-1.9,4.25-2.48-.25-.4-.52-.88-.8-1.41-2.86.7-5,2-5,3.89,0,2.91,5.22,4.48,10.13,4.48s10.13-1.57,10.13-4.48C20.63,13.71,18.42,12.39,15.53,11.7Z" transform="translate(-0.38 -1.05)"/>
    <path d="M10.46,15.84c1.05,0,5.17-5.43,5.17-9.13,0-2.58-1.21-5.66-5.17-5.66S5.29,4.13,5.29,6.71C5.29,10.45,9.47,15.84,10.46,15.84Zm-2.4-9.7a2.4,2.4,0,1,1,2.4,2.4A2.4,2.4,0,0,1,8.06,6.15Z" transform="translate(-0.38 -1.05)"/>
  </g>
</svg>
