<svg id="Layer_1" data-name="Layer 1" xmlns="http://www.w3.org/2000/svg" viewBox="0 0 72.08 58">
  <title>food-icon</title>
  <path d="M46.15,19.79A23.87,23.87,0,1,0,70,43.66,23.87,23.87,0,0,0,46.15,19.79Zm0,42A18.11,18.11,0,1,1,64.26,43.66,18.13,18.13,0,0,1,46.15,61.77Z" transform="translate(-8.96 -16)" style="fill: #ffda00"/>
  <path d="M46.15,30.4A13.26,13.26,0,1,0,59.41,43.66,13.27,13.27,0,0,0,46.15,30.4Z" transform="translate(-8.96 -16)" style="fill: #ffda00"/>
  <path d="M79.54,45.66v-29a.65.65,0,0,0-1.17-.39,27.45,27.45,0,0,0-5.58,16.59V43.46a2.2,2.2,0,0,0,2.2,2.2h.92C75,55,74.4,68.1,74.4,69.63,74.4,72,75.89,74,77.72,74S81,72,81,69.63C81,68.1,80.44,55,79.54,45.66Z" transform="translate(-8.96 -16)" style="fill: #ffda00"/>
  <path d="M18.59,39.91a6.34,6.34,0,0,0,3.06-5.43l-.91-14.87a1.07,1.07,0,0,0-2.15.12l.59,11.93a1.21,1.21,0,0,1-2.43,0l-.3-11.92a1.16,1.16,0,0,0-2.32,0l-.3,11.92a1.21,1.21,0,1,1-2.43,0L12,19.73a1.07,1.07,0,0,0-2.15-.12L9,34.48A6.34,6.34,0,0,0,12,39.91a3.59,3.59,0,0,1,1.71,3.47C12.69,52.72,12,68,12,69.63,12,72,13.48,74,15.31,74s3.32-2,3.32-4.37c0-1.66-.7-16.91-1.74-26.25A3.59,3.59,0,0,1,18.59,39.91Z" transform="translate(-8.96 -16)" style="fill: #ffda00"/>
</svg>
