<svg id="Layer_1" data-name="Layer 1" xmlns="http://www.w3.org/2000/svg" viewBox="0 0 28.64 25.67">
  <title>gallery-icon</title>
  <g>
    <path d="M4.22,20.08H25.75V5.69H4.22ZM8.17,18l2.77-4.32L13.71,18Zm6.29,0,1.48-2.3L17.42,18ZM23.85,7.59v10.6H19.8l-3.86-6-1.85,2.89-3.15-4.91L6.12,17.67V7.59Z" transform="translate(-0.68 -2.17)"/>
    <path d="M27.26,2.17H2.74A2.06,2.06,0,0,0,.68,4.23V25.77a2.06,2.06,0,0,0,2.06,2.06H27.26a2.06,2.06,0,0,0,2.06-2.06V4.23A2.06,2.06,0,0,0,27.26,2.17Zm.17,23.6a.17.17,0,0,1-.17.17H2.74a.17.17,0,0,1-.17-.17V4.23a.17.17,0,0,1,.17-.17H27.26a.17.17,0,0,1,.17.17V25.77Z" transform="translate(-0.68 -2.17)"/>
    <path d="M20.29,14.43a3,3,0,1,0-3-3A3,3,0,0,0,20.29,14.43Zm0-4a1.06,1.06,0,1,1-1.06,1.06A1.06,1.06,0,0,1,20.29,10.41Z" transform="translate(-0.68 -2.17)"/>
  </g>
</svg>
