<svg id="Layer_2" data-name="Layer 2" xmlns="http://www.w3.org/2000/svg" viewBox="0 0 74.57 58">
  <title>games-icon</title>
  <path id="Playstation" d="M47.87,74,36.48,69.12V16s24.74,4.16,28.14,14.45-1.9,17-3.76,17.17c-5.2.54-7.17-2.71-7.17-2.71V28.29L48,25.94Zm3-7.32v6.23s26.8-8.67,30.74-12-9.23-11.65-16.31-10a46.38,46.38,0,0,0-14.34,3.34c-.06,0,0,5.6,0,5.6l17.3-4.06,6.09,2.71Zm-17.21-.45S30.12,68,22.32,67.95,7.63,65.69,7.71,61s12.91-9.85,25.81-12v6.59L19.81,59.18s-2.35,3,.81,3.07a43.28,43.28,0,0,0,13.08-1.72Z" transform="translate(-7.71 -16)" style="fill: #ffda00"/>
</svg>
