<svg id="Layer_1" data-name="Layer 1" xmlns="http://www.w3.org/2000/svg" viewBox="0 0 287.14 138.59">
  <title>logo--full</title>
  <path d="M75,17.78c1.68.61,1,2.45,1.7,3.68.54.94,2,.54,2.34-.56a4.87,4.87,0,0,0-3.2-5.69c-2.21-.72-5.1.18-6,2.53-.39,1.07.57,2.27,1.56,1.82C72.77,19,73.36,17.17,75,17.78ZM87.3,21.63c1.55.89.55,2.58,1,3.92.37,1,1.91.87,2.4-.15a4.87,4.87,0,0,0-2.18-6.16c-2.05-1.09-5.05-.7-6.31,1.47-.57,1,.17,2.34,1.22,2.07C84.85,22.43,85.75,20.75,87.3,21.63Zm-1.64,67c-2.47-3.34.68-3.74,3.06-5.23a11.23,11.23,0,0,0,4.11-4.92A43.51,43.51,0,0,0,94.92,72l.83-3.63c.68-2.49,3.41-2.53,2.37,2.09a51.48,51.48,0,0,1-2.36,7.86c-1.26,3.12-2.64,5.66-5.58,7.45-1.64,1-2.58,1.25-.88,2.65l3.44,3.32c4.59,5,5.89,9.86,3.65,16.23A16.62,16.62,0,0,1,92.91,114a1.31,1.31,0,0,1-2.25-1.28c.11-.51,2.41-3.6,3.2-5.93,1.2-5.44,1.29-8.54-3-13C89.12,92.1,87.2,90.69,85.66,88.61ZM72.24,67.8c.26.33.38.88,1.42.46l4.24-1.74-6.69.43C71.51,67,71.68,67.07,72.24,67.8ZM61.68,116.89c.48,6.66,1.91,6.83,8,9.27a9.58,9.58,0,0,1,6.28,9c.12,8-10.47,12.73-15.93,5.93a7.27,7.27,0,0,1,.19-9.83c1.75-1.86,4.56-2.73,8-1.33A5.17,5.17,0,0,1,71.63,135c-.27,4.18-4.75,5.82-8.06,3.45-2.49-1.79-.47-4.16,1-2.66,1.19,1.2,3.75,1.79,4.2-.62.28-1.49-.84-2.66-2.26-3.15-4.08-1.4-6.56,3.54-5,6.43A6.6,6.6,0,0,0,67,141.68c3.32.15,6.61-3.37,6.32-6.89a7.09,7.09,0,0,0-3.66-5.88c-3.45-2.07-7-1.21-9.43-6-.9-1.81-1.32-5.36-1.41-8.58a24.47,24.47,0,0,1,.53-7c.64-2,2.15-1.69,2.72,0,.94,2.73,1,5.84,2,8.6.64,1.66,1.88,4.32,3.93,4.43,2.36.14,2.45-2.87.06-2.84-2.86,0-3-2.3,0-2.65s5.61,2.58,4.46,5.34c-1.34,3.23-5.55,3.65-8,1.68C62.66,120.43,62.29,118.14,61.68,116.89Zm44.19-29.61a1.22,1.22,0,0,1-1.36,1.94c-.52-.18-.8-.58-1.48-.67-1.75-.25-2,2.06-.52,2.82a3.61,3.61,0,0,0,3,0c2.92-1.33,2.07-5.31-1.19-6.35a5.39,5.39,0,0,0-4.17.3c-4.12,2.22-2,7.75-.3,10.06,7.26,9.95,5.24,28.13-3.86,35.61-5.93,4.87-13.85,4.44-18.85-1.58a17.5,17.5,0,0,1-3.19-6c-1-2.24,1.85-3.82,2.5-.6a12.1,12.1,0,0,0,2.8,5.3,10.43,10.43,0,0,0,15.3.76c6.51-5.88,9-19.16,6-26.82-1-2.5-2.62-5.07-4.16-8-1.75-3.34-2.19-8.91,2.83-11.2a8,8,0,0,1,7.51.46c4.57,3.07,4.17,9.53-1.12,10.75-3.27.75-7.1-1.15-6.44-5.11a3.72,3.72,0,0,1,2.67-3.08A3.93,3.93,0,0,1,105.87,87.28Zm-.56-28.83C103.93,53,98.23,51,94.94,54.72c-1.92,2.16-2.39,6.5.94,7.55a4.61,4.61,0,0,0,4.35-1c2.25-1.93,0-5.07-2.51-3.31a9.56,9.56,0,0,1-1.47,1c-1.58.52-2.33-1.33-.91-2.58.23-.2.49-.4.76-.66a4.66,4.66,0,0,1,6.71.54c1.75,2.17,1,5.57-1.18,7.3-5.5,4.27-11.67.36-11-6a8,8,0,0,1,2.57-5C97,49,102.6,49.48,106,53.7c2.69,3.38,2.57,7.55,2.22,11.88-.31,3.88-3.31,12.14-6.35,14.67-2,1.64-3.63.19-2.12-1.71.36-.45.79-.86,1-1.2a27.39,27.39,0,0,0,4.63-11.83A18.67,18.67,0,0,0,105.31,58.45ZM81.85,128.53A9.71,9.71,0,0,1,78,121.94c-.8-7.72,6.59-8.86,9.86-13,1.3-1.67,1.77-3.92.69-8l-1-3.84c-1.12-3.35,1.88-4.46,2.58-1.35l1.26,5.54a12.38,12.38,0,0,1,0,6.79c-2.17,6.43-10.94,6.6-10.75,13.46.07,2.53,1.75,4.9,5,6,4.09,1.34,8.62-2.91,6.67-7.07a3.74,3.74,0,0,0-3.59-2c-2.31.19-3.39,1.27-3.59,2.34-.57,3.06,2.54,2.93,4.33,1.5,1.3-1,3.33,1,.46,2.87a4.92,4.92,0,0,1-7.71-3.72c-.3-3.83,3.49-6.56,7.84-5.75,5.17,1,6.91,6.41,4.53,10.63C92.1,130.68,85.94,131.75,81.85,128.53ZM58.15,5.71a5,5,0,0,0-5,3.76c-.2,1.12,1,2.14,1.86,1.52,1.18-.8,1.35-2.58,3.15-2.58s2,1.77,3.15,2.58c.9.61,2.06-.4,1.86-1.52C62.74,7.12,60.36,5.71,58.15,5.71ZM41.25,17.78c-1.68.61-1,2.45-1.7,3.68-.55.94-2,.54-2.34-.56a4.87,4.87,0,0,1,3.2-5.69c2.21-.72,5.1.18,6,2.53.39,1.07-.57,2.27-1.56,1.82C43.52,19,42.93,17.17,41.25,17.78ZM29,21.63c-1.55.89-.55,2.58-1,3.92-.37,1-1.91.87-2.4-.15a4.87,4.87,0,0,1,2.18-6.16c2.05-1.09,5.05-.7,6.31,1.47.57,1-.17,2.34-1.22,2.07C31.44,22.43,30.55,20.75,29,21.63Zm1.64,67c2.47-3.34-.68-3.74-3.06-5.23a11.25,11.25,0,0,1-4.11-4.92A43.65,43.65,0,0,1,21.38,72l-.83-3.63c-.68-2.49-3.41-2.53-2.38,2.09a51.73,51.73,0,0,0,2.36,7.86c1.26,3.12,2.64,5.66,5.58,7.45,1.64,1,2.58,1.25.88,2.65l-3.44,3.32c-4.59,5-5.89,9.86-3.65,16.23A16.61,16.61,0,0,0,23.39,114a1.31,1.31,0,0,0,2.26-1.28c-.11-.51-2.41-3.6-3.2-5.93-1.21-5.44-1.3-8.54,3-13C27.17,92.1,29.09,90.69,30.64,88.61ZM58.15,100.4c-.55,0-1.06.68-1.47,1.14a13.26,13.26,0,0,1-10,4.91,15.6,15.6,0,0,1-5.35-.82c-1.79-.84-1.21-2.73.93-2.47a28.22,28.22,0,0,0,4.51.48c3.76-.11,5.78-1.7,8.31-4.36,1.83-2.14,1.58-3,1.58-5l-4.32-2.8a16.94,16.94,0,0,1-1.81-1.26c-1.76-1.53-.56-3.39,1.7-2.23a14.83,14.83,0,0,1,1.89,1.29L57,91.14a1.65,1.65,0,0,0,2.23,0l2.93-1.9a15,15,0,0,1,1.89-1.29c2.26-1.16,3.46.7,1.7,2.23A17.19,17.19,0,0,1,64,91.44l-4.32,2.8c0,2-.26,2.91,1.58,5,2.52,2.65,4.55,4.24,8.31,4.36a28.26,28.26,0,0,0,4.52-.48c2.14-.27,2.72,1.63.93,2.47a15.6,15.6,0,0,1-5.35.82,13.27,13.27,0,0,1-10-4.91C59.21,101.08,58.7,100.4,58.15,100.4ZM44.06,67.8c-.26.33-.38.88-1.42.46L38.4,66.52l6.69.43C44.78,67,44.62,67.07,44.06,67.8ZM58.15,86.6a14.46,14.46,0,0,1-4.71-.8c-3.55-1.32-3.4-3.32-4.06-6.58L47.21,68.69C47,67.51,47,67.19,45.69,67c.92.18.65,1.48.11,2.14l-.86,1.06c-1.17,1.44-1.9.8-3.32.07l-3.74-1.93c-.75-.42-1.8-.85-2.62-1.36-1.65-1-1.63-2.75.23-2.91.46,0,1,0,1.61,0,2,0,10.3-.17,11.08.21,1.11.54,1.17,1.4,1.5,3l2.53,12.52c.28,1.38.19,2.4,1.29,3a11,11,0,0,0,4.65.8,11,11,0,0,0,4.65-.8c1.1-.65,1-1.67,1.29-3l2.53-12.52c.33-1.63.39-2.49,1.5-3,.78-.38,9.1-.22,11.08-.21.6,0,1.15,0,1.61,0,1.86.16,1.88,1.87.23,2.91-.81.51-1.87.94-2.62,1.36L74.68,70.3c-1.42.73-2.16,1.37-3.32-.07l-.86-1.06c-.54-.66-.81-2,.11-2.14-1.31.15-1.28.47-1.52,1.65L66.93,79.22c-.67,3.26-.51,5.26-4.06,6.58A14.48,14.48,0,0,1,58.15,86.6Zm-3.53,30.29c-.48,6.66-1.91,6.83-8,9.27a9.59,9.59,0,0,0-6.28,9c-.12,8,10.47,12.73,15.93,5.93a7.27,7.27,0,0,0-.19-9.83c-1.75-1.86-4.56-2.73-8-1.33A5.17,5.17,0,0,0,44.66,135c.27,4.18,4.76,5.82,8.06,3.45,2.49-1.79.47-4.16-1-2.66-1.19,1.2-3.75,1.79-4.2-.62-.28-1.49.84-2.66,2.26-3.15,4.08-1.4,6.56,3.54,5,6.43a6.59,6.59,0,0,1-5.48,3.24c-3.32.15-6.61-3.37-6.32-6.89a7.09,7.09,0,0,1,3.67-5.88c3.45-2.07,7-1.21,9.43-6,.9-1.81,1.32-5.36,1.41-8.58a24.4,24.4,0,0,0-.53-7c-.64-2-2.15-1.69-2.73,0-.94,2.73-1,5.84-2,8.6-.64,1.66-1.88,4.32-3.93,4.43-2.35.14-2.44-2.87-.06-2.84,2.87,0,3-2.3,0-2.65s-5.6,2.58-4.46,5.34c1.34,3.23,5.55,3.65,8,1.68C53.64,120.43,54,118.14,54.61,116.89ZM10.42,87.28a1.22,1.22,0,0,0,1.36,1.94c.52-.18.8-.58,1.48-.67,1.76-.25,2,2.06.52,2.82a3.61,3.61,0,0,1-3,0C7.85,90,8.7,86.05,12,85a5.4,5.4,0,0,1,4.18.3c4.12,2.22,2,7.75.3,10.06-7.26,9.95-5.24,28.13,3.86,35.61,5.93,4.87,13.85,4.44,18.85-1.58a17.51,17.51,0,0,0,3.19-6c1-2.24-1.85-3.82-2.5-.6a12.11,12.11,0,0,1-2.81,5.3,10.43,10.43,0,0,1-15.3.76c-6.51-5.88-9-19.16-6-26.82,1-2.5,2.62-5.07,4.16-8,1.75-3.34,2.19-8.91-2.83-11.2a8,8,0,0,0-7.51.46C5,86.38,5.42,92.84,10.71,94.06c3.27.75,7.1-1.15,6.44-5.11a3.72,3.72,0,0,0-2.67-3.08A3.93,3.93,0,0,0,10.42,87.28Zm47.73-40c-3.73-1.52-10.41-3.72-14.52-3.46-3.49.22-3.87,1.77-5.58,4.21-2,2.86-5.55,5.41-9.09,5.45-2.7.11-5.6-2.07-7-4.18a9,9,0,0,1-1-8.05,8.73,8.73,0,0,1,11.33-4.6C36.41,38.45,36.68,43.75,34,47a5.17,5.17,0,0,1-6.8,1.41,4.71,4.71,0,0,1-1.3-6.53c2.07-3.57,4.6-2.17,3.65-.39-.37.7-1.44,1.43-1.67,2.23-.71,2.48,2.37,3.72,4.15,1.51a5.51,5.51,0,0,0,1.15-2.93c.11-3.33-3.62-5-6.92-3.17a6.37,6.37,0,0,0-3,4.34,6.82,6.82,0,0,0,1.31,5.06C28,53,33.37,50.66,35.93,46.46c1.76-2.89,2.89-4.5,6.18-5a20.6,20.6,0,0,1,6.75.25c1.49.28,7.75,2.2,9.29,2.81,1.53-.61,7.8-2.53,9.29-2.81a20.61,20.61,0,0,1,6.75-.25c3.29.54,4.42,2.15,6.18,5,2.56,4.2,7.94,6.53,11.35,2.06A6.83,6.83,0,0,0,93,43.45a6.38,6.38,0,0,0-3-4.34c-3.3-1.83-7-.16-6.92,3.17a5.51,5.51,0,0,0,1.15,2.93c1.79,2.21,4.86,1,4.16-1.51-.23-.79-1.3-1.53-1.67-2.23-.95-1.79,1.58-3.18,3.65.39a4.71,4.71,0,0,1-1.3,6.53A5.17,5.17,0,0,1,82.29,47c-2.68-3.22-2.4-8.52,1.72-10.35a8.73,8.73,0,0,1,11.33,4.6,9,9,0,0,1-1,8.05c-1.37,2.11-4.27,4.29-7,4.18-3.54,0-7.09-2.59-9.09-5.45-1.7-2.44-2.09-4-5.58-4.21C68.55,43.53,61.88,45.74,58.15,47.26Zm0-12.65c-2.58,0-5.13.15-7.25.27a52.3,52.3,0,0,0-9.41,1.75l-.51.17c-3.35,1.09-3,1.39-3.87-.59l-3.44-7.63c-.47-1-.36-1.32.58-.86l6.52,3.2c1.45.71,3,.81,2.94-1.31l0-4.58c0-1.73.82-.57,1.47.12l5,5.36c1.46,1.55,2.44,1.4,3.09-.57l4.57-13.86c.18-.55.47-.55.65,0L63,29.93c.65,2,1.63,2.12,3.09.57l5-5.36c.65-.69,1.49-1.85,1.47-.12l0,4.58c0,2.12,1.5,2,2.94,1.31L82,27.72c.94-.46,1.05-.18.58.86l-3.44,7.63c-.9,2-.52,1.68-3.87.59l-.51-.17a52.24,52.24,0,0,0-9.41-1.75C63.28,34.75,60.73,34.6,58.15,34.6Zm0,2.59a69.17,69.17,0,0,0-7.65.31A38.24,38.24,0,0,0,39.58,40c-1.47.64-2.79,1.63-3.73-.41L29.62,26.09c-1.5-3.24.73-3.39,1.47-3l8.63,4.38c1.14.58,1.33.43,1.33-.79l0-6.34c0-1.67,1.34-1.81,2.46-.64L49.55,26c1.35,1.4,1.66,1.88,2.26.1l4.65-13.87c.36-.91.6-2.41,1.69-2.41s1.34,1.51,1.69,2.41l4.65,13.87c.6,1.78.91,1.3,2.26-.1l6.06-6.3c1.13-1.17,2.47-1,2.46.64l0,6.34c0,1.22.19,1.37,1.33.79l8.63-4.38c.74-.37,3-.22,1.47,3L80.44,39.57c-.94,2-2.26,1-3.73.41A38.25,38.25,0,0,0,65.8,37.51,69.17,69.17,0,0,0,58.15,37.2Zm-1.2,17c-3.35-2.69-5.17-3.86-9.77-3.86-7.45,0-8.86,5.13-14,8.73-3.13,2.19-4.28,4.2-4.3,6.52,0,1.94.77,4.08,1.81,6.72s2.72,5.23,3.92,7.93a33,33,0,0,1,2.73,11.73c0,3.71-2.62,8.16-4.13,11.69-.72,3.38.27,3.39,3,4.53.66.27,1.36.35,2,.6,2.27.94,1.31,2.91-1.48,2.48a14.23,14.23,0,0,1-4.53-2.09c-2-1.39-2.2-3.55-1.72-5.8s2-4.7,3-6.92c1.25-4.22,1.39-5.41.41-10A19.19,19.19,0,0,0,32,81c-1.21-2-2.43-4.8-3.5-7-1.58-3.2-2.48-6.18-2.26-8.93s1.62-5.36,4.65-7.7c7-4.28,6.7-9.69,16.85-9.69,6.64,0,8.68,3.59,10.43,3.59s3.78-3.59,10.43-3.59c10.15,0,9.89,5.41,16.84,9.69,3,2.34,4.42,4.91,4.65,7.7s-.68,5.73-2.26,8.93c-1.07,2.18-2.29,5-3.5,7a19.23,19.23,0,0,0-1.87,5.4c-1,4.56-.84,5.75.41,10,1,2.22,2.47,4.52,3,6.92s.26,4.41-1.72,5.8a14.24,14.24,0,0,1-4.53,2.09c-2.79.42-3.76-1.54-1.48-2.48.61-.25,1.31-.32,2-.6,2.73-1.14,3.72-1.14,3-4.53-1.51-3.53-4.12-8-4.12-11.69a33,33,0,0,1,2.73-11.73c1.2-2.69,2.84-5.21,3.92-7.93s1.83-4.79,1.81-6.72c0-2.32-1.17-4.34-4.3-6.52-5.14-3.6-6.56-8.73-14-8.73-4.6,0-6.42,1.18-9.78,3.86A1.71,1.71,0,0,1,56.94,54.15Zm-46,4.3C12.37,53,18.07,51,21.35,54.72c1.92,2.16,2.39,6.5-.94,7.55a4.61,4.61,0,0,1-4.34-1c-2.26-1.93,0-5.07,2.51-3.31a9.51,9.51,0,0,0,1.47,1c1.58.52,2.33-1.33.91-2.58-.23-.2-.49-.4-.76-.66a4.66,4.66,0,0,0-6.72.54c-1.75,2.17-1,5.57,1.18,7.3,5.49,4.27,11.67.36,11-6a8,8,0,0,0-2.58-5C19.28,49,13.69,49.48,10.33,53.7c-2.69,3.38-2.57,7.55-2.23,11.88.31,3.88,3.31,12.14,6.35,14.67,2,1.64,3.64.19,2.12-1.71-.36-.45-.79-.86-1-1.2a27.38,27.38,0,0,1-4.63-11.83A18.64,18.64,0,0,1,11,58.45Zm23.46,70.07a9.71,9.71,0,0,0,3.84-6.59c.8-7.72-6.59-8.86-9.86-13-1.3-1.67-1.77-3.92-.69-8l1-3.84c1.12-3.35-1.88-4.46-2.58-1.35l-1.26,5.54a12.38,12.38,0,0,0,0,6.79c2.17,6.43,10.94,6.6,10.75,13.46-.07,2.53-1.75,4.9-5,6-4.09,1.34-8.62-2.91-6.67-7.07a3.74,3.74,0,0,1,3.59-2c2.31.19,3.39,1.27,3.59,2.34.57,3.06-2.54,2.93-4.33,1.5-1.3-1-3.34,1-.47,2.87a4.92,4.92,0,0,0,7.71-3.72c.3-3.83-3.49-6.56-7.84-5.75-5.17,1-6.91,6.41-4.53,10.63C24.19,130.68,30.35,131.75,34.44,128.53Z" transform="translate(-6.43 -5.71)" style="fill: #1b1918;fill-rule: evenodd"/>
  <path d="M253.16,38.53h3.58v19h-3.58ZM128.46,58.68h4.73V71.93L148.8,58.68h6.81L142.84,69.52l14.51,19.17h-5.52L139.48,72.37l-6.29,5.34v11h-4.73Zm34.13,0h4.73v30h-4.73Zm36.32,0h4.73v30h-1.91L182.33,67.36V88.69H177.6v-30h2.79L198.9,79Zm47.16,23.84a20.11,20.11,0,0,1-15.84,7.16c-10.49,0-19-7.14-19-16s8.5-16,19-16A20.12,20.12,0,0,1,246,64.88l-4,2.76a15,15,0,0,0-11.81-5.23c-7.74,0-14,5.07-14,11.33s6.28,11.33,14,11.33a15.35,15.35,0,0,0,11.11-4.42V77.22h-7.4V72.48h12.13Zm33.31-19.94c-5.23-.87-11-.16-10.52,4.2.38,3.21,6.11,2.86,8.31,3a37.3,37.3,0,0,1,5.77.66c2.94.61,6.1,1.79,7.93,4.3A7.85,7.85,0,0,1,292.3,80a9.71,9.71,0,0,1-2.8,6.38c-3.71,3.65-10,3.78-14.78,3a30.79,30.79,0,0,1-11.44-4l-.87-.58,2.43-4.06,1,.68a26.27,26.27,0,0,0,9.57,3.3c3.13.48,8.29.69,10.74-1.73a5.05,5.05,0,0,0,1.41-3.36,3.16,3.16,0,0,0-.55-2.19c-1.77-2.42-7.36-2.9-10.11-3L275,74.39c-3.13-.16-7.05-.49-9.29-3a6.66,6.66,0,0,1-1.61-4.77,8.23,8.23,0,0,1,2-5.24c3-3.44,8.4-3.9,12.63-3.47,3.45.35,8.22,1.54,10.94,3.79l.75.62-2.58,4A14.77,14.77,0,0,0,279.37,62.59Z" transform="translate(-6.43 -5.71)" style="fill: #1b1918;fill-rule: evenodd"/>
  <path d="M187.49,99.68v15.47c0,4.16,4.14,4.49,7,4.49s7-.32,7-4.49V99.68h4.24v15.51c0,7-6,8-11.28,8s-11.28-1.07-11.28-8V99.68Zm-23.6-.55c7.69,0,13.93,5.4,13.93,12.06s-6.24,12.06-13.93,12.06S150,117.84,150,111.18,156.2,99.13,163.89,99.13Zm0,3.54c5.55,0,10,3.81,10,8.51s-4.5,8.51-10,8.51-10.05-3.81-10.05-8.51S158.34,102.67,163.89,102.67Zm65.28-3h4.24v22.88h-2.24l-14.08-15.3v15.3h-4.24V99.68h1.85l14.47,15.73Zm42.34,0h21.18v3.8H275.75v5h10.88v3.8H275.75v6.52h17.82v3.8H271.51Zm-15.85,14.17V110h9.51v6.42a14.17,14.17,0,0,1-12.44,6.78c-7.69,0-13.93-5.4-13.93-12.06S245,99.13,252.72,99.13a14.45,14.45,0,0,1,12,5.94L261.45,107a10.47,10.47,0,0,0-8.73-4.29c-5.55,0-10,3.81-10,8.51s4.5,8.51,10,8.51a10.54,10.54,0,0,0,8.58-4.08v-1.78ZM128.46,99.68h4.23v19.08h16.66v3.8H128.46Z" transform="translate(-6.43 -5.71)" style="fill: #1b1918;fill-rule: evenodd"/>
</svg>
