<svg id="Layer_1" data-name="Layer 1" xmlns="http://www.w3.org/2000/svg" viewBox="0 0 148.03 198.34">
  <title>logo</title>
  <path d="M109.18,17.87c2.4.87,1.41,3.5,2.43,5.27.78,1.35,2.9.77,3.34-.8a7,7,0,0,0-4.59-8.15c-3.16-1-7.3.25-8.54,3.62-.57,1.53.81,3.25,2.23,2.61C105.93,19.59,106.78,17,109.18,17.87Zm17.54,5.51c2.21,1.27.79,3.69,1.49,5.61.54,1.47,2.73,1.25,3.43-.22A7,7,0,0,0,128.52,20c-2.94-1.56-7.23-1-9,2.1-.82,1.41.24,3.34,1.75,3C123.22,24.52,124.5,22.11,126.72,23.38Zm-2.35,95.85c-3.54-4.78,1-5.35,4.38-7.48a16.07,16.07,0,0,0,5.88-7,62.27,62.27,0,0,0,3-9.27l1.19-5.19c1-3.57,4.88-3.62,3.4,3a73.68,73.68,0,0,1-3.37,11.24c-1.8,4.46-3.78,8.1-8,10.66-2.34,1.44-3.7,1.79-1.26,3.79l4.92,4.75c6.57,7.1,8.43,14.11,5.22,23.23a23.79,23.79,0,0,1-5,8.7c-1.64,1.59-3.68.26-3.22-1.84.16-.74,3.45-5.15,4.57-8.49,1.72-7.78,1.85-12.22-4.33-18.57C129.33,124.23,126.58,122.21,124.37,119.23Zm-19.2-29.78c.38.48.54,1.26,2,.65l6.07-2.49-9.57.62C104.13,88.24,104.36,88.41,105.17,89.45ZM90.06,159.71c.69,9.53,2.74,9.77,11.52,13.26a13.71,13.71,0,0,1,9,12.81c.17,11.38-15,18.22-22.8,8.48-3.17-3.95-3.86-9.68.28-14.06,2.5-2.66,6.53-3.9,11.46-1.91a7.39,7.39,0,0,1,4.81,7.31c-.39,6-6.8,8.34-11.54,4.94-3.57-2.56-.68-6,1.46-3.81,1.71,1.72,5.37,2.56,6-.89.39-2.13-1.2-3.81-3.24-4.5-5.84-2-9.38,5.06-7.2,9.2a9.44,9.44,0,0,0,7.84,4.64c4.75.21,9.47-4.82,9-9.87a10.14,10.14,0,0,0-5.24-8.41c-4.93-3-10.05-1.73-13.5-8.64-1.29-2.59-1.88-7.67-2-12.29-.08-2.91-.12-7.22.76-10s3.07-2.43,3.9,0c1.35,3.9,1.37,8.35,2.89,12.31.91,2.38,2.69,6.18,5.62,6.35,3.37.19,3.5-4.1.09-4.06-4.1,0-4.24-3.29-.07-3.8s8,3.69,6.39,7.65c-1.91,4.63-7.94,5.23-11.44,2.4C91.45,164.78,90.93,161.49,90.06,159.71Zm63.25-42.37a1.74,1.74,0,0,1-1.95,2.77c-.75-.26-1.14-.83-2.11-1-2.51-.35-2.92,3-.75,4a5.17,5.17,0,0,0,4.32,0c4.18-1.9,3-7.59-1.7-9.09a7.71,7.71,0,0,0-6,.42c-5.89,3.17-2.85,11.09-.42,14.4,10.39,14.24,7.5,40.26-5.53,51-8.49,7-19.82,6.36-27-2.27a25,25,0,0,1-4.56-8.53c-1.44-3.2,2.65-5.47,3.58-.86a17.31,17.31,0,0,0,4,7.59c6,6.73,15.22,7.11,21.89,1.09,9.32-8.42,12.87-27.42,8.53-38.38-1.41-3.58-3.74-7.26-6-11.48-2.51-4.78-3.14-12.76,4.05-16a11.37,11.37,0,0,1,10.75.67c6.54,4.39,6,13.64-1.6,15.38-4.68,1.08-10.16-1.65-9.22-7.31a5.32,5.32,0,0,1,3.82-4.4A5.63,5.63,0,0,1,153.3,117.34Zm-.81-41.27c-2-7.77-10.14-10.61-14.83-5.34-2.75,3.08-3.42,9.3,1.35,10.81a6.6,6.6,0,0,0,6.22-1.47c3.22-2.76,0-7.25-3.6-4.73a13.68,13.68,0,0,1-2.11,1.48c-2.27.74-3.33-1.9-1.31-3.69.33-.29.71-.58,1.08-.94a6.67,6.67,0,0,1,9.61.77c2.51,3.1,1.5,8-1.69,10.45-7.86,6.12-16.7.51-15.76-8.56a11.37,11.37,0,0,1,3.68-7.22c5.48-5.1,13.47-4.41,18.28,1.63,3.85,4.84,3.68,10.8,3.18,17-.44,5.56-4.74,17.38-9.08,21-2.81,2.34-5.2.27-3-2.44.51-.64,1.13-1.22,1.47-1.71A39.2,39.2,0,0,0,152.6,86.2,26.72,26.72,0,0,0,152.5,76.07ZM118.92,176.36a13.9,13.9,0,0,1-5.5-9.43c-1.15-11.06,9.43-12.67,14.11-18.67,1.86-2.39,2.53-5.61,1-11.41l-1.47-5.49c-1.61-4.79,2.69-6.38,3.7-1.93l1.8,7.93c.86,3.8,1,6.92.05,9.72-3.11,9.2-15.66,9.45-15.38,19.27.1,3.63,2.5,7,7.13,8.52,5.86,1.92,12.34-4.16,9.54-10.12a5.36,5.36,0,0,0-5.13-2.85c-3.31.27-4.86,1.81-5.14,3.35-.82,4.38,3.63,4.19,6.19,2.15,1.86-1.48,4.77,1.36.66,4.11a7,7,0,0,1-11-5.32c-.43-5.48,5-9.39,11.22-8.23,7.4,1.38,9.89,9.17,6.49,15.21C133.6,179.44,124.78,181,118.92,176.36ZM85,.58c-3.16,0-6.57,2-7.17,5.39C77.55,7.58,79.2,9,80.49,8.15,82.18,7,82.42,4.47,85,4.47S87.82,7,89.5,8.15c1.29.88,3-.58,2.66-2.18C91.57,2.62,88.16.58,85,.58ZM60.82,17.87c-2.4.87-1.41,3.5-2.43,5.27-.78,1.35-2.91.77-3.34-.8a7,7,0,0,1,4.58-8.15c3.16-1,7.29.25,8.54,3.62.56,1.53-.81,3.25-2.24,2.61C64.07,19.59,63.22,17,60.82,17.87ZM43.28,23.38c-2.22,1.27-.79,3.69-1.49,5.61-.54,1.47-2.73,1.25-3.43-.22A7,7,0,0,1,41.47,20c2.94-1.56,7.23-1,9,2.1.82,1.41-.24,3.34-1.75,3C46.78,24.52,45.5,22.11,43.28,23.38Zm2.34,95.85c3.54-4.78-1-5.35-4.38-7.48a16.1,16.1,0,0,1-5.88-7,62.47,62.47,0,0,1-3-9.27l-1.18-5.19c-1-3.57-4.88-3.62-3.4,3a74,74,0,0,0,3.37,11.24c1.8,4.46,3.78,8.1,8,10.66,2.34,1.44,3.7,1.79,1.26,3.79l-4.92,4.75c-6.57,7.1-8.42,14.11-5.22,23.23a23.78,23.78,0,0,0,5,8.7c1.64,1.59,3.68.26,3.23-1.84-.16-.74-3.46-5.15-4.57-8.49-1.73-7.78-1.86-12.22,4.33-18.57C40.66,124.23,43.42,122.21,45.63,119.23ZM85,136.11c-.79,0-1.52,1-2.1,1.63-3.73,4.28-8.69,7-14.33,7-1.27,0-5.4-.12-7.66-1.17-2.57-1.2-1.74-3.91,1.33-3.53a40.39,40.39,0,0,0,6.46.69c5.38-.16,8.28-2.44,11.89-6.23,2.62-3.06,2.26-4.31,2.25-7.22l-6.18-4a24.25,24.25,0,0,1-2.59-1.81c-2.51-2.18-.8-4.86,2.43-3.19a21.23,21.23,0,0,1,2.71,1.85l4.19,2.73a2.36,2.36,0,0,0,3.18,0l4.19-2.73a21.41,21.41,0,0,1,2.71-1.85c3.23-1.67,4.95,1,2.43,3.19a24.6,24.6,0,0,1-2.58,1.81l-6.18,4c0,2.91-.37,4.16,2.25,7.22,3.61,3.8,6.51,6.07,11.89,6.23a40.45,40.45,0,0,0,6.46-.69c3.06-.38,3.9,2.33,1.32,3.53-2.26,1.05-6.39,1.17-7.65,1.17-5.64,0-10.6-2.75-14.34-7C86.52,137.08,85.79,136.11,85,136.11ZM64.83,89.45c-.38.48-.54,1.26-2,.65l-6.07-2.49,9.57.62C65.87,88.24,65.64,88.41,64.83,89.45ZM85,116.36a20.7,20.7,0,0,1-6.75-1.15c-5.08-1.89-4.86-4.75-5.82-9.42L69.35,90.73C69,89,69,88.58,67.17,88.36c1.32.25.93,2.11.16,3.06L66.1,92.94c-1.68,2.06-2.72,1.15-4.76.1L56,90.27c-1.07-.6-2.58-1.21-3.74-2-2.36-1.5-2.34-3.94.32-4.17.66-.06,1.44,0,2.3,0,2.83,0,14.74-.25,15.85.29,1.59.78,1.67,2,2.14,4.34L76.5,106.7c.4,2,.27,3.44,1.84,4.36s4.79,1.14,6.66,1.14,5-.19,6.66-1.14,1.44-2.38,1.84-4.36l3.62-17.91c.48-2.34.56-3.56,2.14-4.34,1.11-.54,13-.31,15.86-.29.86,0,1.64-.06,2.3,0,2.66.23,2.69,2.68.32,4.17-1.16.74-2.68,1.35-3.74,2L108.65,93c-2,1.05-3.08,2-4.76-.1l-1.23-1.51c-.77-.95-1.15-2.81.16-3.06-1.88.22-1.83.67-2.18,2.37L97.56,105.8c-1,4.67-.73,7.52-5.81,9.42A20.72,20.72,0,0,1,85,116.36Zm-5.06,43.35c-.69,9.53-2.74,9.77-11.52,13.26a13.72,13.72,0,0,0-9,12.81c-.17,11.38,15,18.22,22.8,8.48,3.17-3.95,3.86-9.68-.27-14.06-2.51-2.66-6.53-3.9-11.46-1.91a7.4,7.4,0,0,0-4.81,7.31c.39,6,6.81,8.34,11.54,4.94,3.57-2.56.68-6-1.46-3.81-1.71,1.72-5.37,2.56-6-.89-.4-2.13,1.2-3.81,3.24-4.5,5.84-2,9.38,5.06,7.2,9.2a9.44,9.44,0,0,1-7.84,4.64c-4.75.21-9.47-4.82-9-9.87a10.15,10.15,0,0,1,5.25-8.41c4.93-3,10.05-1.73,13.49-8.64,1.29-2.59,1.88-7.67,2-12.29.08-2.91.13-7.22-.76-10s-3.07-2.43-3.9,0c-1.34,3.9-1.37,8.35-2.89,12.31-.91,2.38-2.69,6.18-5.62,6.35-3.37.19-3.5-4.1-.09-4.06,4.1,0,4.24-3.29.07-3.8s-8,3.69-6.39,7.65c1.91,4.63,7.94,5.23,11.44,2.4C78.55,164.78,79.07,161.49,79.94,159.71ZM16.69,117.34a1.74,1.74,0,0,0,2,2.77c.75-.26,1.14-.83,2.11-1,2.52-.35,2.92,3,.75,4a5.17,5.17,0,0,1-4.32,0c-4.18-1.9-3-7.59,1.7-9.09a7.72,7.72,0,0,1,6,.42c5.89,3.17,2.84,11.09.42,14.4-10.39,14.24-7.5,40.26,5.53,51,8.49,7,19.82,6.36,27-2.27a25.05,25.05,0,0,0,4.56-8.53c1.45-3.2-2.65-5.47-3.58-.86a17.32,17.32,0,0,1-4,7.59c-6,6.73-15.22,7.11-21.89,1.09-9.32-8.42-12.86-27.42-8.53-38.38,1.42-3.58,3.75-7.26,6-11.48,2.5-4.78,3.13-12.76-4.05-16a11.37,11.37,0,0,0-10.75.67C9,116,9.54,125.29,17.11,127c4.68,1.08,10.16-1.65,9.21-7.31a5.32,5.32,0,0,0-3.82-4.4A5.63,5.63,0,0,0,16.69,117.34ZM85,60c-5.35-2.17-14.9-5.33-20.78-4.95-5,.32-5.55,2.53-8,6-2.87,4.1-7.95,7.74-13,7.81-3.87.15-8-3-10-6a12.83,12.83,0,0,1-1.47-11.53C34.12,45.25,42,42.18,48,44.84s6.3,10.2,2.46,14.81c-2.33,2.8-6,4.15-9.74,2-2.83-1.62-4-5.72-1.86-9.34,3-5.11,6.58-3.11,5.22-.55-.53,1-2.06,2.05-2.38,3.19-1,3.55,3.39,5.33,5.94,2.17a7.88,7.88,0,0,0,1.64-4.19c.16-4.77-5.18-7.15-9.9-4.54a9.12,9.12,0,0,0-4.27,6.22A9.77,9.77,0,0,0,37,61.86c4.88,6.4,12.58,3.07,16.24-2.94,2.52-4.13,4.14-6.44,8.85-7.21a29.48,29.48,0,0,1,9.66.35c2.13.39,11.1,3.15,13.29,4,2.19-.87,11.16-3.63,13.29-4A29.5,29.5,0,0,1,108,51.7c4.71.77,6.33,3.08,8.85,7.21,3.66,6,11.36,9.35,16.24,2.94a9.78,9.78,0,0,0,1.87-7.25,9.14,9.14,0,0,0-4.27-6.22c-4.72-2.62-10.06-.23-9.91,4.54a7.88,7.88,0,0,0,1.64,4.19c2.56,3.16,7,1.38,5.95-2.17-.32-1.14-1.86-2.19-2.39-3.19-1.36-2.56,2.26-4.56,5.22.55,2.1,3.62,1,7.72-1.86,9.34-3.73,2.13-7.4.79-9.74-2-3.84-4.61-3.44-12.2,2.46-14.81s13.87.41,16.22,6.58a12.84,12.84,0,0,1-1.47,11.53c-2,3-6.11,6.14-10,6-5.06-.07-10.15-3.71-13-7.81-2.44-3.49-3-5.7-8-6C99.89,54.72,90.35,57.88,85,60Zm0-18.11c-3.7,0-7.34.21-10.38.39a74.85,74.85,0,0,0-13.46,2.51l-.73.24c-4.8,1.56-4.26,2-5.54-.84L50,33.32c-.67-1.49-.51-1.89.83-1.23l9.33,4.58c2.08,1,4.25,1.16,4.21-1.88l-.07-6.55c0-2.47,1.18-.81,2.11.18l7.19,7.67c2.08,2.22,3.49,2,4.42-.82l6.54-19.84c.26-.79.68-.79.94,0L92,35.26c.93,2.82,2.34,3,4.42.82l7.19-7.67c.93-1,2.13-2.65,2.11-.18l-.07,6.55c0,3,2.14,2.9,4.21,1.88l9.33-4.58c1.34-.66,1.51-.25.84,1.23l-4.93,10.91c-1.28,2.83-.74,2.4-5.54.84l-.73-.24a74.77,74.77,0,0,0-13.46-2.51C92.34,42.15,88.7,41.94,85,41.94Zm0,3.71a99,99,0,0,0-10.95.45c-5.3.61-10.73,1.39-15.62,3.53-2.11.92-4,2.34-5.35-.58L44.17,29.75c-2.14-4.64,1.05-4.85,2.11-4.32L58.63,31.7c1.63.83,1.91.61,1.9-1.13l0-9.07c0-2.4,1.91-2.6,3.53-.92l8.67,9c1.93,2,2.38,2.69,3.23.14L82.57,9.89c.51-1.3.86-3.46,2.43-3.46s1.91,2.16,2.43,3.46l6.65,19.85c.85,2.55,1.31,1.86,3.23-.14l8.67-9c1.61-1.68,3.54-1.48,3.53.92l0,9.07c0,1.74.27,2,1.9,1.13l12.35-6.27c1.06-.54,4.25-.32,2.11,4.32L116.91,49c-1.35,2.92-3.23,1.5-5.34.58-4.88-2.13-10.32-2.91-15.62-3.53A99,99,0,0,0,85,45.66ZM83.28,69.92c-4.8-3.85-7.41-5.53-14-5.53-10.66,0-12.69,7.35-20,12.49-4.48,3.13-6.12,6-6.15,9.34,0,2.77,1.1,5.84,2.6,9.62s3.89,7.49,5.62,11.34c2.08,4.65,3.91,11.72,3.91,16.78,0,5.31-3.75,11.68-5.9,16.73-1,4.84.39,4.85,4.3,6.48.95.39,1.94.49,2.82.86,3.25,1.35,1.87,4.16-2.12,3.56a20.36,20.36,0,0,1-6.48-3c-2.83-2-3.15-5.08-2.46-8.3.74-3.44,2.89-6.72,4.28-9.9,1.79-6,2-7.74.58-14.26a27.46,27.46,0,0,0-2.68-7.73c-1.74-2.85-3.47-6.87-5-10-2.26-4.59-3.55-8.84-3.23-12.78s2.31-7.67,6.65-11c10-6.13,9.59-13.87,24.11-13.87,9.51,0,12.42,5.13,14.92,5.13s5.42-5.13,14.92-5.13c14.52,0,14.15,7.74,24.11,13.87,4.33,3.35,6.32,7,6.65,11s-1,8.19-3.23,12.78c-1.54,3.12-3.27,7.14-5,10a27.52,27.52,0,0,0-2.68,7.73c-1.4,6.53-1.2,8.23.59,14.26,1.39,3.18,3.54,6.47,4.28,9.9.7,3.22.37,6.31-2.46,8.3a20.38,20.38,0,0,1-6.48,3c-4,.61-5.38-2.2-2.12-3.56.88-.36,1.88-.46,2.82-.86,3.91-1.63,5.33-1.64,4.29-6.48-2.16-5.05-5.9-11.43-5.9-16.73,0-5.06,1.83-12.13,3.91-16.78,1.72-3.85,4.07-7.45,5.61-11.34s2.62-6.85,2.6-9.62c0-3.32-1.68-6.2-6.15-9.34-7.36-5.15-9.39-12.49-20-12.49-6.58,0-9.2,1.68-14,5.53A2.44,2.44,0,0,1,83.28,69.92ZM17.5,76.07c2-7.77,10.14-10.61,14.83-5.34C35.08,73.82,35.76,80,31,81.54a6.6,6.6,0,0,1-6.22-1.47c-3.23-2.76-.05-7.25,3.6-4.73a13.6,13.6,0,0,0,2.11,1.48c2.27.74,3.33-1.9,1.31-3.69-.33-.29-.71-.58-1.08-.94a6.68,6.68,0,0,0-9.61.77c-2.51,3.1-1.49,8,1.69,10.45,7.86,6.12,16.69.51,15.75-8.56a11.38,11.38,0,0,0-3.69-7.22c-5.48-5.1-13.47-4.41-18.28,1.63-3.85,4.84-3.68,10.8-3.18,17,.44,5.56,4.74,17.38,9.08,21,2.81,2.34,5.2.27,3-2.44-.51-.64-1.12-1.22-1.47-1.71A39.19,39.19,0,0,1,17.4,86.2,26.68,26.68,0,0,1,17.5,76.07ZM51.07,176.36a13.9,13.9,0,0,0,5.5-9.43c1.15-11.06-9.43-12.67-14.11-18.67-1.86-2.39-2.53-5.61-1-11.41l1.46-5.49c1.61-4.79-2.69-6.38-3.7-1.93l-1.8,7.93c-.86,3.8-1,6.92,0,9.72,3.11,9.2,15.66,9.45,15.39,19.27-.1,3.63-2.5,7-7.13,8.52-5.86,1.92-12.34-4.16-9.54-10.12a5.36,5.36,0,0,1,5.14-2.85c3.31.27,4.85,1.81,5.14,3.35.82,4.38-3.64,4.19-6.2,2.15-1.86-1.48-4.77,1.36-.67,4.11a7,7,0,0,0,11-5.32c.44-5.48-5-9.39-11.22-8.23-7.4,1.38-9.89,9.17-6.49,15.21C36.4,179.44,45.22,181,51.07,176.36Z" transform="translate(-10.98 -0.58)" style="fill: currentColor;fill-rule: evenodd"/>
</svg>
