<svg id="Layer_1" data-name="Layer 1" xmlns="http://www.w3.org/2000/svg" viewBox="0 0 165.11 84.71">
  <title>logo--text</title>
  <path d="M142.15,12.53h3.58v19h-3.58ZM17.44,32.68h4.73V45.93L37.79,32.68h6.81L31.83,43.52,46.34,62.69H40.82L28.47,46.37l-6.29,5.34v11H17.44Zm34.13,0h4.73v30H51.57Zm36.32,0h4.73v30H90.71L71.32,41.36V62.69H66.59v-30h2.79L87.89,53ZM135,56.53a20.11,20.11,0,0,1-15.84,7.16c-10.49,0-19-7.14-19-16s8.5-16,19-16A20.12,20.12,0,0,1,135,38.88l-4,2.76A15,15,0,0,0,119.2,36.4c-7.74,0-14,5.07-14,11.33s6.28,11.33,14,11.33a15.35,15.35,0,0,0,11.11-4.42V51.22h-7.4V46.48H135Zm33.31-19.94c-5.23-.87-11-.16-10.52,4.2.38,3.21,6.11,2.86,8.31,3a37.3,37.3,0,0,1,5.77.66c2.94.61,6.1,1.79,7.93,4.3A7.85,7.85,0,0,1,181.29,54a9.71,9.71,0,0,1-2.8,6.38c-3.71,3.65-10,3.78-14.78,3a30.79,30.79,0,0,1-11.44-4l-.87-.58,2.43-4.06,1,.68a26.27,26.27,0,0,0,9.57,3.3c3.13.48,8.29.69,10.74-1.73a5.05,5.05,0,0,0,1.41-3.36,3.16,3.16,0,0,0-.55-2.19c-1.77-2.42-7.36-2.9-10.11-3L164,48.39c-3.13-.16-7.05-.49-9.29-3a6.66,6.66,0,0,1-1.61-4.77,8.23,8.23,0,0,1,2-5.24c3-3.44,8.4-3.9,12.63-3.47,3.45.35,8.22,1.54,10.94,3.79l.75.62-2.58,4A14.77,14.77,0,0,0,168.36,36.59Z" transform="translate(-17.44 -12.53)" style="fill: #1b1918;fill-rule: evenodd"/>
  <path d="M76.48,73.68V89.15c0,4.16,4.14,4.49,7,4.49s7-.32,7-4.49V73.68h4.24V89.19c0,7-6,8-11.28,8s-11.28-1.07-11.28-8V73.68Zm-23.6-.55c7.69,0,13.93,5.4,13.93,12.06S60.57,97.24,52.88,97.24s-13.93-5.4-13.93-12.06S45.18,73.13,52.88,73.13Zm0,3.54c5.55,0,10,3.81,10,8.51s-4.5,8.51-10,8.51-10.05-3.81-10.05-8.51S47.33,76.67,52.88,76.67Zm65.28-3h4.24V96.56h-2.24l-14.08-15.3v15.3h-4.24V73.68h1.85L118.16,89.4Zm42.34,0h21.18v3.8H164.73v5h10.88v3.8H164.73v6.52h17.82v3.8H160.5ZM144.64,87.84V84h9.51v6.42a14.17,14.17,0,0,1-12.44,6.78c-7.69,0-13.93-5.4-13.93-12.06S134,73.13,141.71,73.13a14.45,14.45,0,0,1,12,5.94L150.44,81a10.47,10.47,0,0,0-8.73-4.29c-5.55,0-10,3.81-10,8.51s4.5,8.51,10,8.51a10.54,10.54,0,0,0,8.58-4.08V87.84ZM17.44,73.68h4.23V92.76H38.33v3.8H17.44Z" transform="translate(-17.44 -12.53)" style="fill: #1b1918;fill-rule: evenodd"/>
</svg>
