<svg id="Layer_1" data-name="Layer 1" xmlns="http://www.w3.org/2000/svg" viewBox="0 0 20.17 20.17">
  <title>mail-icon</title>
  <g>
    <path d="M20,6.94l-6-6a1.84,1.84,0,0,0-2.6,0L1,11.46a1.84,1.84,0,0,0,0,2.6l6,6a1.84,1.84,0,0,0,2.6,0L20,9.54A1.84,1.84,0,0,0,20,6.94ZM8,19.32a.6.6,0,0,1-.24-.14l-6-6H8v6.13ZM2.19,12,12,2.19V11.7a.27.27,0,0,1-.27.27Zm7.08,6.62V13.19H11.7a1.49,1.49,0,0,0,1.49-1.49V9.26h5.39ZM13.19,8V1.82h0l6,6a.6.6,0,0,1,.14.24Z" transform="translate(-0.42 -0.42)"/>
    <path d="M1,3H7.29a.6.6,0,1,0,0-1.19H1A.6.6,0,1,0,1,3Z" transform="translate(-0.42 -0.42)"/>
    <path d="M1,5.36H4.95a.6.6,0,0,0,0-1.19H1A.6.6,0,1,0,1,5.36Z" transform="translate(-0.42 -0.42)"/>
    <path d="M1,7.64H3.56a.6.6,0,0,0,0-1.19H1A.6.6,0,1,0,1,7.64Z" transform="translate(-0.42 -0.42)"/>
    <path d="M3.56,18.62H1a.6.6,0,0,0,0,1.19H3.56a.6.6,0,0,0,0-1.19Z" transform="translate(-0.42 -0.42)"/>
  </g>
</svg>
