<svg id="Layer_1" data-name="Layer 1" xmlns="http://www.w3.org/2000/svg" viewBox="0 0 22.44 28">
  <title>placeholder-icon</title>
  <g>
    <path d="M15.21,1h-.41a11.35,11.35,0,0,0-11,11.29c0,7.83,8.72,15.07,10.46,16.44a1.22,1.22,0,0,0,1.51,0c1.75-1.37,10.46-8.6,10.46-16.44A11.35,11.35,0,0,0,15.21,1ZM15,26.19c-2.35-2-8.77-8-8.77-13.89a8.89,8.89,0,0,1,8.71-8.85h.12a8.89,8.89,0,0,1,8.71,8.85C23.77,18.23,17.35,24.21,15,26.19Z" transform="translate(-3.78 -1)" style="fill: #070707"/>
    <path d="M15.08,6.67a5.17,5.17,0,1,0,5.17,5.17A5.17,5.17,0,0,0,15.08,6.67Zm0,7.9a2.73,2.73,0,1,1,2.73-2.73A2.73,2.73,0,0,1,15.08,14.57Z" transform="translate(-3.78 -1)" style="fill: #070707"/>
  </g>
</svg>
