<svg id="Layer_1" data-name="Layer 1" xmlns="http://www.w3.org/2000/svg" viewBox="0 0 40.89 43.09">
  <title>pswp-share-icon</title>
  <path d="M34.68,28A7.73,7.73,0,0,0,29,30.56L16.62,24.62a7.67,7.67,0,0,0,0-5.24L29,13.45a7.75,7.75,0,1,0-2-5.23,7.71,7.71,0,0,0,.1,1.2L13.89,15.73a7.76,7.76,0,1,0,0,12.53L27,34.58A7.76,7.76,0,1,0,34.68,28Zm0-23a3.18,3.18,0,1,1-2.34,5.32l-.64-.7-.15-.94a3.31,3.31,0,0,1,0-.49A3.18,3.18,0,0,1,34.68,5Zm-22.37,18L12,24l-.8.59a3.14,3.14,0,0,1-1.86.61,3.18,3.18,0,1,1,1.87-5.74L12,20l.32.91A3.19,3.19,0,0,1,12.5,22,3.12,3.12,0,0,1,12.31,23.07ZM34.68,39a3.18,3.18,0,0,1-3.18-3.18,3.45,3.45,0,0,1,0-.5l.14-.93.65-.71a3.14,3.14,0,0,1,2.34-1,3.18,3.18,0,1,1,0,6.36Z" transform="translate(-1.56 -0.45)"/>
</svg>
