<svg id="Layer_1" data-name="Layer 1" xmlns="http://www.w3.org/2000/svg" viewBox="0 0 43.02 42.53">
  <title>pswp-zoom-in-icon</title>
  <g>
    <path d="M22.93,17.53h-2.7v-2.7a1.7,1.7,0,1,0-3.4,0v2.7h-2.7a1.7,1.7,0,1,0,0,3.4h2.7v2.7a1.7,1.7,0,0,0,3.4,0v-2.7h2.7a1.7,1.7,0,0,0,0-3.4Z" transform="translate(-0.49 -0.74)"/>
    <path d="M41.65,32.46,35.1,25.9A18,18,0,1,0,26.33,35l6.37,6.37a6.33,6.33,0,1,0,9-9ZM39.25,39a2.93,2.93,0,0,1-4.14,0l-8.22-8.23a14.63,14.63,0,1,1,4-4.24l8.32,8.32A2.93,2.93,0,0,1,39.25,39Z" transform="translate(-0.49 -0.74)"/>
  </g>
</svg>
