<svg id="Layer_1" data-name="Layer 1" xmlns="http://www.w3.org/2000/svg" viewBox="0 0 43.21 41.5">
  <title>pswp-minimize-icon</title>
  <g>
    <path d="M14.64,4.32A2.34,2.34,0,0,0,12.3,6.66V9.84l-7.9-7.9A2.34,2.34,0,0,0,1.08,5.25L8.8,13H6a2.34,2.34,0,1,0,0,4.68h8.46a2.38,2.38,0,0,0,.46,0l.2-.06.24-.07.22-.12.18-.1A2.29,2.29,0,0,0,16.1,17h0l.07-.09A2.33,2.33,0,0,0,17,15.11V6.66A2.34,2.34,0,0,0,14.64,4.32Z" transform="translate(-0.4 -1.25)"/>
    <path d="M16.19,27.14a2.35,2.35,0,0,0-.44-.4l-.17-.1-.23-.12-.24-.07-.2-.06a2.33,2.33,0,0,0-.46,0H6A2.34,2.34,0,0,0,6,31H8.8L1.08,38.75a2.34,2.34,0,1,0,3.31,3.31l7.9-7.9v3.18a2.34,2.34,0,0,0,4.68,0V28.88A2.33,2.33,0,0,0,16.19,27.14Z" transform="translate(-0.4 -1.25)"/>
    <path d="M42.92,38.75,35.2,31H38a2.34,2.34,0,1,0,0-4.68H29.55a2.32,2.32,0,0,0-.46,0l-.21.06-.23.07-.24.13-.16.09A3.05,3.05,0,0,0,27,28.88v8.46a2.34,2.34,0,0,0,4.68,0V34.16l7.91,7.9a2.34,2.34,0,0,0,3.31-3.31Z" transform="translate(-0.4 -1.25)"/>
    <path d="M27.71,16.86a2.33,2.33,0,0,0,.44.4l.17.09.24.12.23.07.21.06a2.32,2.32,0,0,0,.46,0h8.46a2.34,2.34,0,1,0,0-4.68h-2.8l7.72-7.72a2.34,2.34,0,0,0-3.31-3.31l-7.9,7.9V6.66a2.34,2.34,0,1,0-4.68,0v8.46A2.33,2.33,0,0,0,27.71,16.86Z" transform="translate(-0.4 -1.25)"/>
  </g>
</svg>
