<svg id="Layer_1" data-name="Layer 1" xmlns="http://www.w3.org/2000/svg" viewBox="0 0 43.21 41.5">
  <title>pswp-expand-icon</title>
  <g>
    <path d="M8.58,5.94h2.8a2.34,2.34,0,0,0,0-4.68H2.91a2.35,2.35,0,0,0-.44,0l-.2.06L2,1.43l-.22.12-.18.1a2.29,2.29,0,0,0-.35.29h0L1.19,2A2.33,2.33,0,0,0,.4,3.78v8.46a2.34,2.34,0,0,0,4.68,0V9.06L13,17a2.34,2.34,0,0,0,3.31-3.31Z" transform="translate(-0.4 -1.25)"/>
    <path d="M13,27l-7.9,7.9V31.76a2.34,2.34,0,0,0-4.68,0v8.46A2.33,2.33,0,0,0,1.19,42a2.35,2.35,0,0,0,.44.4l.17.09.23.12.23.07.2.06a2.33,2.33,0,0,0,.46,0h8.46a2.34,2.34,0,0,0,0-4.68H8.58l7.72-7.72A2.34,2.34,0,0,0,13,27Z" transform="translate(-0.4 -1.25)"/>
    <path d="M41.26,29.42a2.34,2.34,0,0,0-2.34,2.34v3.18L31,27a2.34,2.34,0,0,0-3.31,3.31l7.72,7.72h-2.8a2.34,2.34,0,0,0,0,4.68h8.46a2.32,2.32,0,0,0,.46,0l.21-.06.23-.07.24-.13.16-.09a3.05,3.05,0,0,0,1.23-2.14V31.76A2.34,2.34,0,0,0,41.26,29.42Z" transform="translate(-0.4 -1.25)"/>
    <path d="M29.26,17.65A2.33,2.33,0,0,0,30.92,17l7.9-7.9v3.18a2.34,2.34,0,1,0,4.68,0V3.78A2.33,2.33,0,0,0,42.72,2a2.35,2.35,0,0,0-.44-.4l-.17-.09-.24-.12-.23-.07-.21-.06a2.32,2.32,0,0,0-.46,0H32.52a2.34,2.34,0,1,0,0,4.68h2.8l-7.72,7.72a2.34,2.34,0,0,0,1.66,4Z" transform="translate(-0.4 -1.25)"/>
  </g>
</svg>
