<svg id="Layer_2" data-name="Layer 2" xmlns="http://www.w3.org/2000/svg" viewBox="0 0 57.79 74.68">
  <title>service-icon</title>
  <path d="M66.7,6.32H47.23A2.22,2.22,0,0,0,45,8.54v1.54a7.5,7.5,0,0,0,5.26,7.15v3.32a6.7,6.7,0,0,0,4.47,6.31v2.09a15,15,0,0,1,4.44,0V26.85a6.7,6.7,0,0,0,4.47-6.31V17.22a7.5,7.5,0,0,0,5.26-7.15V8.54A2.22,2.22,0,0,0,66.7,6.32Z" transform="translate(-16.11 -6.32)" style="fill: #ffda00"/>
  <path d="M36,32.38l0,0a8.83,8.83,0,0,0-2.56,6.93,101.92,101.92,0,0,1,.09,15c-.66,8.22-2.49,11.78-3.92,13.31a4.14,4.14,0,0,1-3.21,1.46c-1.32,0-5.34,0-5.77-10.46a39.85,39.85,0,0,1,.9-10.09L23.94,37.2l.77.17A2.22,2.22,0,1,0,25.65,33l-.77-.17,3.94-18.15a2.22,2.22,0,0,0-4.34-.94L20.55,31.92l-.82-.18a2.22,2.22,0,1,0-.94,4.34l.82.18L17.14,47.58a44.28,44.28,0,0,0-1,11.22c.18,4.33.94,7.62,2.32,10a8.68,8.68,0,0,0,7.89,4.67,8.53,8.53,0,0,0,6.46-2.88c6-6.43,5.68-22.58,5-31.64a4.4,4.4,0,0,1,1.27-3.45l0,0a4.4,4.4,0,0,1,5.67-.46,15.11,15.11,0,0,1,3.1-3.2A8.84,8.84,0,0,0,36,32.38Z" transform="translate(-16.11 -6.32)" style="fill: #ffda00"/>
  <path d="M69.38,59.81a10.59,10.59,0,0,0,1.12-4.74,11,11,0,0,0-3.53-8,10.54,10.54,0,1,0-20,0,11,11,0,0,0-3.53,8,10.59,10.59,0,0,0,1.12,4.74,13.44,13.44,0,0,0,.7,20.67,2.22,2.22,0,0,0,1.42.51H67.26a2.22,2.22,0,0,0,1.42-.51,13.43,13.43,0,0,0,.7-20.67Z" transform="translate(-16.11 -6.32)" style="fill: #ffda00"/>
</svg>
