<svg id="Layer_2" data-name="Layer 2" xmlns="http://www.w3.org/2000/svg" viewBox="0 0 75.27 72">
  <title>vip-icon</title>
  <g>
    <path d="M54.8,45H53.16v3.27H54.8a1.64,1.64,0,1,0,0-3.27Z" transform="translate(-7.37 -9)" style="fill: #ffda00"/>
    <path d="M82.55,36.29a1.64,1.64,0,0,0-1.34-1.1l-23.7-3.14L46.46,9.9a1.63,1.63,0,0,0-2.93,0L32.48,32.05,8.79,35.19A1.64,1.64,0,0,0,7.84,38L25.23,55.35,20.49,79a1.64,1.64,0,0,0,2.34,1.79L45,69.74,67.18,80.83A1.64,1.64,0,0,0,69.52,79L64.78,55.36,82.16,38A1.65,1.65,0,0,0,82.55,36.29ZM41.6,44,36.69,57.05a1.64,1.64,0,0,1-3.06,0L28.72,44a1.64,1.64,0,1,1,3.06-1.15l3.38,9,3.38-9A1.64,1.64,0,1,1,41.6,44Zm5,12.51a1.64,1.64,0,0,1-3.27,0V43.38a1.64,1.64,0,0,1,3.27,0Zm8.18-4.91H53.16v4.91a1.64,1.64,0,0,1-3.27,0V43.38a1.64,1.64,0,0,1,1.64-1.64H54.8a4.91,4.91,0,0,1,0,9.82Z" transform="translate(-7.37 -9)" style="fill: #ffda00"/>
  </g>
</svg>
