<svg id="Capa_1" data-name="Capa 1" xmlns="http://www.w3.org/2000/svg" viewBox="0 0 112.2 112.2">
  <title>vk-icon</title>
  <path d="M56.1,0a56.1,56.1,0,1,0,56.1,56.1A56.1,56.1,0,0,0,56.1,0ZM88.25,80.7l-9.84.14s-2.12.42-4.9-1.49c-3.68-2.53-7.1-9.11-9.85-8.24S61,77.89,61,77.89a3.22,3.22,0,0,1-.6,1.93,3.71,3.71,0,0,1-2,.88H54s-9.74.59-18.33-8.32c-9.33-9.72-17.57-29-17.57-29s-.58-1.15,0-1.88,2.16-.73,2.16-.73l10.52-.07a4.59,4.59,0,0,1,1.7.69,3.29,3.29,0,0,1,.91,1.23,70.62,70.62,0,0,0,4,8.19c4.4,7.6,6.45,9.26,7.94,8.45,2.17-1.19,1.52-10.74,1.52-10.74s0-3.46-1.1-5a5,5,0,0,0-3.27-1.64c-.59-.07.38-1.45,1.64-2.07,1.89-.94,5.19-.94,9.19-.94a18.91,18.91,0,0,1,5.17.51c3.63.88,2.4,4.26,2.4,12.38,0,2.6-.46,6.26,1.41,7.47.81.52,2.78.08,7.71-8.3a64.13,64.13,0,0,0,4.13-8.63,3.1,3.1,0,0,1,1-1.19,2.51,2.51,0,0,1,1.43-.25l11.08-.07s3.31-.48,3.87,1.1-1.24,5.29-5.77,11.29c-7.43,9.9-8.26,9-2.09,14.7C89.54,73.34,90.76,76,91,76.34,93.4,80.38,88.25,80.7,88.25,80.7Z" transform="translate(0 0)" style="fill: #4d76a1"/>
</svg>
