<svg id="Layer_1" data-name="Layer 1" xmlns="http://www.w3.org/2000/svg" viewBox="0 0 236.1 203.4">
  <title>abstract-pattern</title>
  <circle cx="100.28" cy="112.05" r="31.27" style="fill: #bf890e"/>
  <circle cx="29.45" cy="148.48" r="11.39" style="fill: none;stroke: #bf890e;stroke-miterlimit: 10;stroke-width: 3px"/>
  <circle cx="183.34" cy="19.54" r="11.39" style="fill: none;stroke: #e8a82b;stroke-miterlimit: 10;stroke-width: 3px"/>
  <polygon points="155.29 182.84 145.25 182.84 145.25 172.79 134.74 172.79 134.74 182.84 124.69 182.84 124.69 193.35 134.74 193.35 134.74 203.4 145.25 203.4 145.25 193.35 155.29 193.35 155.29 182.84" style="fill: #bf890e"/>
  <path d="M220.75,135.9c-5.59,5.59-11.75,5.21-16.7,4.9-4.41-.27-7.89-.49-11.21,2.82s-3.1,6.8-2.82,11.21c.31,4.95.69,11.11-4.9,16.7s-11.75,5.21-16.7,4.9c-4.41-.27-7.89-.49-11.21,2.82s-3.1,6.8-2.82,11.21c.31,4.95.69,11.11-4.9,16.7s-11.75,5.21-16.7,4.9c-4.41-.27-7.89-.49-11.21,2.82a3.57,3.57,0,1,1-5-5c5.59-5.59,11.75-5.21,16.7-4.9,4.41.27,7.89.49,11.21-2.82s3.1-6.8,2.82-11.21c-.31-4.95-.69-11.11,4.9-16.7s11.75-5.21,16.7-4.9c4.41.27,7.89.49,11.21-2.82s3.1-6.8,2.82-11.21c-.31-4.95-.69-11.11,4.9-16.7s11.75-5.21,16.7-4.9c4.41.27,7.89.49,11.21-2.82a3.57,3.57,0,0,1,5,5Z" transform="translate(-34.39 -43.15)" style="fill: #e8a82b"/>
  <g>
    <polygon points="65.45 17.95 7.22 33.55 49.85 76.17 65.45 17.95" style="fill: none;stroke: #e8a82b;stroke-miterlimit: 10;stroke-width: 1.99276px"/>
    <polygon points="60.15 1.41 1.93 17.01 44.55 59.64 60.15 1.41" style="fill: none;stroke: #bf890e;stroke-miterlimit: 10;stroke-width: 1.99276px"/>
  </g>
  <g>
    <polygon points="229.49 123.26 194.73 103.19 194.73 143.33 229.49 123.26" style="fill: none;stroke: #bf890e;stroke-miterlimit: 10;stroke-width: 1.3267px"/>
    <polygon points="234.78 112.98 200.02 92.91 200.02 133.04 234.78 112.98" style="fill: none;stroke: #e8a82b;stroke-miterlimit: 10;stroke-width: 1.3267px"/>
  </g>
</svg>
