<svg xmlns="http://www.w3.org/2000/svg" viewBox="0 0 128 128">
  <title>logo--mobile</title>
  <g id="Layer_1" data-name="Layer 1">
    <circle cx="64" cy="64" r="64" style="fill: #ffda00"/>
  </g>
  <g id="Layer_2" data-name="Layer 2">
    <path d="M86.54,35.91c1.14.41.67,1.67,1.16,2.51.37.64,1.39.37,1.6-.38a3.33,3.33,0,0,0-2.19-3.89A3.28,3.28,0,0,0,83,35.89c-.27.73.39,1.55,1.07,1.25C85,36.74,85.39,35.5,86.54,35.91Zm8.37,2.63c1.06.61.38,1.76.71,2.68.26.7,1.3.6,1.64-.1a3.33,3.33,0,0,0-1.49-4.21,3.28,3.28,0,0,0-4.31,1c-.39.67.11,1.6.84,1.41C93.24,39.09,93.85,37.94,94.91,38.55ZM93.79,84.3c-1.69-2.28.47-2.55,2.09-3.57a7.67,7.67,0,0,0,2.81-3.36,29.72,29.72,0,0,0,1.43-4.43l.57-2.48c.46-1.7,2.33-1.73,1.62,1.43a35.17,35.17,0,0,1-1.61,5.37,9.51,9.51,0,0,1-3.81,5.09c-1.12.68-1.77.85-.6,1.81l2.35,2.27c3.13,3.39,4,6.73,2.49,11.09a11.35,11.35,0,0,1-2.38,4.15.9.9,0,0,1-1.54-.88,36.37,36.37,0,0,0,2.18-4.05c.82-3.72.88-5.83-2.06-8.86A35.53,35.53,0,0,1,93.79,84.3ZM84.62,70.08c.18.23.26.6,1,.31l2.9-1.19-4.57.29C84.13,69.5,84.24,69.59,84.62,70.08Zm-7.21,33.53c.33,4.55,1.31,4.66,5.5,6.33a6.54,6.54,0,0,1,4.29,6.12c.08,5.43-7.15,8.7-10.88,4a5,5,0,0,1,.13-6.71,4.71,4.71,0,0,1,5.47-.91A3.53,3.53,0,0,1,84.21,116c-.19,2.86-3.25,4-5.51,2.36-1.7-1.22-.32-2.84.7-1.82.82.82,2.56,1.22,2.87-.43a2,2,0,0,0-1.55-2.15c-2.79-1-4.48,2.42-3.44,4.39a4.31,4.31,0,0,0,8.06-2.49,4.84,4.84,0,0,0-2.5-4c-2.35-1.41-4.8-.82-6.44-4.13a16.74,16.74,0,0,1-1-5.86A16.71,16.71,0,0,1,75.8,97c.43-1.38,1.47-1.16,1.86,0,.64,1.86.65,4,1.38,5.88.44,1.14,1.28,2.95,2.68,3,1.61.09,1.67-2,0-1.94-2,0-2-1.57,0-1.81s3.83,1.76,3,3.65c-.91,2.21-3.79,2.5-5.46,1.15C78.08,106,77.83,104.47,77.41,103.62ZM107.6,83.39a.83.83,0,0,1-.93,1.32c-.36-.12-.55-.4-1-.46-1.2-.17-1.39,1.41-.36,1.93a2.47,2.47,0,0,0,2.06,0c2-.91,1.42-3.62-.81-4.34a3.68,3.68,0,0,0-2.85.2c-2.81,1.52-1.36,5.29-.2,6.87,5,6.8,3.58,19.22-2.64,24.32-4.05,3.33-9.46,3-12.88-1.08a12,12,0,0,1-2.18-4.07c-.69-1.53,1.26-2.61,1.71-.41a8.26,8.26,0,0,0,1.92,3.62,7.13,7.13,0,0,0,10.45.52c4.45-4,6.14-13.09,4.07-18.32-.68-1.71-1.79-3.46-2.84-5.48-1.2-2.28-1.5-6.09,1.93-7.65a5.43,5.43,0,0,1,5.13.32c3.12,2.1,2.85,6.51-.76,7.34-2.23.51-4.85-.79-4.4-3.49a2.54,2.54,0,0,1,1.82-2.1A2.69,2.69,0,0,1,107.6,83.39Zm-.38-19.7c-.95-3.71-4.84-5.06-7.08-2.55-1.31,1.47-1.63,4.44.64,5.16a3.15,3.15,0,0,0,3-.7A1.42,1.42,0,1,0,102,63.35a6.53,6.53,0,0,1-1,.7c-1.08.35-1.59-.91-.62-1.76.16-.14.34-.27.52-.45a3.18,3.18,0,0,1,4.59.37,3.63,3.63,0,0,1-.8,5c-3.75,2.92-8,.25-7.52-4.08a5.43,5.43,0,0,1,1.76-3.44,5.8,5.8,0,0,1,8.72.78c1.84,2.31,1.75,5.15,1.52,8.12-.21,2.65-2.26,8.29-4.34,10-1.34,1.12-2.48.13-1.45-1.17.24-.3.54-.58.7-.82a18.71,18.71,0,0,0,3.17-8.08A12.75,12.75,0,0,0,107.22,63.7Zm-16,47.87a6.63,6.63,0,0,1-2.62-4.5c-.55-5.28,4.5-6,6.73-8.91.89-1.14,1.21-2.68.47-5.44l-.7-2.62c-.77-2.29,1.28-3,1.76-.92l.86,3.78a8.46,8.46,0,0,1,0,4.64c-1.48,4.39-7.47,4.51-7.34,9.2a4.47,4.47,0,0,0,3.4,4.07c2.8.92,5.89-2,4.55-4.83a2.56,2.56,0,0,0-2.45-1.36c-1.58.13-2.32.87-2.46,1.6-.39,2.09,1.73,2,3,1,.89-.71,2.28.65.32,2a3.36,3.36,0,0,1-5.27-2.54c-.21-2.61,2.38-4.48,5.35-3.93,3.53.66,4.72,4.38,3.1,7.26A5.88,5.88,0,0,1,91.19,111.56ZM75,27.67a3.41,3.41,0,0,0-3.42,2.57c-.14.77.65,1.46,1.27,1,.8-.55.92-1.76,2.15-1.76s1.35,1.21,2.15,1.76c.62.42,1.41-.27,1.27-1A3.41,3.41,0,0,0,75,27.67ZM63.46,35.91c-1.15.41-.68,1.67-1.16,2.51-.37.64-1.39.37-1.6-.38a3.33,3.33,0,0,1,2.19-3.89A3.29,3.29,0,0,1,67,35.89c.27.73-.39,1.55-1.07,1.25C65,36.74,64.61,35.5,63.46,35.91Zm-8.37,2.63c-1.06.61-.38,1.76-.71,2.68-.26.7-1.3.6-1.64-.1a3.33,3.33,0,0,1,1.49-4.21,3.29,3.29,0,0,1,4.31,1c.39.67-.11,1.6-.84,1.41C56.76,39.09,56.15,37.94,55.09,38.55ZM56.21,84.3c1.69-2.28-.47-2.55-2.09-3.57a7.68,7.68,0,0,1-2.81-3.36,29.81,29.81,0,0,1-1.43-4.43l-.57-2.48c-.46-1.7-2.33-1.73-1.62,1.43a35.33,35.33,0,0,0,1.61,5.37,9.51,9.51,0,0,0,3.81,5.09c1.12.68,1.77.85.6,1.81l-2.35,2.27c-3.13,3.39-4,6.73-2.49,11.09a11.35,11.35,0,0,0,2.38,4.15.9.9,0,0,0,1.54-.88,36,36,0,0,1-2.18-4.05c-.82-3.72-.89-5.83,2.06-8.86A35.73,35.73,0,0,0,56.21,84.3ZM75,92.35c-.38,0-.73.46-1,.78a9.06,9.06,0,0,1-6.84,3.35,10.66,10.66,0,0,1-3.65-.56c-1.23-.57-.83-1.87.63-1.68a19.28,19.28,0,0,0,3.08.33c2.57-.08,3.95-1.16,5.68-3C74.15,90.13,74,89.53,74,88.14l-3-1.92a11.57,11.57,0,0,1-1.23-.86c-1.2-1-.38-2.32,1.16-1.52a10.13,10.13,0,0,1,1.29.88l2,1.3a1.12,1.12,0,0,0,1.52,0l2-1.3a10.22,10.22,0,0,1,1.29-.88c1.54-.8,2.36.48,1.16,1.52a11.74,11.74,0,0,1-1.23.86l-3,1.92c0,1.39-.18,2,1.08,3.45,1.72,1.81,3.11,2.9,5.67,3a19.3,19.3,0,0,0,3.08-.33c1.46-.18,1.86,1.11.63,1.68a10.65,10.65,0,0,1-3.65.56A9.06,9.06,0,0,1,76,93.13C75.73,92.81,75.38,92.35,75,92.35ZM65.37,70.08c-.18.23-.26.6-1,.31l-2.9-1.19,4.57.29C65.87,69.5,65.76,69.59,65.37,70.08ZM75,82.93a9.88,9.88,0,0,1-3.22-.55c-2.43-.9-2.32-2.27-2.78-4.49l-1.47-7.19c-.17-.81-.14-1-1-1.13.63.12.45,1,.08,1.46l-.59.72c-.8,1-1.3.55-2.27,0l-2.55-1.32c-.51-.29-1.23-.58-1.79-.93-1.13-.71-1.12-1.88.15-2,.32,0,.69,0,1.1,0,1.35,0,7-.12,7.57.14.76.37.8,1,1,2.07l1.73,8.55c.19.94.13,1.64.88,2.08a9.55,9.55,0,0,0,6.36,0c.75-.44.69-1.14.88-2.08l1.73-8.55c.23-1.12.27-1.7,1-2.07.53-.26,6.22-.15,7.57-.14.41,0,.78,0,1.1,0,1.27.11,1.29,1.28.15,2-.56.35-1.28.64-1.79.93l-2.55,1.32c-1,.5-1.47.94-2.27,0L83.43,71c-.37-.45-.55-1.34.08-1.46-.9.1-.88.32-1,1.13L81,77.88c-.46,2.23-.35,3.59-2.77,4.49A9.89,9.89,0,0,1,75,82.93Zm-2.41,20.69c-.33,4.55-1.31,4.66-5.5,6.33a6.55,6.55,0,0,0-4.29,6.12c-.08,5.43,7.15,8.7,10.88,4a5,5,0,0,0-.13-6.71,4.71,4.71,0,0,0-5.47-.91,3.53,3.53,0,0,0-2.3,3.49c.19,2.86,3.25,4,5.51,2.36,1.7-1.22.32-2.84-.7-1.82-.81.82-2.56,1.22-2.87-.43a2,2,0,0,1,1.55-2.15c2.79-1,4.48,2.42,3.44,4.39a4.31,4.31,0,0,1-8.06-2.49,4.84,4.84,0,0,1,2.5-4c2.35-1.41,4.8-.82,6.44-4.13a16.74,16.74,0,0,0,1-5.86A16.67,16.67,0,0,0,74.2,97c-.43-1.38-1.47-1.16-1.86,0-.64,1.86-.65,4-1.38,5.88-.43,1.14-1.28,2.95-2.68,3-1.61.09-1.67-2,0-1.94,2,0,2-1.57,0-1.81s-3.83,1.76-3,3.65c.91,2.21,3.79,2.5,5.46,1.15C71.92,106,72.17,104.47,72.59,103.62ZM42.4,83.39a.83.83,0,0,0,.93,1.32c.36-.12.55-.4,1-.46,1.2-.17,1.4,1.41.36,1.93a2.47,2.47,0,0,1-2.06,0c-2-.91-1.42-3.62.81-4.34a3.69,3.69,0,0,1,2.85.2c2.81,1.52,1.36,5.29.2,6.87-5,6.8-3.58,19.22,2.64,24.32,4.05,3.33,9.46,3,12.88-1.08a12,12,0,0,0,2.18-4.07c.69-1.53-1.26-2.61-1.71-.41a8.27,8.27,0,0,1-1.92,3.62,7.13,7.13,0,0,1-10.45.52c-4.45-4-6.14-13.09-4.07-18.32C46.73,91.78,47.84,90,48.9,88c1.19-2.28,1.5-6.09-1.93-7.65a5.43,5.43,0,0,0-5.13.32c-3.12,2.1-2.85,6.51.77,7.34,2.23.51,4.85-.79,4.4-3.49a2.54,2.54,0,0,0-1.82-2.1A2.69,2.69,0,0,0,42.4,83.39ZM75,56c-2.55-1-7.11-2.54-9.92-2.36-2.38.15-2.65,1.21-3.81,2.87-1.37,2-3.79,3.69-6.21,3.73-1.85.07-3.83-1.41-4.76-2.85a6.13,6.13,0,0,1-.7-5.5,6,6,0,0,1,7.74-3.14c2.81,1.25,3,4.87,1.17,7.07a3.53,3.53,0,0,1-4.65,1A3.22,3.22,0,0,1,53,52.36c1.41-2.44,3.14-1.48,2.49-.26-.25.48-1,1-1.14,1.52-.48,1.69,1.62,2.54,2.84,1a3.76,3.76,0,0,0,.78-2c.08-2.28-2.47-3.41-4.73-2.17a4.35,4.35,0,0,0-2,3,4.66,4.66,0,0,0,.89,3.46c2.33,3.06,6,1.46,7.75-1.41,1.2-2,2-3.07,4.22-3.44a14.07,14.07,0,0,1,4.61.17c1,.19,5.3,1.5,6.34,1.92,1-.42,5.33-1.73,6.34-1.92A14.08,14.08,0,0,1,86,52.06c2.25.37,3,1.47,4.22,3.44,1.75,2.87,5.42,4.46,7.75,1.41a4.67,4.67,0,0,0,.89-3.46,4.36,4.36,0,0,0-2-3c-2.25-1.25-4.8-.11-4.73,2.17a3.76,3.76,0,0,0,.78,2c1.22,1.51,3.32.66,2.84-1-.15-.54-.89-1-1.14-1.52-.65-1.22,1.08-2.17,2.49.26a3.22,3.22,0,0,1-.89,4.46,3.53,3.53,0,0,1-4.65-1c-1.83-2.2-1.64-5.82,1.17-7.07a6,6,0,0,1,7.74,3.14,6.13,6.13,0,0,1-.7,5.5c-.94,1.44-2.92,2.93-4.77,2.85-2.42,0-4.84-1.77-6.21-3.73-1.16-1.66-1.43-2.72-3.81-2.87C82.11,53.51,77.55,55,75,56Zm0-8.64c-1.76,0-3.5.1-5,.19a35.72,35.72,0,0,0-6.42,1.2l-.35.11c-2.29.75-2,1-2.64-.4l-2.35-5.21c-.32-.71-.24-.9.4-.59l4.45,2.18c1,.49,2,.55,2-.9l0-3.13c0-1.18.56-.39,1,.08l3.43,3.66c1,1.06,1.67,1,2.11-.39l3.12-9.47c.12-.38.32-.38.45,0l3.12,9.47c.44,1.35,1.12,1.45,2.11.39l3.43-3.66c.44-.47,1-1.27,1-.08l0,3.13c0,1.45,1,1.38,2,.9l4.45-2.18c.64-.31.72-.12.4.59L89.37,48.5c-.61,1.35-.35,1.15-2.65.4l-.35-.11A35.68,35.68,0,0,0,80,47.59C78.51,47.51,76.77,47.41,75,47.41Zm0,1.77a47.25,47.25,0,0,0-5.23.21,26.12,26.12,0,0,0-7.45,1.68c-1,.44-1.91,1.12-2.55-.28l-4.25-9.21c-1-2.21.5-2.32,1-2.06l5.89,3c.78.4.91.29.91-.54l0-4.33c0-1.14.91-1.24,1.68-.44l4.14,4.3c.92,1,1.13,1.28,1.54.07l3.18-9.48c.24-.62.41-1.65,1.16-1.65s.91,1,1.16,1.65l3.18,9.48c.41,1.22.62.89,1.54-.07L85,37.21c.77-.8,1.69-.71,1.68.44l0,4.33c0,.83.13.94.91.54l5.89-3c.5-.26,2-.15,1,2.06L90.23,50.8c-.64,1.39-1.54.72-2.55.28a26.13,26.13,0,0,0-7.46-1.68A47.25,47.25,0,0,0,75,49.18Zm-.82,11.58c-2.29-1.84-3.53-2.64-6.68-2.64-5.09,0-6.06,3.51-9.57,6C55.8,65.58,55,67,55,68.54a13.07,13.07,0,0,0,1.24,4.59C57,75,58.09,76.7,58.92,78.54a22.5,22.5,0,0,1,1.87,8c0,2.53-1.79,5.58-2.82,8-.49,2.31.19,2.31,2.05,3.09.45.19.93.24,1.35.41,1.55.64.89,2-1,1.7a9.72,9.72,0,0,1-3.09-1.43c-1.35-1-1.51-2.42-1.17-4a26.75,26.75,0,0,1,2-4.73,10.37,10.37,0,0,0,.28-6.81,13.11,13.11,0,0,0-1.28-3.69c-.83-1.36-1.66-3.28-2.39-4.77a12,12,0,0,1-1.54-6.1A7.28,7.28,0,0,1,56.37,63c4.75-2.92,4.58-6.62,11.51-6.62,4.54,0,5.93,2.45,7.12,2.45s2.58-2.45,7.12-2.45c6.93,0,6.76,3.7,11.51,6.62a7.29,7.29,0,0,1,3.18,5.26,12,12,0,0,1-1.54,6.1c-.73,1.49-1.56,3.41-2.39,4.77a13.13,13.13,0,0,0-1.28,3.69,10.38,10.38,0,0,0,.28,6.81,26.75,26.75,0,0,1,2,4.73c.33,1.54.18,3-1.17,4a9.73,9.73,0,0,1-3.09,1.43c-1.91.29-2.57-1.05-1-1.7.42-.17.9-.22,1.35-.41,1.86-.78,2.54-.78,2-3.09-1-2.41-2.82-5.45-2.82-8a22.5,22.5,0,0,1,1.87-8C91.9,76.7,93,75,93.76,73.13A13,13,0,0,0,95,68.54c0-1.59-.8-3-2.94-4.46-3.51-2.46-4.48-6-9.57-6-3.14,0-4.39.8-6.68,2.64A1.17,1.17,0,0,1,74.18,60.76ZM42.79,63.7c.94-3.71,4.84-5.06,7.08-2.55,1.31,1.47,1.63,4.44-.64,5.16a3.15,3.15,0,0,1-3-.7A1.42,1.42,0,1,1,48,63.35a6.49,6.49,0,0,0,1,.7c1.08.35,1.59-.91.62-1.76-.16-.14-.34-.27-.52-.45a3.19,3.19,0,0,0-4.59.37,3.63,3.63,0,0,0,.81,5c3.75,2.92,8,.25,7.52-4.08a5.43,5.43,0,0,0-1.76-3.44,5.8,5.8,0,0,0-8.72.78c-1.84,2.31-1.75,5.15-1.52,8.12.21,2.65,2.26,8.29,4.34,10,1.34,1.12,2.48.13,1.45-1.17-.24-.3-.54-.58-.7-.82a18.71,18.71,0,0,1-3.16-8.08A12.73,12.73,0,0,1,42.79,63.7Zm16,47.87a6.63,6.63,0,0,0,2.62-4.5c.55-5.28-4.5-6-6.73-8.91-.89-1.14-1.21-2.68-.47-5.44l.7-2.62c.77-2.29-1.28-3-1.76-.92l-.86,3.78a8.45,8.45,0,0,0,0,4.64c1.48,4.39,7.47,4.51,7.34,9.2a4.48,4.48,0,0,1-3.4,4.07c-2.8.92-5.89-2-4.55-4.83a2.56,2.56,0,0,1,2.45-1.36c1.58.13,2.32.87,2.46,1.6.39,2.09-1.74,2-3,1-.89-.71-2.28.65-.32,2a3.36,3.36,0,0,0,5.27-2.54c.21-2.61-2.38-4.48-5.35-3.93-3.53.66-4.72,4.38-3.1,7.26A5.88,5.88,0,0,0,58.81,111.56Z" transform="translate(-11 -11)" style="fill-rule: evenodd"/>
  </g>
</svg>
