<svg id="Layer_1" data-name="Layer 1" xmlns="http://www.w3.org/2000/svg" viewBox="0 0 66.03 100.8">
  <title>map-pin</title>
  <path d="M56.33,9.23a34.11,34.11,0,0,0-46.67,0A30.48,30.48,0,0,0,8.2,52.31q.7.75,1.46,1.46S33,75.6,33,100.8c0-25.2,23.34-47,23.34-47a30.48,30.48,0,0,0,1.48-43.08Q57.1,9.95,56.33,9.23Z" transform="translate(0.01 0)" style="fill: #ffda00"/>
  <path d="M38.39,13.44c.53.19.31.78.54,1.17s.65.17.75-.18a1.55,1.55,0,0,0-1-1.82,1.53,1.53,0,0,0-1.9.81c-.13.34.18.72.5.58S37.86,13.25,38.39,13.44Zm3.91,1.23c.49.28.18.82.33,1.25s.61.28.77,0a1.55,1.55,0,0,0-.69-2,1.53,1.53,0,0,0-2,.47c-.18.31.05.74.39.66S41.81,14.39,42.3,14.67ZM41.78,36c-.79-1.06.22-1.19,1-1.67a3.58,3.58,0,0,0,1.31-1.57,13.88,13.88,0,0,0,.67-2.07L45,29.58c.22-.79,1.09-.81.76.67A16.42,16.42,0,0,1,45,32.75a4.44,4.44,0,0,1-1.78,2.38c-.52.32-.82.4-.28.84L44,37a4.64,4.64,0,0,1,1.16,5.18,5.3,5.3,0,0,1-1.11,1.94.42.42,0,0,1-.72-.41,17,17,0,0,0,1-1.89c.38-1.73.41-2.72-1-4.14A16.59,16.59,0,0,1,41.78,36ZM37.5,29.4c.08.11.12.28.45.15L39.31,29l-2.13.14C37.27,29.13,37.32,29.17,37.5,29.4ZM34.13,45.06c.15,2.12.61,2.18,2.57,3a3.06,3.06,0,0,1,2,2.86,2.89,2.89,0,0,1-5.08,1.89,2.32,2.32,0,0,1,.06-3.13,2.2,2.2,0,0,1,2.55-.43,1.65,1.65,0,0,1,1.07,1.63,1.56,1.56,0,0,1-2.57,1.1c-.79-.57-.15-1.33.33-.85s1.2.57,1.34-.2a.93.93,0,0,0-.72-1c-1.3-.45-2.09,1.13-1.6,2.05a2,2,0,0,0,3.76-1.16,2.26,2.26,0,0,0-1.17-1.87c-1.1-.66-2.24-.38-3-1.93a7.82,7.82,0,0,1-.45-2.74A7.8,7.8,0,0,1,33.38,42c.2-.65.68-.54.87,0,.3.87.31,1.86.64,2.74.2.53.6,1.38,1.25,1.41s.78-.91,0-.91c-.91,0-.94-.73,0-.85a1.32,1.32,0,0,1,1.42,1.7,1.65,1.65,0,0,1-2.55.54A3.47,3.47,0,0,1,34.13,45.06Zm14.1-9.44a.39.39,0,0,1-.43.62c-.17-.06-.25-.18-.47-.21-.56-.08-.65.66-.17.9a1.15,1.15,0,0,0,1,0c.93-.42.66-1.69-.38-2a1.72,1.72,0,0,0-1.33.09c-1.31.71-.63,2.47-.09,3.21,2.32,3.17,1.67,9-1.23,11.36a4.13,4.13,0,0,1-6-.51,5.58,5.58,0,0,1-1-1.9c-.32-.71.59-1.22.8-.19a3.86,3.86,0,0,0,.89,1.69,3.33,3.33,0,0,0,4.88.24c2.08-1.88,2.87-6.11,1.9-8.55-.32-.8-.83-1.62-1.33-2.56a2.48,2.48,0,0,1,.9-3.57,2.54,2.54,0,0,1,2.4.15c1.46,1,1.33,3-.36,3.43-1,.24-2.26-.37-2.05-1.63a1.19,1.19,0,0,1,.85-1A1.25,1.25,0,0,1,48.23,35.62ZM48,26.42c-.44-1.73-2.26-2.36-3.31-1.19-.61.69-.76,2.07.3,2.41a1.47,1.47,0,0,0,1.39-.33.67.67,0,1,0-.8-1.05,3,3,0,0,1-.47.33c-.51.16-.74-.42-.29-.82l.24-.21a1.49,1.49,0,0,1,2.14.17,1.69,1.69,0,0,1-.38,2.33,2.09,2.09,0,0,1-3.51-1.91,2.53,2.53,0,0,1,.82-1.61,2.71,2.71,0,0,1,4.07.36A5.1,5.1,0,0,1,49,28.69c-.1,1.24-1.06,3.87-2,4.68-.63.52-1.16.06-.68-.54.11-.14.25-.27.33-.38a8.74,8.74,0,0,0,1.48-3.77A6,6,0,0,0,48,26.42ZM40.57,48.77a3.1,3.1,0,0,1-1.23-2.1c-.26-2.46,2.1-2.82,3.14-4.16A2.7,2.7,0,0,0,42.71,40l-.33-1.22c-.36-1.07.6-1.42.82-.43l.4,1.77a4,4,0,0,1,0,2.17c-.69,2-3.49,2.11-3.43,4.29a2.09,2.09,0,0,0,1.59,1.9,1.72,1.72,0,0,0,2.13-2.26,1.19,1.19,0,0,0-1.14-.64c-.74.06-1.08.4-1.15.75-.18,1,.81.93,1.38.48.41-.33,1.06.3.15.92a1.57,1.57,0,0,1-2.46-1.19,1.93,1.93,0,0,1,2.5-1.83,2.22,2.22,0,0,1,1.45,3.39A2.74,2.74,0,0,1,40.57,48.77ZM33,9.59a1.59,1.59,0,0,0-1.6,1.2c-.06.36.31.68.59.49s.43-.82,1-.82.63.57,1,.82.66-.13.59-.49A1.59,1.59,0,0,0,33,9.59Zm-5.39,3.85c-.54.19-.32.78-.54,1.17s-.65.17-.75-.18a1.55,1.55,0,0,1,1-1.82,1.53,1.53,0,0,1,1.9.81c.13.34-.18.72-.5.58S28.15,13.25,27.62,13.44Zm-3.91,1.23c-.49.28-.18.82-.33,1.25s-.61.28-.76,0a1.55,1.55,0,0,1,.69-2,1.53,1.53,0,0,1,2,.47c.18.31-.05.74-.39.66S24.2,14.39,23.71,14.67ZM24.23,36c.79-1.06-.22-1.19-1-1.67a3.59,3.59,0,0,1-1.31-1.57,13.92,13.92,0,0,1-.67-2.07L21,29.58c-.22-.79-1.09-.81-.76.67A16.5,16.5,0,0,0,21,32.75a4.44,4.44,0,0,0,1.78,2.38c.52.32.82.4.28.84L22,37a4.64,4.64,0,0,0-1.16,5.18,5.3,5.3,0,0,0,1.11,1.94.42.42,0,0,0,.72-.41,16.79,16.79,0,0,1-1-1.89c-.38-1.73-.41-2.72,1-4.14A16.69,16.69,0,0,0,24.23,36ZM33,39.8c-.18,0-.34.22-.47.36a4.23,4.23,0,0,1-3.19,1.57,5,5,0,0,1-1.71-.26c-.57-.27-.39-.87.3-.79a9,9,0,0,0,1.44.15A3.49,3.49,0,0,0,32,39.44a1.81,1.81,0,0,0,.5-1.61l-1.38-.89a5.4,5.4,0,0,1-.58-.4c-.56-.49-.18-1.08.54-.71a4.73,4.73,0,0,1,.6.41l.93.61a.52.52,0,0,0,.71,0l.93-.61a4.77,4.77,0,0,1,.6-.41c.72-.37,1.1.22.54.71a5.48,5.48,0,0,1-.58.4l-1.38.89a1.81,1.81,0,0,0,.5,1.61,3.48,3.48,0,0,0,2.65,1.39,9,9,0,0,0,1.44-.15c.68-.08.87.52.3.79a5,5,0,0,1-1.71.26,4.23,4.23,0,0,1-3.2-1.57C33.34,40,33.18,39.8,33,39.8ZM28.51,29.4c-.08.11-.12.28-.45.15L26.7,29l2.13.14C28.74,29.13,28.69,29.17,28.51,29.4Zm4.49,6a4.61,4.61,0,0,1-1.5-.26c-1.13-.42-1.08-1.06-1.3-2.1l-.69-3.36c-.08-.38-.07-.48-.49-.53.29.06.21.47,0,.68l-.27.34c-.37.46-.61.26-1.06,0l-1.19-.61c-.24-.13-.57-.27-.83-.43-.53-.33-.52-.88.07-.93.15,0,.32,0,.51,0a31.61,31.61,0,0,1,3.53.07c.35.17.37.45.48,1l.81,4c.09.44.06.77.41,1a3.49,3.49,0,0,0,1.48.25,3.5,3.5,0,0,0,1.48-.25c.35-.21.32-.53.41-1l.81-4c.11-.52.12-.79.48-1a31.61,31.61,0,0,1,3.53-.07c.19,0,.37,0,.51,0,.59.05.6.6.07.93-.26.16-.6.3-.83.43l-1.19.61c-.45.23-.69.44-1.06,0l-.27-.34c-.17-.21-.26-.63,0-.68-.42,0-.41.15-.49.53L35.81,33c-.21,1-.16,1.68-1.3,2.1A4.62,4.62,0,0,1,33,35.4Zm-1.13,9.66c-.15,2.12-.61,2.18-2.57,3a3.06,3.06,0,0,0-2,2.86,2.89,2.89,0,0,0,5.08,1.89,2.32,2.32,0,0,0-.06-3.13,2.2,2.2,0,0,0-2.55-.43,1.65,1.65,0,0,0-1.07,1.63,1.56,1.56,0,0,0,2.57,1.1c.79-.57.15-1.33-.33-.85s-1.2.57-1.34-.2a.93.93,0,0,1,.72-1c1.3-.45,2.09,1.13,1.6,2.05a2,2,0,0,1-3.76-1.16,2.26,2.26,0,0,1,1.17-1.87c1.1-.66,2.24-.38,3-1.93a7.82,7.82,0,0,0,.45-2.74A7.78,7.78,0,0,0,32.63,42c-.2-.65-.69-.54-.87,0-.3.87-.31,1.86-.64,2.74-.2.53-.6,1.38-1.25,1.41s-.78-.91,0-.91c.91,0,.95-.73,0-.85a1.32,1.32,0,0,0-1.42,1.7,1.65,1.65,0,0,0,2.55.54A3.47,3.47,0,0,0,31.88,45.06Zm-14.1-9.44a.39.39,0,0,0,.44.62c.17-.06.25-.18.47-.21.56-.08.65.66.17.9a1.15,1.15,0,0,1-1,0c-.93-.42-.66-1.69.38-2A1.72,1.72,0,0,1,19.6,35c1.31.71.63,2.47.09,3.21-2.32,3.17-1.67,9,1.23,11.36a4.13,4.13,0,0,0,6-.51,5.58,5.58,0,0,0,1-1.9c.32-.71-.59-1.22-.8-.19a3.86,3.86,0,0,1-.9,1.69,3.33,3.33,0,0,1-4.88.24c-2.08-1.88-2.87-6.11-1.9-8.55.32-.8.83-1.62,1.33-2.56a2.49,2.49,0,0,0-.9-3.57,2.53,2.53,0,0,0-2.4.15c-1.46,1-1.33,3,.36,3.43,1,.24,2.26-.37,2.05-1.63a1.19,1.19,0,0,0-.85-1A1.25,1.25,0,0,0,17.78,35.62ZM33,22.85a13.11,13.11,0,0,0-4.63-1.1c-1.11.07-1.24.56-1.78,1.34a3.92,3.92,0,0,1-2.9,1.74,3,3,0,0,1-2.55-3.9,2.78,2.78,0,0,1,3.61-1.47,2.1,2.1,0,0,1,.55,3.3,1.65,1.65,0,0,1-2.17.45,1.5,1.5,0,0,1-.41-2.08c.66-1.14,1.47-.69,1.16-.12-.12.22-.46.46-.53.71-.23.79.75,1.19,1.32.48a1.76,1.76,0,0,0,.37-.93c0-1.06-1.15-1.59-2.21-1a2,2,0,0,0-1,1.39,2.18,2.18,0,0,0,.42,1.62c1.09,1.43,2.8.68,3.62-.66.56-.92.92-1.44,2-1.61a6.57,6.57,0,0,1,2.15.08c.47.09,2.47.7,3,.9.49-.19,2.49-.81,3-.9A6.57,6.57,0,0,1,38.12,21c1,.17,1.41.69,2,1.61.82,1.34,2.53,2.08,3.62.66a2.18,2.18,0,0,0,.42-1.62,2,2,0,0,0-1-1.39c-1.05-.58-2.24-.05-2.21,1a1.76,1.76,0,0,0,.37.93c.57.7,1.55.31,1.33-.48-.07-.25-.41-.49-.53-.71-.3-.57.5-1,1.16.12a1.5,1.5,0,0,1-.41,2.08,1.65,1.65,0,0,1-2.17-.45,2.1,2.1,0,0,1,.55-3.3,2.78,2.78,0,0,1,3.61,1.47,3,3,0,0,1-2.55,3.9,3.92,3.92,0,0,1-2.9-1.74c-.54-.78-.67-1.27-1.78-1.34A13.11,13.11,0,0,0,33,22.85Zm0-4c-.82,0-1.64,0-2.31.09a16.68,16.68,0,0,0-3,.56l-.16.05c-1.07.35-.95.44-1.23-.19l-1.1-2.43c-.15-.33-.11-.42.19-.28l2.08,1c.46.23.95.26.94-.42V15.75c0-.55.26-.18.47,0l1.6,1.71c.46.49.78.45,1-.18L32.9,12.9c.06-.18.15-.18.21,0l1.46,4.42c.21.63.52.68,1,.18l1.6-1.71c.21-.22.48-.59.47,0v1.46c0,.68.48.65.94.42l2.08-1c.3-.15.34-.06.19.28l-1.1,2.43c-.29.63-.17.54-1.24.19l-.16-.05a16.66,16.66,0,0,0-3-.56C34.64,18.86,33.83,18.81,33,18.81Zm0,.83a22.06,22.06,0,0,0-2.44.1,12.2,12.2,0,0,0-3.48.79c-.47.2-.89.52-1.19-.13l-2-4.3c-.48-1,.23-1.08.47-1l2.75,1.4c.36.18.43.14.42-.25v-2c0-.53.43-.58.79-.2l1.93,2c.43.45.53.6.72,0l1.48-4.42c.11-.29.19-.77.54-.77s.43.48.54.77L35,16.09c.19.57.29.41.72,0l1.93-2c.36-.37.79-.33.79.2v2c0,.39.06.44.42.25l2.75-1.4c.24-.12.95-.07.47,1l-2,4.3c-.3.65-.72.33-1.19.13a12.2,12.2,0,0,0-3.48-.79A22.06,22.06,0,0,0,33,19.64ZM32.62,25a4.15,4.15,0,0,0-3.12-1.23c-2.38,0-2.83,1.64-4.47,2.78a2.54,2.54,0,0,0-1.37,2.08,6.1,6.1,0,0,0,.58,2.14c.34.87.87,1.67,1.25,2.53a10.51,10.51,0,0,1,.87,3.74c0,1.18-.83,2.6-1.32,3.73-.23,1.08.09,1.08,1,1.44.21.09.43.11.63.19.73.3.42.93-.47.79a4.54,4.54,0,0,1-1.44-.67,1.65,1.65,0,0,1-.55-1.85,12.49,12.49,0,0,1,1-2.21,4.84,4.84,0,0,0,.13-3.18,6.12,6.12,0,0,0-.6-1.72c-.39-.64-.77-1.53-1.12-2.23a5.58,5.58,0,0,1-.72-2.85,3.4,3.4,0,0,1,1.48-2.46C26.52,24.72,26.44,23,29.68,23c2.12,0,2.77,1.14,3.33,1.14S34.21,23,36.33,23c3.24,0,3.15,1.73,5.37,3.09a3.4,3.4,0,0,1,1.48,2.46,5.59,5.59,0,0,1-.72,2.85c-.34.7-.73,1.59-1.12,2.23a6.13,6.13,0,0,0-.6,1.72,4.85,4.85,0,0,0,.13,3.18,12.49,12.49,0,0,1,1,2.21,1.65,1.65,0,0,1-.55,1.85,4.54,4.54,0,0,1-1.44.67c-.89.13-1.2-.49-.47-.79.2-.08.42-.1.63-.19.87-.36,1.19-.36,1-1.44-.48-1.13-1.32-2.55-1.32-3.73a10.51,10.51,0,0,1,.87-3.74c.38-.86.91-1.66,1.25-2.53a6.07,6.07,0,0,0,.58-2.14A2.54,2.54,0,0,0,41,26.6c-1.64-1.15-2.09-2.78-4.47-2.78A4.15,4.15,0,0,0,33.39,25,.54.54,0,0,1,32.62,25ZM18,26.42c.44-1.73,2.26-2.36,3.31-1.19.61.69.76,2.07-.3,2.41a1.47,1.47,0,0,1-1.39-.33.67.67,0,1,1,.8-1.05,3,3,0,0,0,.47.33c.51.16.74-.42.29-.82l-.24-.21a1.49,1.49,0,0,0-2.14.17,1.69,1.69,0,0,0,.38,2.33,2.09,2.09,0,0,0,3.51-1.91,2.54,2.54,0,0,0-.82-1.61,2.71,2.71,0,0,0-4.07.36A5.1,5.1,0,0,0,17,28.69c.1,1.24,1.06,3.87,2,4.68.63.52,1.16.06.68-.54-.11-.14-.25-.27-.33-.38a8.74,8.74,0,0,1-1.48-3.77A6,6,0,0,1,18,26.42Zm7.48,22.35a3.1,3.1,0,0,0,1.23-2.1c.26-2.46-2.1-2.82-3.14-4.16A2.7,2.7,0,0,1,23.31,40l.33-1.22c.36-1.07-.6-1.42-.82-.43l-.4,1.77a4,4,0,0,0,0,2.17c.69,2,3.49,2.11,3.43,4.29a2.09,2.09,0,0,1-1.59,1.9,1.72,1.72,0,0,1-2.13-2.26,1.19,1.19,0,0,1,1.15-.64c.74.06,1.08.4,1.15.75.18,1-.81.93-1.38.48-.41-.33-1.06.3-.15.92a1.57,1.57,0,0,0,2.46-1.19,1.93,1.93,0,0,0-2.5-1.83,2.22,2.22,0,0,0-1.45,3.39A2.74,2.74,0,0,0,25.44,48.77Z" transform="translate(0.01 0)" style="fill: #1b1918;fill-rule: evenodd"/>
</svg>
